NotoSansDevanagari-CondensedSemiBold.ufo
<glyph name="exclam.deva" format="2">
  <advance width="358"/>
  <unicode hex="0021"/>
  <outline>
    <contour>
      <point x="136" y="232" type="line"/>
      <point x="244" y="232" type="line"/>
      <point x="266" y="714" type="line"/>
      <point x="113" y="714" type="line"/>
    </contour>
    <contour>
      <point x="112" y="71" type="curve" smooth="yes"/>
      <point x="112" y="18"/>
      <point x="141" y="-11"/>
      <point x="190" y="-11" type="curve" smooth="yes"/>
      <point x="236" y="-11"/>
      <point x="266" y="17"/>
      <point x="266" y="71" type="curve" smooth="yes"/>
      <point x="266" y="125"/>
      <point x="238" y="153"/>
      <point x="190" y="153" type="curve" smooth="yes"/>
      <point x="139" y="153"/>
      <point x="112" y="124"/>
    </contour>
  </outline>
</glyph>
<glyph name="quotedbl.deva" format="2">
  <advance width="506"/>
  <unicode hex="0022"/>
  <outline>
    <contour>
      <point x="112" y="471" type="line"/>
      <point x="215" y="471" type="line"/>
      <point x="234" y="729" type="line"/>
      <point x="93" y="729" type="line"/>
    </contour>
    <contour>
      <point x="306" y="471" type="line"/>
      <point x="409" y="471" type="line"/>
      <point x="428" y="729" type="line"/>
      <point x="287" y="729" type="line"/>
    </contour>
  </outline>
</glyph>
<glyph name="numbersign.deva" format="2">
  <advance width="510"/>
  <unicode hex="0023"/>
  <outline>
    <contour>
      <point x="103" y="163" type="line"/>
      <point x="82" y="0" type="line"/>
      <point x="177" y="0" type="line"/>
      <point x="198" y="163" type="line"/>
      <point x="269" y="163" type="line"/>
      <point x="248" y="0" type="line"/>
      <point x="343" y="0" type="line"/>
      <point x="364" y="163" type="line"/>
      <point x="456" y="163" type="line"/>
      <point x="456" y="259" type="line"/>
      <point x="379" y="259" type="line"/>
      <point x="393" y="378" type="line"/>
      <point x="479" y="378" type="line"/>
      <point x="479" y="474" type="line"/>
      <point x="407" y="474" type="line"/>
      <point x="428" y="632" type="line"/>
      <point x="333" y="632" type="line"/>
      <point x="312" y="474" type="line"/>
      <point x="241" y="474" type="line"/>
      <point x="262" y="632" type="line"/>
      <point x="167" y="632" type="line"/>
      <point x="146" y="474" type="line"/>
      <point x="54" y="474" type="line"/>
      <point x="54" y="378" type="line"/>
      <point x="131" y="378" type="line"/>
      <point x="117" y="259" type="line"/>
      <point x="31" y="259" type="line"/>
      <point x="31" y="163" type="line"/>
    </contour>
    <contour>
      <point x="285" y="258" type="line"/>
      <point x="210" y="258" type="line"/>
      <point x="225" y="380" type="line"/>
      <point x="300" y="380" type="line"/>
    </contour>
  </outline>
</glyph>
<glyph name="percent.deva" format="2">
  <advance width="757"/>
  <unicode hex="0025"/>
  <outline>
    <contour>
      <point x="494" y="622" type="line"/>
      <point x="161" y="0" type="line"/>
      <point x="264" y="0" type="line"/>
      <point x="597" y="622" type="line"/>
    </contour>
    <contour>
      <point x="184" y="264" type="curve" smooth="yes"/>
      <point x="276" y="264"/>
      <point x="326" y="330"/>
      <point x="326" y="449" type="curve" smooth="yes"/>
      <point x="326" y="570"/>
      <point x="273" y="632"/>
      <point x="186" y="632" type="curve" smooth="yes"/>
      <point x="99" y="632"/>
      <point x="45" y="568"/>
      <point x="45" y="449" type="curve" smooth="yes"/>
      <point x="45" y="326"/>
      <point x="101" y="264"/>
    </contour>
    <contour>
      <point x="187" y="358" type="curve" smooth="yes"/>
      <point x="160" y="358"/>
      <point x="152" y="390"/>
      <point x="152" y="448" type="curve" smooth="yes"/>
      <point x="152" y="506"/>
      <point x="160" y="538"/>
      <point x="187" y="538" type="curve" smooth="yes"/>
      <point x="212" y="538"/>
      <point x="220" y="506"/>
      <point x="220" y="448" type="curve" smooth="yes"/>
      <point x="220" y="390"/>
      <point x="212" y="358"/>
    </contour>
    <contour>
      <point x="571" y="-10" type="curve" smooth="yes"/>
      <point x="659" y="-10"/>
      <point x="712" y="55"/>
      <point x="712" y="173" type="curve" smooth="yes"/>
      <point x="712" y="296"/>
      <point x="657" y="358"/>
      <point x="572" y="358" type="curve" smooth="yes"/>
      <point x="481" y="358"/>
      <point x="431" y="292"/>
      <point x="431" y="173" type="curve" smooth="yes"/>
      <point x="431" y="53"/>
      <point x="484" y="-10"/>
    </contour>
    <contour>
      <point x="570" y="84" type="curve" smooth="yes"/>
      <point x="545" y="84"/>
      <point x="537" y="116"/>
      <point x="537" y="174" type="curve" smooth="yes"/>
      <point x="537" y="232"/>
      <point x="545" y="264"/>
      <point x="570" y="264" type="curve" smooth="yes"/>
      <point x="597" y="264"/>
      <point x="605" y="232"/>
      <point x="605" y="174" type="curve" smooth="yes"/>
      <point x="605" y="116"/>
      <point x="597" y="84"/>
    </contour>
  </outline>
</glyph>
<glyph name="parenleft.deva" format="2">
  <advance width="340"/>
  <unicode hex="0028"/>
  <outline>
    <contour>
      <point x="172" y="-165" type="curve"/>
      <point x="288" y="-165" type="line"/>
      <point x="217" y="-25"/>
      <point x="180" y="150"/>
      <point x="180" y="332" type="curve" smooth="yes"/>
      <point x="180" y="517"/>
      <point x="217" y="692"/>
      <point x="288" y="832" type="curve"/>
      <point x="172" y="832" type="line"/>
      <point x="98" y="698"/>
      <point x="59" y="521"/>
      <point x="59" y="333" type="curve" smooth="yes"/>
      <point x="59" y="146"/>
      <point x="98" y="-31"/>
    </contour>
  </outline>
</glyph>
<glyph name="parenright.deva" format="2">
  <advance width="340"/>
  <unicode hex="0029"/>
  <outline>
    <contour>
      <point x="52" y="-165" type="curve"/>
      <point x="168" y="-165" type="line"/>
      <point x="242" y="-31"/>
      <point x="281" y="146"/>
      <point x="281" y="334" type="curve" smooth="yes"/>
      <point x="281" y="521"/>
      <point x="242" y="698"/>
      <point x="168" y="832" type="curve"/>
      <point x="52" y="832" type="line"/>
      <point x="123" y="692"/>
      <point x="160" y="517"/>
      <point x="160" y="335" type="curve" smooth="yes"/>
      <point x="160" y="150"/>
      <point x="123" y="-25"/>
    </contour>
  </outline>
</glyph>
<glyph name="asterisk.deva" format="2">
  <advance width="559"/>
  <unicode hex="002A"/>
  <outline>
    <contour>
      <point x="108" y="356" type="line"/>
      <point x="219" y="300" type="line"/>
      <point x="282" y="443" type="line"/>
      <point x="355" y="299" type="line"/>
      <point x="460" y="356" type="line"/>
      <point x="358" y="493" type="line"/>
      <point x="515" y="504" type="line"/>
      <point x="500" y="623" type="line"/>
      <point x="327" y="575" type="line"/>
      <point x="346" y="745" type="line"/>
      <point x="222" y="745" type="line"/>
      <point x="241" y="575" type="line"/>
      <point x="72" y="623" type="line"/>
      <point x="54" y="505" type="line"/>
      <point x="210" y="493" type="line"/>
    </contour>
  </outline>
</glyph>
<glyph name="plus.deva" format="2">
  <advance width="460"/>
  <unicode hex="002B"/>
  <outline>
    <contour>
      <point x="177" y="271" type="line"/>
      <point x="177" y="101" type="line"/>
      <point x="283" y="101" type="line"/>
      <point x="283" y="271" type="line"/>
      <point x="426" y="271" type="line"/>
      <point x="426" y="375" type="line"/>
      <point x="283" y="375" type="line"/>
      <point x="283" y="545" type="line"/>
      <point x="177" y="545" type="line"/>
      <point x="177" y="375" type="line"/>
      <point x="34" y="375" type="line"/>
      <point x="34" y="271" type="line"/>
    </contour>
  </outline>
</glyph>
<glyph name="comma.deva" format="2">
  <advance width="268"/>
  <unicode hex="002C"/>
  <outline>
    <contour>
      <point x="37" y="-135" type="curve"/>
      <point x="143" y="-135" type="line"/>
      <point x="173" y="-63"/>
      <point x="196" y="24"/>
      <point x="212" y="124" type="curve"/>
      <point x="207" y="135" type="line"/>
      <point x="76" y="135" type="line"/>
      <point x="71" y="61"/>
      <point x="54" y="-57"/>
    </contour>
  </outline>
</glyph>
<glyph name="hyphen.deva" format="2">
  <advance width="306"/>
  <unicode hex="002D"/>
  <outline>
    <contour>
      <point x="46" y="357" type="line"/>
      <point x="46" y="237" type="line"/>
      <point x="260" y="237" type="line"/>
      <point x="260" y="357" type="line"/>
    </contour>
  </outline>
</glyph>
<glyph name="period.deva" format="2">
  <advance width="268"/>
  <unicode hex="002E"/>
  <outline>
    <contour>
      <point x="57" y="69" type="curve" smooth="yes"/>
      <point x="57" y="17"/>
      <point x="87" y="-13"/>
      <point x="135" y="-13" type="curve" smooth="yes"/>
      <point x="182" y="-13"/>
      <point x="211" y="16"/>
      <point x="211" y="69" type="curve" smooth="yes"/>
      <point x="211" y="123"/>
      <point x="183" y="151"/>
      <point x="135" y="151" type="curve" smooth="yes"/>
      <point x="85" y="151"/>
      <point x="57" y="122"/>
    </contour>
  </outline>
</glyph>
<glyph name="slash.deva" format="2">
  <advance width="424"/>
  <unicode hex="002F"/>
  <outline>
    <contour>
      <point x="270" y="832" type="line"/>
      <point x="33" y="-165" type="line"/>
      <point x="153" y="-165" type="line"/>
      <point x="390" y="832" type="line"/>
    </contour>
  </outline>
</glyph>
<glyph name="zero.deva" format="2">
  <advance width="457"/>
  <unicode hex="0030"/>
  <outline>
    <contour>
      <point x="229" y="-10" type="curve" smooth="yes"/>
      <point x="372" y="-10"/>
      <point x="423" y="123"/>
      <point x="423" y="356" type="curve" smooth="yes"/>
      <point x="423" y="605"/>
      <point x="359" y="724"/>
      <point x="229" y="724" type="curve" smooth="yes"/>
      <point x="101" y="724"/>
      <point x="35" y="618"/>
      <point x="35" y="356" type="curve" smooth="yes"/>
      <point x="35" y="116"/>
      <point x="97" y="-10"/>
    </contour>
    <contour>
      <point x="229" y="109" type="curve" smooth="yes"/>
      <point x="180" y="109"/>
      <point x="168" y="187"/>
      <point x="168" y="356" type="curve" smooth="yes"/>
      <point x="168" y="522"/>
      <point x="182" y="605"/>
      <point x="228" y="605" type="curve" smooth="yes"/>
      <point x="277" y="605"/>
      <point x="289" y="524"/>
      <point x="289" y="356" type="curve" smooth="yes"/>
      <point x="289" y="187"/>
      <point x="277" y="109"/>
    </contour>
  </outline>
</glyph>
<glyph name="one.deva" format="2">
  <advance width="457"/>
  <unicode hex="0031"/>
  <outline>
    <contour>
      <point x="211" y="0" type="line"/>
      <point x="346" y="0" type="line"/>
      <point x="346" y="714" type="line"/>
      <point x="229" y="714" type="line"/>
      <point x="36" y="513" type="line"/>
      <point x="117" y="433" type="line"/>
      <point x="172" y="492" type="line"/>
      <point x="188" y="509"/>
      <point x="205" y="529"/>
      <point x="213" y="543" type="curve"/>
      <point x="212" y="503"/>
      <point x="211" y="449"/>
      <point x="211" y="399" type="curve" smooth="yes"/>
    </contour>
  </outline>
</glyph>
<glyph name="two.deva" format="2">
  <advance width="457"/>
  <unicode hex="0032"/>
  <outline>
    <contour>
      <point x="23" y="98" type="line"/>
      <point x="23" y="0" type="line"/>
      <point x="412" y="0" type="line"/>
      <point x="412" y="119" type="line"/>
      <point x="187" y="119" type="line"/>
      <point x="187" y="124" type="line"/>
      <point x="282" y="255" type="line" smooth="yes"/>
      <point x="364" y="366"/>
      <point x="401" y="437"/>
      <point x="401" y="530" type="curve" smooth="yes"/>
      <point x="401" y="647"/>
      <point x="325" y="724"/>
      <point x="211" y="724" type="curve" smooth="yes"/>
      <point x="139" y="724"/>
      <point x="82" y="696"/>
      <point x="21" y="638" type="curve"/>
      <point x="89" y="548" type="line"/>
      <point x="125" y="585"/>
      <point x="160" y="606"/>
      <point x="196" y="606" type="curve" smooth="yes"/>
      <point x="243" y="606"/>
      <point x="267" y="574"/>
      <point x="267" y="520" type="curve" smooth="yes"/>
      <point x="267" y="461"/>
      <point x="245" y="407"/>
      <point x="164" y="295" type="curve" smooth="yes"/>
    </contour>
  </outline>
</glyph>
<glyph name="three.deva" format="2">
  <advance width="457"/>
  <unicode hex="0033"/>
  <outline>
    <contour>
      <point x="193" y="-10" type="curve" smooth="yes"/>
      <point x="332" y="-10"/>
      <point x="417" y="71"/>
      <point x="417" y="201" type="curve" smooth="yes"/>
      <point x="417" y="295"/>
      <point x="369" y="352"/>
      <point x="279" y="372" type="curve"/>
      <point x="279" y="375" type="line"/>
      <point x="360" y="403"/>
      <point x="402" y="466"/>
      <point x="402" y="543" type="curve" smooth="yes"/>
      <point x="402" y="658"/>
      <point x="330" y="724"/>
      <point x="220" y="724" type="curve" smooth="yes"/>
      <point x="145" y="724"/>
      <point x="87" y="701"/>
      <point x="26" y="660" type="curve"/>
      <point x="79" y="562" type="line"/>
      <point x="118" y="589"/>
      <point x="154" y="608"/>
      <point x="195" y="608" type="curve" smooth="yes"/>
      <point x="244" y="608"/>
      <point x="271" y="578"/>
      <point x="271" y="526" type="curve" smooth="yes"/>
      <point x="271" y="462"/>
      <point x="230" y="423"/>
      <point x="144" y="423" type="curve" smooth="yes"/>
      <point x="108" y="423" type="line"/>
      <point x="108" y="311" type="line"/>
      <point x="143" y="311" type="line" smooth="yes"/>
      <point x="237" y="311"/>
      <point x="277" y="275"/>
      <point x="277" y="206" type="curve" smooth="yes"/>
      <point x="277" y="141"/>
      <point x="245" y="106"/>
      <point x="173" y="106" type="curve" smooth="yes"/>
      <point x="125" y="106"/>
      <point x="75" y="121"/>
      <point x="27" y="150" type="curve"/>
      <point x="27" y="24" type="line"/>
      <point x="84" y="-2"/>
      <point x="130" y="-10"/>
    </contour>
  </outline>
</glyph>
<glyph name="four.deva" format="2">
  <advance width="457"/>
  <unicode hex="0034"/>
  <outline>
    <contour>
      <point x="244" y="148" type="line"/>
      <point x="244" y="0" type="line"/>
      <point x="375" y="0" type="line"/>
      <point x="375" y="148" type="line"/>
      <point x="441" y="148" type="line"/>
      <point x="441" y="260" type="line"/>
      <point x="375" y="260" type="line"/>
      <point x="375" y="716" type="line"/>
      <point x="245" y="716" type="line"/>
      <point x="14" y="256" type="line"/>
      <point x="14" y="148" type="line"/>
    </contour>
    <contour>
      <point x="244" y="260" type="line"/>
      <point x="125" y="260" type="line"/>
      <point x="210" y="439" type="line" smooth="yes"/>
      <point x="227" y="474"/>
      <point x="235" y="496"/>
      <point x="244" y="526" type="curve"/>
      <point x="247" y="526" type="line"/>
      <point x="246" y="514"/>
      <point x="244" y="439"/>
      <point x="244" y="420" type="curve" smooth="yes"/>
    </contour>
  </outline>
</glyph>
<glyph name="five.deva" format="2">
  <advance width="457"/>
  <unicode hex="0035"/>
  <outline>
    <contour>
      <point x="189" y="-10" type="curve" smooth="yes"/>
      <point x="342" y="-10"/>
      <point x="416" y="81"/>
      <point x="416" y="235" type="curve" smooth="yes"/>
      <point x="416" y="368"/>
      <point x="351" y="456"/>
      <point x="244" y="456" type="curve" smooth="yes"/>
      <point x="226" y="456"/>
      <point x="203" y="455"/>
      <point x="177" y="449" type="curve"/>
      <point x="188" y="593" type="line"/>
      <point x="381" y="593" type="line"/>
      <point x="381" y="714" type="line"/>
      <point x="75" y="714" type="line"/>
      <point x="52" y="360" type="line"/>
      <point x="96" y="326" type="line"/>
      <point x="126" y="336"/>
      <point x="151" y="342"/>
      <point x="182" y="342" type="curve" smooth="yes"/>
      <point x="244" y="342"/>
      <point x="280" y="305"/>
      <point x="280" y="229" type="curve" smooth="yes"/>
      <point x="280" y="152"/>
      <point x="251" y="107"/>
      <point x="178" y="107" type="curve" smooth="yes"/>
      <point x="133" y="107"/>
      <point x="85" y="124"/>
      <point x="43" y="150" type="curve"/>
      <point x="43" y="24" type="line"/>
      <point x="83" y="1"/>
      <point x="133" y="-10"/>
    </contour>
  </outline>
</glyph>
<glyph name="six.deva" format="2">
  <advance width="457"/>
  <unicode hex="0036"/>
  <outline>
    <contour>
      <point x="239" y="-10" type="curve" smooth="yes"/>
      <point x="361" y="-10"/>
      <point x="428" y="89"/>
      <point x="428" y="237" type="curve" smooth="yes"/>
      <point x="428" y="375"/>
      <point x="374" y="464"/>
      <point x="276" y="464" type="curve" smooth="yes"/>
      <point x="223" y="464"/>
      <point x="189" y="437"/>
      <point x="166" y="384" type="curve"/>
      <point x="162" y="384" type="line"/>
      <point x="169" y="543"/>
      <point x="216" y="610"/>
      <point x="316" y="610" type="curve" smooth="yes"/>
      <point x="344" y="610"/>
      <point x="371" y="607"/>
      <point x="396" y="600" type="curve"/>
      <point x="396" y="715" type="line"/>
      <point x="367" y="721"/>
      <point x="337" y="724"/>
      <point x="306" y="724" type="curve" smooth="yes"/>
      <point x="96" y="724"/>
      <point x="38" y="536"/>
      <point x="38" y="312" type="curve" smooth="yes"/>
      <point x="38" y="104"/>
      <point x="113" y="-10"/>
    </contour>
    <contour>
      <point x="237" y="107" type="curve" smooth="yes"/>
      <point x="193" y="107"/>
      <point x="173" y="167"/>
      <point x="173" y="247" type="curve" smooth="yes"/>
      <point x="173" y="307"/>
      <point x="197" y="353"/>
      <point x="237" y="353" type="curve" smooth="yes"/>
      <point x="277" y="353"/>
      <point x="297" y="313"/>
      <point x="297" y="234" type="curve" smooth="yes"/>
      <point x="297" y="146"/>
      <point x="273" y="107"/>
    </contour>
  </outline>
</glyph>
<glyph name="seven.deva" format="2">
  <advance width="457"/>
  <unicode hex="0037"/>
  <outline>
    <contour>
      <point x="284" y="593" type="line"/>
      <point x="80" y="0" type="line"/>
      <point x="229" y="0" type="line"/>
      <point x="425" y="614" type="line"/>
      <point x="425" y="714" type="line"/>
      <point x="32" y="714" type="line"/>
      <point x="32" y="593" type="line"/>
    </contour>
  </outline>
</glyph>
<glyph name="eight.deva" format="2">
  <advance width="457"/>
  <unicode hex="0038"/>
  <outline>
    <contour>
      <point x="230" y="-10" type="curve" smooth="yes"/>
      <point x="353" y="-10"/>
      <point x="428" y="64"/>
      <point x="428" y="184" type="curve" smooth="yes"/>
      <point x="428" y="261"/>
      <point x="390" y="318"/>
      <point x="311" y="375" type="curve"/>
      <point x="381" y="419"/>
      <point x="413" y="476"/>
      <point x="413" y="553" type="curve" smooth="yes"/>
      <point x="413" y="658"/>
      <point x="345" y="724"/>
      <point x="230" y="724" type="curve" smooth="yes"/>
      <point x="119" y="724"/>
      <point x="47" y="658"/>
      <point x="47" y="553" type="curve" smooth="yes"/>
      <point x="47" y="483"/>
      <point x="76" y="425"/>
      <point x="140" y="373" type="curve"/>
      <point x="63" y="322"/>
      <point x="30" y="262"/>
      <point x="30" y="183" type="curve" smooth="yes"/>
      <point x="30" y="64"/>
      <point x="102" y="-10"/>
    </contour>
    <contour>
      <point x="230" y="99" type="curve" smooth="yes"/>
      <point x="182" y="99"/>
      <point x="157" y="133"/>
      <point x="157" y="185" type="curve" smooth="yes"/>
      <point x="157" y="235"/>
      <point x="175" y="271"/>
      <point x="225" y="308" type="curve"/>
      <point x="278" y="267"/>
      <point x="299" y="229"/>
      <point x="299" y="183" type="curve" smooth="yes"/>
      <point x="299" y="131"/>
      <point x="276" y="99"/>
    </contour>
    <contour>
      <point x="228" y="441" type="curve"/>
      <point x="191" y="470"/>
      <point x="173" y="501"/>
      <point x="173" y="543" type="curve" smooth="yes"/>
      <point x="173" y="588"/>
      <point x="195" y="615"/>
      <point x="229" y="615" type="curve" smooth="yes"/>
      <point x="263" y="615"/>
      <point x="286" y="589"/>
      <point x="286" y="543" type="curve" smooth="yes"/>
      <point x="286" y="503"/>
      <point x="272" y="474"/>
    </contour>
  </outline>
</glyph>
<glyph name="nine.deva" format="2">
  <advance width="457"/>
  <unicode hex="0039"/>
  <outline>
    <contour>
      <point x="154" y="-10" type="curve" smooth="yes"/>
      <point x="368" y="-10"/>
      <point x="420" y="191"/>
      <point x="420" y="401" type="curve" smooth="yes"/>
      <point x="420" y="610"/>
      <point x="345" y="724"/>
      <point x="218" y="724" type="curve" smooth="yes"/>
      <point x="97" y="724"/>
      <point x="29" y="626"/>
      <point x="29" y="477" type="curve" smooth="yes"/>
      <point x="29" y="340"/>
      <point x="82" y="250"/>
      <point x="182" y="250" type="curve" smooth="yes"/>
      <point x="234" y="250"/>
      <point x="268" y="277"/>
      <point x="291" y="330" type="curve"/>
      <point x="296" y="330" type="line"/>
      <point x="290" y="187"/>
      <point x="253" y="104"/>
      <point x="141" y="104" type="curve" smooth="yes"/>
      <point x="117" y="104"/>
      <point x="89" y="107"/>
      <point x="66" y="114" type="curve"/>
      <point x="66" y="-1" type="line"/>
      <point x="93" y="-7"/>
      <point x="125" y="-10"/>
    </contour>
    <contour>
      <point x="219" y="361" type="curve" smooth="yes"/>
      <point x="180" y="361"/>
      <point x="160" y="401"/>
      <point x="160" y="480" type="curve" smooth="yes"/>
      <point x="160" y="568"/>
      <point x="183" y="607"/>
      <point x="220" y="607" type="curve" smooth="yes"/>
      <point x="273" y="607"/>
      <point x="284" y="519"/>
      <point x="284" y="464" type="curve" smooth="yes"/>
      <point x="284" y="417"/>
      <point x="265" y="361"/>
    </contour>
  </outline>
</glyph>
<glyph name="colon.deva" format="2">
  <advance width="308"/>
  <unicode hex="003A"/>
  <outline>
    <contour>
      <point x="155" y="391" type="curve" smooth="yes"/>
      <point x="201" y="391"/>
      <point x="230" y="420"/>
      <point x="230" y="473" type="curve" smooth="yes"/>
      <point x="230" y="526"/>
      <point x="204" y="556"/>
      <point x="155" y="556" type="curve" smooth="yes"/>
      <point x="104" y="556"/>
      <point x="77" y="526"/>
      <point x="77" y="473" type="curve" smooth="yes"/>
      <point x="77" y="420"/>
      <point x="106" y="391"/>
    </contour>
    <contour>
      <point x="155" y="-13" type="curve" smooth="yes"/>
      <point x="201" y="-13"/>
      <point x="230" y="16"/>
      <point x="230" y="69" type="curve" smooth="yes"/>
      <point x="230" y="123"/>
      <point x="203" y="151"/>
      <point x="155" y="151" type="curve" smooth="yes"/>
      <point x="104" y="151"/>
      <point x="77" y="122"/>
      <point x="77" y="69" type="curve" smooth="yes"/>
      <point x="77" y="17"/>
      <point x="106" y="-13"/>
    </contour>
  </outline>
</glyph>
<glyph name="semicolon.deva" format="2">
  <advance width="308"/>
  <unicode hex="003B"/>
  <outline>
    <contour>
      <point x="226" y="134" type="line"/>
      <point x="96" y="134" type="line"/>
      <point x="90" y="59"/>
      <point x="74" y="-55"/>
      <point x="56" y="-136" type="curve"/>
      <point x="163" y="-136" type="line"/>
      <point x="192" y="-63"/>
      <point x="216" y="23"/>
      <point x="232" y="123" type="curve"/>
    </contour>
    <contour>
      <point x="155" y="391" type="curve" smooth="yes"/>
      <point x="201" y="391"/>
      <point x="230" y="420"/>
      <point x="230" y="473" type="curve" smooth="yes"/>
      <point x="230" y="526"/>
      <point x="204" y="556"/>
      <point x="155" y="556" type="curve" smooth="yes"/>
      <point x="104" y="556"/>
      <point x="77" y="526"/>
      <point x="77" y="473" type="curve" smooth="yes"/>
      <point x="77" y="420"/>
      <point x="106" y="391"/>
    </contour>
  </outline>
</glyph>
<glyph name="less.deva" format="2">
  <advance width="460"/>
  <unicode hex="003C"/>
  <outline>
    <contour>
      <point x="34" y="287" type="line"/>
      <point x="426" y="74" type="line"/>
      <point x="426" y="192" type="line"/>
      <point x="172" y="322" type="line"/>
      <point x="426" y="452" type="line"/>
      <point x="426" y="570" type="line"/>
      <point x="34" y="357" type="line"/>
    </contour>
  </outline>
</glyph>
<glyph name="equal.deva" format="2">
  <advance width="460"/>
  <unicode hex="003D"/>
  <outline>
    <contour>
      <point x="39" y="468" type="line"/>
      <point x="39" y="364" type="line"/>
      <point x="421" y="364" type="line"/>
      <point x="421" y="468" type="line"/>
    </contour>
    <contour>
      <point x="39" y="280" type="line"/>
      <point x="39" y="176" type="line"/>
      <point x="421" y="176" type="line"/>
      <point x="421" y="280" type="line"/>
    </contour>
  </outline>
</glyph>
<glyph name="greater.deva" format="2">
  <advance width="460"/>
  <unicode hex="003E"/>
  <outline>
    <contour>
      <point x="34" y="192" type="line"/>
      <point x="34" y="74" type="line"/>
      <point x="426" y="287" type="line"/>
      <point x="426" y="357" type="line"/>
      <point x="34" y="570" type="line"/>
      <point x="34" y="452" type="line"/>
      <point x="288" y="322" type="line"/>
    </contour>
  </outline>
</glyph>
<glyph name="question.deva" format="2">
  <advance width="462"/>
  <unicode hex="003F"/>
  <outline>
    <contour>
      <point x="151" y="232" type="line"/>
      <point x="259" y="232" type="line"/>
      <point x="259" y="249" type="line" smooth="yes"/>
      <point x="259" y="290"/>
      <point x="271" y="312"/>
      <point x="310" y="358" type="curve" smooth="yes"/>
      <point x="361" y="419"/>
      <point x="400" y="465"/>
      <point x="400" y="553" type="curve" smooth="yes"/>
      <point x="400" y="657"/>
      <point x="332" y="724"/>
      <point x="221" y="724" type="curve" smooth="yes"/>
      <point x="161" y="724"/>
      <point x="108" y="708"/>
      <point x="60" y="685" type="curve"/>
      <point x="106" y="580" type="line"/>
      <point x="138" y="596"/>
      <point x="167" y="607"/>
      <point x="206" y="607" type="curve" smooth="yes"/>
      <point x="250" y="607"/>
      <point x="272" y="583"/>
      <point x="272" y="541" type="curve" smooth="yes"/>
      <point x="272" y="496"/>
      <point x="252" y="466"/>
      <point x="213" y="422" type="curve" smooth="yes"/>
      <point x="170" y="373"/>
      <point x="151" y="334"/>
      <point x="151" y="267" type="curve" smooth="yes"/>
    </contour>
    <contour>
      <point x="128" y="71" type="curve" smooth="yes"/>
      <point x="128" y="19"/>
      <point x="158" y="-11"/>
      <point x="206" y="-11" type="curve" smooth="yes"/>
      <point x="253" y="-11"/>
      <point x="282" y="18"/>
      <point x="282" y="71" type="curve" smooth="yes"/>
      <point x="282" y="125"/>
      <point x="254" y="153"/>
      <point x="206" y="153" type="curve" smooth="yes"/>
      <point x="156" y="153"/>
      <point x="128" y="124"/>
    </contour>
  </outline>
</glyph>
<glyph name="bracketleft.deva" format="2">
  <advance width="338"/>
  <unicode hex="005B"/>
  <outline>
    <contour>
      <point x="87" y="832" type="line"/>
      <point x="87" y="-165" type="line"/>
      <point x="289" y="-165" type="line"/>
      <point x="289" y="-64" type="line"/>
      <point x="204" y="-64" type="line"/>
      <point x="204" y="731" type="line"/>
      <point x="289" y="731" type="line"/>
      <point x="289" y="832" type="line"/>
    </contour>
  </outline>
</glyph>
<glyph name="backslash.deva" format="2">
  <advance width="424"/>
  <unicode hex="005C"/>
  <outline>
    <contour>
      <point x="33" y="832" type="line"/>
      <point x="270" y="-165" type="line"/>
      <point x="390" y="-165" type="line"/>
      <point x="153" y="832" type="line"/>
    </contour>
  </outline>
</glyph>
<glyph name="bracketright.deva" format="2">
  <advance width="338"/>
  <unicode hex="005D"/>
  <outline>
    <contour>
      <point x="49" y="-64" type="line"/>
      <point x="49" y="-165" type="line"/>
      <point x="251" y="-165" type="line"/>
      <point x="251" y="832" type="line"/>
      <point x="49" y="832" type="line"/>
      <point x="49" y="731" type="line"/>
      <point x="134" y="731" type="line"/>
      <point x="134" y="-64" type="line"/>
    </contour>
  </outline>
</glyph>
<glyph name="asciicircum.deva" format="2">
  <advance width="460"/>
  <unicode hex="005E"/>
  <outline>
    <contour>
      <point x="191" y="718" type="line"/>
      <point x="10" y="315" type="line"/>
      <point x="124" y="315" type="line"/>
      <point x="228" y="569" type="line"/>
      <point x="334" y="315" type="line"/>
      <point x="448" y="315" type="line"/>
      <point x="264" y="718" type="line"/>
    </contour>
  </outline>
</glyph>
<glyph name="underscore.deva" format="2">
  <advance width="300"/>
  <unicode hex="005F"/>
  <outline>
    <contour>
      <point x="0" y="-90" type="line"/>
      <point x="0" y="-157" type="line"/>
      <point x="300" y="-157" type="line"/>
      <point x="300" y="-90" type="line"/>
    </contour>
  </outline>
</glyph>
<glyph name="braceleft.deva" format="2">
  <advance width="369"/>
  <unicode hex="007B"/>
  <outline>
    <contour>
      <point x="38" y="385" type="curve"/>
      <point x="38" y="281" type="line"/>
      <point x="94" y="281"/>
      <point x="129" y="257"/>
      <point x="129" y="193" type="curve" smooth="yes"/>
      <point x="129" y="-7" type="line" smooth="yes"/>
      <point x="129" y="-119"/>
      <point x="178" y="-165"/>
      <point x="320" y="-166" type="curve"/>
      <point x="320" y="-61" type="line"/>
      <point x="271" y="-60"/>
      <point x="246" y="-52"/>
      <point x="246" y="6" type="curve" smooth="yes"/>
      <point x="246" y="209" type="line" smooth="yes"/>
      <point x="246" y="282"/>
      <point x="212" y="318"/>
      <point x="158" y="330" type="curve"/>
      <point x="158" y="336" type="line"/>
      <point x="211" y="348"/>
      <point x="246" y="384"/>
      <point x="246" y="458" type="curve" smooth="yes"/>
      <point x="246" y="660" type="line" smooth="yes"/>
      <point x="246" y="718"/>
      <point x="271" y="726"/>
      <point x="320" y="727" type="curve"/>
      <point x="320" y="832" type="line"/>
      <point x="178" y="831"/>
      <point x="129" y="784"/>
      <point x="129" y="673" type="curve" smooth="yes"/>
      <point x="129" y="469" type="line" smooth="yes"/>
      <point x="129" y="410"/>
      <point x="95" y="385"/>
    </contour>
  </outline>
</glyph>
<glyph name="braceright.deva" format="2">
  <advance width="369"/>
  <unicode hex="007D"/>
  <outline>
    <contour>
      <point x="331" y="281" type="curve"/>
      <point x="331" y="385" type="line"/>
      <point x="275" y="385"/>
      <point x="240" y="409"/>
      <point x="240" y="473" type="curve" smooth="yes"/>
      <point x="240" y="673" type="line" smooth="yes"/>
      <point x="240" y="785"/>
      <point x="191" y="831"/>
      <point x="49" y="832" type="curve"/>
      <point x="49" y="727" type="line"/>
      <point x="99" y="726"/>
      <point x="123" y="718"/>
      <point x="123" y="660" type="curve" smooth="yes"/>
      <point x="123" y="457" type="line" smooth="yes"/>
      <point x="123" y="384"/>
      <point x="157" y="348"/>
      <point x="211" y="336" type="curve"/>
      <point x="211" y="330" type="line"/>
      <point x="158" y="318"/>
      <point x="123" y="282"/>
      <point x="123" y="208" type="curve" smooth="yes"/>
      <point x="123" y="6" type="line" smooth="yes"/>
      <point x="123" y="-52"/>
      <point x="99" y="-60"/>
      <point x="49" y="-61" type="curve"/>
      <point x="49" y="-166" type="line"/>
      <point x="190" y="-165"/>
      <point x="240" y="-118"/>
      <point x="240" y="-7" type="curve" smooth="yes"/>
      <point x="240" y="197" type="line" smooth="yes"/>
      <point x="240" y="256"/>
      <point x="274" y="281"/>
    </contour>
  </outline>
</glyph>
<glyph name="asciitilde.deva" format="2">
  <advance width="460"/>
  <unicode hex="007E"/>
  <outline>
    <contour>
      <point x="34" y="353" type="curve"/>
      <point x="34" y="246" type="line"/>
      <point x="69" y="280"/>
      <point x="96" y="300"/>
      <point x="128" y="300" type="curve" smooth="yes"/>
      <point x="154" y="300"/>
      <point x="171" y="295"/>
      <point x="215" y="273" type="curve" smooth="yes"/>
      <point x="262" y="249"/>
      <point x="288" y="242"/>
      <point x="321" y="242" type="curve" smooth="yes"/>
      <point x="364" y="242"/>
      <point x="394" y="261"/>
      <point x="426" y="293" type="curve"/>
      <point x="426" y="401" type="line"/>
      <point x="390" y="367"/>
      <point x="365" y="346"/>
      <point x="333" y="346" type="curve" smooth="yes"/>
      <point x="308" y="346"/>
      <point x="293" y="352"/>
      <point x="245" y="374" type="curve" smooth="yes"/>
      <point x="195" y="397"/>
      <point x="172" y="404"/>
      <point x="140" y="404" type="curve" smooth="yes"/>
      <point x="97" y="404"/>
      <point x="66" y="386"/>
    </contour>
  </outline>
</glyph>
<glyph name="multiply.deva" format="2">
  <advance width="460"/>
  <unicode hex="00D7"/>
  <outline>
    <contour>
      <point x="230" y="252" type="line"/>
      <point x="355" y="123" type="line"/>
      <point x="428" y="197" type="line"/>
      <point x="300" y="323" type="line"/>
      <point x="428" y="449" type="line"/>
      <point x="355" y="523" type="line"/>
      <point x="230" y="392" type="line"/>
      <point x="103" y="523" type="line"/>
      <point x="30" y="449" type="line"/>
      <point x="159" y="323" type="line"/>
      <point x="30" y="197" type="line"/>
      <point x="103" y="123" type="line"/>
    </contour>
  </outline>
</glyph>
<glyph name="divide.deva" format="2">
  <advance width="460"/>
  <unicode hex="00F7"/>
  <outline>
    <contour>
      <point x="34" y="375" type="line"/>
      <point x="34" y="271" type="line"/>
      <point x="426" y="271" type="line"/>
      <point x="426" y="375" type="line"/>
    </contour>
    <contour>
      <point x="230" y="83" type="curve" smooth="yes"/>
      <point x="264" y="83"/>
      <point x="293" y="103"/>
      <point x="293" y="153" type="curve" smooth="yes"/>
      <point x="293" y="205"/>
      <point x="264" y="223"/>
      <point x="230" y="223" type="curve" smooth="yes"/>
      <point x="195" y="223"/>
      <point x="166" y="205"/>
      <point x="166" y="153" type="curve" smooth="yes"/>
      <point x="166" y="103"/>
      <point x="195" y="83"/>
    </contour>
    <contour>
      <point x="230" y="422" type="curve" smooth="yes"/>
      <point x="264" y="422"/>
      <point x="293" y="443"/>
      <point x="293" y="493" type="curve" smooth="yes"/>
      <point x="293" y="543"/>
      <point x="264" y="563"/>
      <point x="230" y="563" type="curve" smooth="yes"/>
      <point x="195" y="563"/>
      <point x="166" y="543"/>
      <point x="166" y="493" type="curve" smooth="yes"/>
      <point x="166" y="443"/>
      <point x="195" y="422"/>
    </contour>
  </outline>
</glyph>
<glyph name="binducandradeva" format="2">
  <unicode hex="0900"/>
  <outline>
    <contour>
      <point x="-317" y="685" type="curve"/>
      <point x="-228" y="663" type="line"/>
      <point x="-217" y="761"/>
      <point x="-197" y="808"/>
      <point x="-139" y="808" type="curve" smooth="yes"/>
      <point x="-86" y="808"/>
      <point x="-60" y="764"/>
      <point x="-36" y="663" type="curve"/>
      <point x="47" y="689" type="line"/>
      <point x="14" y="831"/>
      <point x="-47" y="896"/>
      <point x="-138" y="896" type="curve" smooth="yes"/>
      <point x="-239" y="896"/>
      <point x="-299" y="838"/>
    </contour>
    <contour>
      <point x="-88" y="712" type="curve" smooth="yes"/>
      <point x="-88" y="745"/>
      <point x="-108" y="768"/>
      <point x="-138" y="768" type="curve" smooth="yes"/>
      <point x="-169" y="768"/>
      <point x="-189" y="746"/>
      <point x="-189" y="713" type="curve" smooth="yes"/>
      <point x="-189" y="681"/>
      <point x="-169" y="659"/>
      <point x="-138" y="659" type="curve" smooth="yes"/>
      <point x="-107" y="659"/>
      <point x="-88" y="681"/>
    </contour>
  </outline>
</glyph>
<glyph name="candrabindudeva" format="2">
  <unicode hex="0901"/>
  <outline>
    <contour>
      <point x="-181" y="843" type="curve" smooth="yes"/>
      <point x="-181" y="810"/>
      <point x="-161" y="787"/>
      <point x="-131" y="787" type="curve" smooth="yes"/>
      <point x="-100" y="787"/>
      <point x="-81" y="809"/>
      <point x="-81" y="842" type="curve" smooth="yes"/>
      <point x="-81" y="875"/>
      <point x="-100" y="896"/>
      <point x="-131" y="896" type="curve" smooth="yes"/>
      <point x="-162" y="896"/>
      <point x="-181" y="875"/>
    </contour>
    <contour>
      <point x="47" y="870" type="curve"/>
      <point x="-41" y="893" type="line"/>
      <point x="-53" y="794"/>
      <point x="-72" y="747"/>
      <point x="-131" y="747" type="curve" smooth="yes"/>
      <point x="-184" y="747"/>
      <point x="-209" y="793"/>
      <point x="-234" y="892" type="curve"/>
      <point x="-317" y="866" type="line"/>
      <point x="-283" y="724"/>
      <point x="-222" y="659"/>
      <point x="-131" y="659" type="curve" smooth="yes"/>
      <point x="-31" y="659"/>
      <point x="29" y="717"/>
    </contour>
  </outline>
</glyph>
<glyph name="anusvaradeva" format="2">
  <unicode hex="0902"/>
  <outline>
    <contour>
      <point x="-183" y="773" type="curve" smooth="yes"/>
      <point x="-183" y="732"/>
      <point x="-159" y="704"/>
      <point x="-119" y="704" type="curve" smooth="yes"/>
      <point x="-79" y="704"/>
      <point x="-56" y="732"/>
      <point x="-56" y="773" type="curve" smooth="yes"/>
      <point x="-56" y="813"/>
      <point x="-79" y="842"/>
      <point x="-119" y="842" type="curve" smooth="yes"/>
      <point x="-159" y="842"/>
      <point x="-183" y="813"/>
    </contour>
  </outline>
</glyph>
<glyph name="visargadeva" format="2">
  <advance width="234"/>
  <unicode hex="0903"/>
  <outline>
    <contour>
      <point x="55" y="118" type="curve" smooth="yes"/>
      <point x="55" y="75"/>
      <point x="80" y="44"/>
      <point x="123" y="44" type="curve" smooth="yes"/>
      <point x="166" y="44"/>
      <point x="191" y="75"/>
      <point x="191" y="118" type="curve" smooth="yes"/>
      <point x="191" y="160"/>
      <point x="166" y="192"/>
      <point x="123" y="192" type="curve" smooth="yes"/>
      <point x="80" y="192"/>
      <point x="55" y="160"/>
    </contour>
    <contour>
      <point x="55" y="437" type="curve" smooth="yes"/>
      <point x="55" y="393"/>
      <point x="80" y="363"/>
      <point x="123" y="363" type="curve" smooth="yes"/>
      <point x="166" y="363"/>
      <point x="191" y="393"/>
      <point x="191" y="437" type="curve" smooth="yes"/>
      <point x="191" y="479"/>
      <point x="166" y="510"/>
      <point x="123" y="510" type="curve" smooth="yes"/>
      <point x="80" y="510"/>
      <point x="55" y="479"/>
    </contour>
  </outline>
</glyph>
<glyph name="adeva" format="2">
  <advance width="659"/>
  <unicode hex="0905"/>
  <outline>
    <contour>
      <point x="601" y="514" type="line"/>
      <point x="671" y="514" type="line"/>
      <point x="671" y="622" type="line"/>
      <point x="433" y="622" type="line"/>
      <point x="433" y="514" type="line"/>
      <point x="480" y="514" type="line"/>
      <point x="480" y="0" type="line"/>
      <point x="601" y="0" type="line"/>
    </contour>
    <contour>
      <point x="244" y="632" type="curve" smooth="yes"/>
      <point x="190" y="632"/>
      <point x="153" y="620"/>
      <point x="111" y="602" type="curve"/>
      <point x="149" y="501" type="line"/>
      <point x="175" y="516"/>
      <point x="202" y="523"/>
      <point x="224" y="523" type="curve" smooth="yes"/>
      <point x="261" y="523"/>
      <point x="279" y="504"/>
      <point x="279" y="472" type="curve" smooth="yes"/>
      <point x="279" y="438"/>
      <point x="252" y="417"/>
      <point x="200" y="412" type="curve"/>
      <point x="212" y="308" type="line"/>
      <point x="318" y="320"/>
      <point x="399" y="371"/>
      <point x="399" y="478" type="curve" smooth="yes"/>
      <point x="399" y="568"/>
      <point x="342" y="632"/>
    </contour>
    <contour>
      <point x="408" y="209" type="curve" smooth="yes"/>
      <point x="408" y="245"/>
      <point x="400" y="277"/>
      <point x="389" y="302" type="curve" smooth="yes"/>
      <point x="382" y="320" type="line" smooth="yes"/>
      <point x="371" y="342"/>
      <point x="352" y="364"/>
      <point x="336" y="377" type="curve"/>
      <point x="287" y="379" type="line"/>
      <point x="227" y="345" type="line"/>
      <point x="259" y="310"/>
      <point x="288" y="273"/>
      <point x="288" y="219" type="curve" smooth="yes"/>
      <point x="288" y="192"/>
      <point x="275" y="174"/>
      <point x="248" y="174" type="curve" smooth="yes"/>
      <point x="198" y="174"/>
      <point x="161" y="240"/>
      <point x="127" y="378" type="curve"/>
      <point x="17" y="350" type="line"/>
      <point x="74" y="137"/>
      <point x="142" y="64"/>
      <point x="257" y="64" type="curve" smooth="yes"/>
      <point x="354" y="64"/>
      <point x="408" y="116"/>
    </contour>
    <contour>
      <point x="408" y="348" type="curve" smooth="yes"/>
      <point x="381" y="348"/>
      <point x="358" y="352"/>
      <point x="336" y="359" type="curve"/>
      <point x="327" y="346" type="line"/>
      <point x="341" y="258" type="line"/>
      <point x="359" y="251"/>
      <point x="393" y="246"/>
      <point x="419" y="246" type="curve" smooth="yes"/>
      <point x="453" y="246"/>
      <point x="487" y="251"/>
      <point x="517" y="274" type="curve"/>
      <point x="516" y="378" type="line"/>
      <point x="474" y="354"/>
      <point x="446" y="348"/>
    </contour>
  </outline>
</glyph>
<glyph name="ideva" format="2">
  <advance width="399"/>
  <unicode hex="0907"/>
  <outline>
    <contour>
      <point x="192" y="200" type="curve" smooth="yes"/>
      <point x="235" y="200"/>
      <point x="251" y="182"/>
      <point x="251" y="153" type="curve" smooth="yes"/>
      <point x="251" y="118"/>
      <point x="229" y="101"/>
      <point x="182" y="101" type="curve" smooth="yes"/>
      <point x="159" y="101"/>
      <point x="128" y="106"/>
      <point x="94" y="121" type="curve"/>
      <point x="115" y="22" type="line"/>
      <point x="177" y="-30"/>
      <point x="240" y="-80"/>
      <point x="307" y="-122" type="curve"/>
      <point x="358" y="-32" type="line"/>
      <point x="309" y="-14"/>
      <point x="232" y="21"/>
      <point x="197" y="42" type="curve"/>
      <point x="165" y="110"/>
      <point x="125" y="141"/>
      <point x="85" y="141" type="curve" smooth="yes"/>
      <point x="52" y="141"/>
      <point x="27" y="119"/>
      <point x="27" y="80" type="curve" smooth="yes"/>
      <point x="27" y="18"/>
      <point x="82" y="2"/>
      <point x="167" y="1" type="curve"/>
      <point x="174" y="1"/>
      <point x="189" y="3"/>
      <point x="193" y="3" type="curve" smooth="yes"/>
      <point x="323" y="3"/>
      <point x="372" y="66"/>
      <point x="372" y="153" type="curve" smooth="yes"/>
      <point x="372" y="235"/>
      <point x="323" y="297"/>
      <point x="220" y="297" type="curve" smooth="yes"/>
      <point x="200" y="297"/>
      <point x="180" y="295"/>
      <point x="160" y="290" type="curve"/>
      <point x="150" y="303"/>
      <point x="144" y="316"/>
      <point x="144" y="333" type="curve" smooth="yes"/>
      <point x="144" y="340"/>
      <point x="146" y="348"/>
      <point x="150" y="351" type="curve" smooth="yes"/>
      <point x="156" y="358"/>
      <point x="164" y="360"/>
      <point x="186" y="360" type="curve" smooth="yes"/>
      <point x="334" y="360" type="line"/>
      <point x="334" y="514" type="line"/>
      <point x="411" y="514" type="line"/>
      <point x="411" y="622" type="line"/>
      <point x="0" y="622" type="line"/>
      <point x="0" y="514" type="line"/>
      <point x="215" y="514" type="line"/>
      <point x="215" y="453" type="line"/>
      <point x="183" y="453" type="line" smooth="yes"/>
      <point x="112" y="453"/>
      <point x="82" y="439"/>
      <point x="60" y="419" type="curve" smooth="yes"/>
      <point x="38" y="399"/>
      <point x="27" y="371"/>
      <point x="27" y="338" type="curve" smooth="yes"/>
      <point x="27" y="276"/>
      <point x="66" y="227"/>
      <point x="112" y="187" type="curve"/>
      <point x="136" y="195"/>
      <point x="164" y="200"/>
    </contour>
  </outline>
</glyph>
<glyph name="udeva" format="2">
  <advance width="448"/>
  <unicode hex="0909"/>
  <outline>
    <contour>
      <point x="0" y="622" type="line"/>
      <point x="0" y="514" type="line"/>
      <point x="460" y="514" type="line"/>
      <point x="460" y="622" type="line"/>
    </contour>
    <contour>
      <point x="238" y="610" type="curve"/>
      <point x="216" y="533" type="line"/>
      <point x="258" y="513"/>
      <point x="284" y="492"/>
      <point x="284" y="449" type="curve" smooth="yes"/>
      <point x="284" y="400"/>
      <point x="253" y="382"/>
      <point x="194" y="377" type="curve"/>
      <point x="206" y="273" type="line"/>
      <point x="339" y="290"/>
      <point x="406" y="341"/>
      <point x="406" y="442" type="curve" smooth="yes"/>
      <point x="406" y="542"/>
      <point x="303" y="601"/>
    </contour>
    <contour>
      <point x="338" y="334" type="curve"/>
      <point x="231" y="295" type="line"/>
      <point x="271" y="255"/>
      <point x="300" y="212"/>
      <point x="300" y="161" type="curve" smooth="yes"/>
      <point x="300" y="129"/>
      <point x="287" y="111"/>
      <point x="258" y="111" type="curve" smooth="yes"/>
      <point x="203" y="111"/>
      <point x="167" y="184"/>
      <point x="127" y="338" type="curve"/>
      <point x="17" y="309" type="line"/>
      <point x="78" y="77"/>
      <point x="148" y="0"/>
      <point x="268" y="0" type="curve" smooth="yes"/>
      <point x="362" y="0"/>
      <point x="422" y="54"/>
      <point x="422" y="149" type="curve" smooth="yes"/>
      <point x="422" y="237"/>
      <point x="379" y="292"/>
    </contour>
  </outline>
</glyph>
<glyph name="uudeva" format="2">
  <advance width="637"/>
  <unicode hex="090A"/>
  <outline>
    <contour>
      <point x="0" y="622" type="line"/>
      <point x="0" y="514" type="line"/>
      <point x="649" y="514" type="line"/>
      <point x="649" y="622" type="line"/>
    </contour>
    <contour>
      <point x="238" y="610" type="curve"/>
      <point x="216" y="533" type="line"/>
      <point x="258" y="513"/>
      <point x="284" y="492"/>
      <point x="284" y="449" type="curve" smooth="yes"/>
      <point x="284" y="400"/>
      <point x="253" y="382"/>
      <point x="194" y="377" type="curve"/>
      <point x="206" y="273" type="line"/>
      <point x="339" y="290"/>
      <point x="406" y="341"/>
      <point x="406" y="442" type="curve" smooth="yes"/>
      <point x="406" y="542"/>
      <point x="303" y="601"/>
    </contour>
    <contour>
      <point x="338" y="334" type="curve"/>
      <point x="231" y="295" type="line"/>
      <point x="271" y="255"/>
      <point x="300" y="212"/>
      <point x="300" y="161" type="curve" smooth="yes"/>
      <point x="300" y="129"/>
      <point x="287" y="111"/>
      <point x="258" y="111" type="curve" smooth="yes"/>
      <point x="203" y="111"/>
      <point x="167" y="184"/>
      <point x="127" y="338" type="curve"/>
      <point x="17" y="309" type="line"/>
      <point x="78" y="77"/>
      <point x="148" y="0"/>
      <point x="268" y="0" type="curve" smooth="yes"/>
      <point x="362" y="0"/>
      <point x="422" y="54"/>
      <point x="422" y="149" type="curve" smooth="yes"/>
      <point x="422" y="237"/>
      <point x="379" y="292"/>
    </contour>
    <contour>
      <point x="350" y="283" type="curve"/>
      <point x="398" y="186" type="line"/>
      <point x="419" y="219"/>
      <point x="438" y="240"/>
      <point x="462" y="240" type="curve" smooth="yes"/>
      <point x="478" y="240"/>
      <point x="492" y="227"/>
      <point x="492" y="187" type="curve" smooth="yes"/>
      <point x="492" y="139"/>
      <point x="473" y="93"/>
      <point x="451" y="52" type="curve"/>
      <point x="558" y="-1" type="line"/>
      <point x="592" y="64"/>
      <point x="613" y="132"/>
      <point x="613" y="192" type="curve" smooth="yes"/>
      <point x="613" y="291"/>
      <point x="562" y="347"/>
      <point x="488" y="347" type="curve" smooth="yes"/>
      <point x="430" y="347"/>
      <point x="392" y="319"/>
    </contour>
  </outline>
</glyph>
<glyph name="rvocalicdeva" format="2">
  <advance width="711"/>
  <unicode hex="090B"/>
  <outline>
    <contour>
      <point x="409" y="514" type="line"/>
      <point x="723" y="514" type="line"/>
      <point x="723" y="622" type="line"/>
      <point x="0" y="622" type="line"/>
      <point x="0" y="514" type="line"/>
      <point x="288" y="514" type="line"/>
      <point x="288" y="0" type="line"/>
      <point x="409" y="0" type="line"/>
    </contour>
    <contour>
      <point x="16" y="404" type="curve"/>
      <point x="55" y="300" type="line"/>
      <point x="84" y="316"/>
      <point x="110" y="327"/>
      <point x="137" y="327" type="curve" smooth="yes"/>
      <point x="170" y="327"/>
      <point x="185" y="316"/>
      <point x="230" y="247" type="curve"/>
      <point x="306" y="270" type="line"/>
      <point x="304" y="302" type="line"/>
      <point x="244" y="401"/>
      <point x="214" y="438"/>
      <point x="138" y="438" type="curve" smooth="yes"/>
      <point x="96" y="438"/>
      <point x="58" y="425"/>
    </contour>
    <contour>
      <point x="112" y="47" type="line"/>
      <point x="341" y="235" type="line"/>
      <point x="265" y="297" type="line"/>
      <point x="41" y="137" type="line"/>
    </contour>
    <contour>
      <point x="387" y="327" type="curve"/>
      <point x="386" y="226" type="line"/>
      <point x="435" y="229"/>
      <point x="473" y="236"/>
      <point x="509" y="249" type="curve"/>
      <point x="519" y="224"/>
      <point x="537" y="185"/>
      <point x="551" y="156" type="curve"/>
      <point x="617" y="155" type="line"/>
      <point x="638" y="192" type="line"/>
      <point x="621" y="222"/>
      <point x="606" y="253"/>
      <point x="593" y="283" type="curve"/>
      <point x="612" y="296"/>
      <point x="625" y="321"/>
      <point x="625" y="354" type="curve" smooth="yes"/>
      <point x="625" y="398"/>
      <point x="601" y="441"/>
      <point x="545" y="441" type="curve" smooth="yes"/>
      <point x="509" y="441"/>
      <point x="475" y="416"/>
      <point x="475" y="365" type="curve" smooth="yes"/>
      <point x="475" y="350"/>
      <point x="478" y="334"/>
      <point x="482" y="322" type="curve"/>
      <point x="495" y="348" type="line"/>
      <point x="468" y="335"/>
      <point x="420" y="329"/>
    </contour>
    <contour>
      <point x="722" y="-24" type="curve"/>
      <point x="683" y="66" type="line"/>
      <point x="656" y="52"/>
      <point x="634" y="45"/>
      <point x="609" y="45" type="curve" smooth="yes"/>
      <point x="587" y="45"/>
      <point x="560" y="56"/>
      <point x="560" y="92" type="curve" smooth="yes"/>
      <point x="560" y="126"/>
      <point x="588" y="145"/>
      <point x="617" y="155" type="curve"/>
      <point x="558" y="243" type="line"/>
      <point x="503" y="222"/>
      <point x="450" y="178"/>
      <point x="450" y="95" type="curve" smooth="yes"/>
      <point x="450" y="5"/>
      <point x="508" y="-55"/>
      <point x="596" y="-55" type="curve" smooth="yes"/>
      <point x="648" y="-55"/>
      <point x="687" y="-41"/>
    </contour>
  </outline>
</glyph>
<glyph name="lvocalicdeva" format="2">
  <advance width="582"/>
  <unicode hex="090C"/>
  <outline>
    <contour>
      <point x="594" y="514" type="line"/>
      <point x="594" y="622" type="line"/>
      <point x="0" y="622" type="line"/>
      <point x="0" y="514" type="line"/>
      <point x="351" y="514" type="line"/>
      <point x="351" y="408" type="line"/>
      <point x="470" y="371" type="line"/>
      <point x="470" y="514" type="line"/>
    </contour>
    <contour>
      <point x="169" y="425" type="curve" smooth="yes"/>
      <point x="103" y="425"/>
      <point x="26" y="381"/>
      <point x="26" y="266" type="curve" smooth="yes"/>
      <point x="26" y="179"/>
      <point x="81" y="81"/>
      <point x="161" y="-16" type="curve"/>
      <point x="254" y="49" type="line"/>
      <point x="190" y="130"/>
      <point x="147" y="192"/>
      <point x="147" y="260" type="curve" smooth="yes"/>
      <point x="147" y="290"/>
      <point x="159" y="315"/>
      <point x="188" y="315" type="curve" smooth="yes"/>
      <point x="213" y="315"/>
      <point x="232" y="294"/>
      <point x="254" y="259" type="curve"/>
      <point x="313" y="356" type="line"/>
      <point x="264" y="402"/>
      <point x="229" y="425"/>
    </contour>
    <contour>
      <point x="331" y="30" type="curve" smooth="yes"/>
      <point x="331" y="-59"/>
      <point x="389" y="-119"/>
      <point x="477" y="-119" type="curve" smooth="yes"/>
      <point x="529" y="-119"/>
      <point x="568" y="-105"/>
      <point x="603" y="-89" type="curve"/>
      <point x="564" y="2" type="line"/>
      <point x="537" y="-13"/>
      <point x="515" y="-19"/>
      <point x="490" y="-19" type="curve" smooth="yes"/>
      <point x="468" y="-19"/>
      <point x="441" y="-8"/>
      <point x="441" y="28" type="curve" smooth="yes"/>
      <point x="441" y="62"/>
      <point x="469" y="85"/>
      <point x="515" y="95" type="curve"/>
      <point x="504" y="194" type="line"/>
      <point x="396" y="179"/>
      <point x="331" y="123"/>
    </contour>
    <contour>
      <point x="404" y="424" type="curve" smooth="yes"/>
      <point x="303" y="424"/>
      <point x="237" y="361"/>
      <point x="211" y="218" type="curve"/>
      <point x="320" y="189" type="line"/>
      <point x="338" y="300"/>
      <point x="370" y="318"/>
      <point x="394" y="318" type="curve" smooth="yes"/>
      <point x="415" y="318"/>
      <point x="432" y="304"/>
      <point x="432" y="260" type="curve" smooth="yes"/>
      <point x="432" y="211"/>
      <point x="418" y="172"/>
      <point x="403" y="133" type="curve"/>
      <point x="516" y="95" type="line"/>
      <point x="535" y="146"/>
      <point x="551" y="195"/>
      <point x="551" y="263" type="curve" smooth="yes"/>
      <point x="551" y="364"/>
      <point x="502" y="424"/>
    </contour>
  </outline>
</glyph>
<glyph name="edeva" format="2">
  <advance width="469"/>
  <unicode hex="090F"/>
  <outline>
    <contour>
      <point x="481" y="514" type="line"/>
      <point x="481" y="622" type="line"/>
      <point x="0" y="622" type="line"/>
      <point x="0" y="514" type="line"/>
      <point x="53" y="514" type="line"/>
      <point x="53" y="296" type="line" smooth="yes"/>
      <point x="53" y="232"/>
      <point x="58" y="201"/>
      <point x="76" y="167" type="curve" smooth="yes"/>
      <point x="92" y="138"/>
      <point x="119" y="114"/>
      <point x="170" y="80" type="curve" smooth="yes"/>
      <point x="257" y="23" type="line" smooth="yes"/>
      <point x="297" y="-3"/>
      <point x="306" y="-27"/>
      <point x="306" y="-55" type="curve" smooth="yes"/>
      <point x="306" y="-88"/>
      <point x="292" y="-113"/>
      <point x="275" y="-136" type="curve"/>
      <point x="374" y="-196" type="line"/>
      <point x="405" y="-151"/>
      <point x="429" y="-108"/>
      <point x="429" y="-45" type="curve" smooth="yes"/>
      <point x="429" y="10"/>
      <point x="409" y="59"/>
      <point x="334" y="109" type="curve" smooth="yes"/>
      <point x="232" y="177" type="line" smooth="yes"/>
      <point x="180" y="212"/>
      <point x="174" y="234"/>
      <point x="174" y="298" type="curve" smooth="yes"/>
      <point x="174" y="514" type="line"/>
      <point x="299" y="514" type="line"/>
      <point x="299" y="375" type="line" smooth="yes"/>
      <point x="299" y="348"/>
      <point x="296" y="334"/>
      <point x="285" y="323" type="curve" smooth="yes"/>
      <point x="277" y="314"/>
      <point x="262" y="308"/>
      <point x="245" y="304" type="curve"/>
      <point x="280" y="195" type="line"/>
      <point x="327" y="206"/>
      <point x="363" y="224"/>
      <point x="386" y="248" type="curve" smooth="yes"/>
      <point x="412" y="275"/>
      <point x="420" y="309"/>
      <point x="420" y="374" type="curve" smooth="yes"/>
      <point x="420" y="514" type="line"/>
    </contour>
  </outline>
</glyph>
<glyph name="kadeva" format="2">
  <advance width="633"/>
  <unicode hex="0915"/>
  <outline>
    <contour>
      <point x="645" y="514" type="line"/>
      <point x="645" y="622" type="line"/>
      <point x="0" y="622" type="line"/>
      <point x="0" y="514" type="line"/>
      <point x="282" y="514" type="line"/>
      <point x="282" y="205" type="line"/>
      <point x="306" y="291" type="line"/>
      <point x="275" y="239"/>
      <point x="249" y="201"/>
      <point x="203" y="201" type="curve" smooth="yes"/>
      <point x="173" y="201"/>
      <point x="149" y="215"/>
      <point x="149" y="271" type="curve" smooth="yes"/>
      <point x="149" y="317"/>
      <point x="170" y="342"/>
      <point x="207" y="342" type="curve" smooth="yes"/>
      <point x="224" y="342"/>
      <point x="238" y="340"/>
      <point x="250" y="336" type="curve"/>
      <point x="259" y="443" type="line"/>
      <point x="238" y="448"/>
      <point x="217" y="451"/>
      <point x="190" y="451" type="curve" smooth="yes"/>
      <point x="86" y="451"/>
      <point x="28" y="381"/>
      <point x="28" y="272" type="curve" smooth="yes"/>
      <point x="28" y="152"/>
      <point x="94" y="93"/>
      <point x="186" y="93" type="curve" smooth="yes"/>
      <point x="245" y="93"/>
      <point x="279" y="116"/>
      <point x="321" y="161" type="curve"/>
      <point x="282" y="190" type="line"/>
      <point x="282" y="0" type="line"/>
      <point x="403" y="0" type="line"/>
      <point x="403" y="258" type="line"/>
      <point x="395" y="226" type="line"/>
      <point x="412" y="267"/>
      <point x="433" y="292"/>
      <point x="454" y="292" type="curve" smooth="yes"/>
      <point x="475" y="292"/>
      <point x="486" y="273"/>
      <point x="486" y="232" type="curve" smooth="yes"/>
      <point x="486" y="181"/>
      <point x="469" y="129"/>
      <point x="446" y="84" type="curve"/>
      <point x="552" y="31" type="line"/>
      <point x="590" y="103"/>
      <point x="607" y="170"/>
      <point x="607" y="237" type="curve" smooth="yes"/>
      <point x="607" y="342"/>
      <point x="556" y="400"/>
      <point x="483" y="400" type="curve" smooth="yes"/>
      <point x="442" y="400"/>
      <point x="414" y="384"/>
      <point x="383" y="347" type="curve"/>
      <point x="403" y="325" type="line"/>
      <point x="403" y="514" type="line"/>
    </contour>
  </outline>
</glyph>
<glyph name="gadeva" format="2">
  <advance width="480"/>
  <unicode hex="0917"/>
  <outline>
    <contour>
      <point x="206" y="514" type="line"/>
      <point x="301" y="514" type="line"/>
      <point x="301" y="0" type="line"/>
      <point x="422" y="0" type="line"/>
      <point x="422" y="514" type="line"/>
      <point x="492" y="514" type="line"/>
      <point x="492" y="622" type="line"/>
      <point x="0" y="622" type="line"/>
      <point x="0" y="514" type="line"/>
      <point x="85" y="514" type="line"/>
      <point x="85" y="363" type="line"/>
      <point x="91" y="365" type="line" smooth="yes"/>
      <point x="40" y="365"/>
      <point x="25" y="338"/>
      <point x="25" y="301" type="curve" smooth="yes"/>
      <point x="25" y="235"/>
      <point x="88" y="150"/>
      <point x="150" y="150" type="curve" smooth="yes"/>
      <point x="189" y="150"/>
      <point x="206" y="175"/>
      <point x="206" y="222" type="curve" smooth="yes"/>
    </contour>
  </outline>
</glyph>
<glyph name="ngadeva" format="2">
  <advance width="539"/>
  <unicode hex="0919"/>
  <outline>
    <contour>
      <point x="272" y="200" type="curve" smooth="yes"/>
      <point x="315" y="200"/>
      <point x="331" y="182"/>
      <point x="331" y="154" type="curve" smooth="yes"/>
      <point x="331" y="120"/>
      <point x="310" y="106"/>
      <point x="267" y="106" type="curve" smooth="yes"/>
      <point x="200" y="106"/>
      <point x="153" y="143"/>
      <point x="94" y="207" type="curve"/>
      <point x="12" y="125" type="line"/>
      <point x="77" y="54"/>
      <point x="159" y="0"/>
      <point x="272" y="0" type="curve" smooth="yes"/>
      <point x="398" y="0"/>
      <point x="452" y="65"/>
      <point x="452" y="150" type="curve" smooth="yes"/>
      <point x="452" y="235"/>
      <point x="403" y="297"/>
      <point x="300" y="297" type="curve" smooth="yes"/>
      <point x="279" y="297"/>
      <point x="260" y="295"/>
      <point x="240" y="289" type="curve"/>
      <point x="230" y="303"/>
      <point x="224" y="316"/>
      <point x="224" y="333" type="curve" smooth="yes"/>
      <point x="224" y="340"/>
      <point x="226" y="347"/>
      <point x="230" y="351" type="curve"/>
      <point x="236" y="357"/>
      <point x="244" y="360"/>
      <point x="266" y="360" type="curve" smooth="yes"/>
      <point x="398" y="360" type="line"/>
      <point x="398" y="514" type="line"/>
      <point x="551" y="514" type="line"/>
      <point x="551" y="622" type="line"/>
      <point x="0" y="622" type="line"/>
      <point x="0" y="514" type="line"/>
      <point x="279" y="514" type="line"/>
      <point x="279" y="453" type="line"/>
      <point x="262" y="453" type="line" smooth="yes"/>
      <point x="192" y="453"/>
      <point x="161" y="439"/>
      <point x="140" y="419" type="curve" smooth="yes"/>
      <point x="118" y="399"/>
      <point x="107" y="371"/>
      <point x="107" y="338" type="curve" smooth="yes"/>
      <point x="107" y="275"/>
      <point x="146" y="225"/>
      <point x="192" y="185" type="curve"/>
      <point x="216" y="194"/>
      <point x="242" y="200"/>
    </contour>
    <contour>
      <point x="411" y="335" type="curve" smooth="yes"/>
      <point x="411" y="297"/>
      <point x="434" y="272"/>
      <point x="469" y="272" type="curve" smooth="yes"/>
      <point x="505" y="272"/>
      <point x="525" y="297"/>
      <point x="525" y="335" type="curve" smooth="yes"/>
      <point x="525" y="371"/>
      <point x="506" y="398"/>
      <point x="469" y="398" type="curve" smooth="yes"/>
      <point x="431" y="398"/>
      <point x="411" y="371"/>
    </contour>
  </outline>
</glyph>
<glyph name="cadeva" format="2">
  <advance width="533"/>
  <unicode hex="091A"/>
  <outline>
    <contour>
      <point x="545" y="514" type="line"/>
      <point x="545" y="622" type="line"/>
      <point x="0" y="622" type="line"/>
      <point x="0" y="514" type="line"/>
      <point x="354" y="514" type="line"/>
      <point x="354" y="209" type="line"/>
      <point x="384" y="285" type="line"/>
      <point x="360" y="239"/>
      <point x="327" y="201"/>
      <point x="277" y="201" type="curve" smooth="yes"/>
      <point x="239" y="201"/>
      <point x="222" y="223"/>
      <point x="222" y="261" type="curve" smooth="yes"/>
      <point x="222" y="305"/>
      <point x="243" y="330"/>
      <point x="292" y="330" type="curve" smooth="yes"/>
      <point x="301" y="330" type="line"/>
      <point x="309" y="434" type="line"/>
      <point x="296" y="436"/>
      <point x="279" y="437"/>
      <point x="265" y="437" type="curve" smooth="yes"/>
      <point x="30" y="437" type="line"/>
      <point x="30" y="329" type="line"/>
      <point x="133" y="333" type="line"/>
      <point x="113" y="312"/>
      <point x="101" y="281"/>
      <point x="101" y="244" type="curve" smooth="yes"/>
      <point x="101" y="151"/>
      <point x="160" y="93"/>
      <point x="258" y="93" type="curve" smooth="yes"/>
      <point x="319" y="93"/>
      <point x="359" y="111"/>
      <point x="395" y="149" type="curve"/>
      <point x="354" y="175" type="line"/>
      <point x="354" y="0" type="line"/>
      <point x="475" y="0" type="line"/>
      <point x="475" y="514" type="line"/>
    </contour>
  </outline>
</glyph>
<glyph name="chadeva" format="2">
  <advance width="580"/>
  <unicode hex="091B"/>
  <outline>
    <contour>
      <point x="463" y="514" type="line"/>
      <point x="592" y="514" type="line"/>
      <point x="592" y="622" type="line"/>
      <point x="0" y="622" type="line"/>
      <point x="0" y="514" type="line"/>
      <point x="346" y="514" type="line"/>
      <point x="346" y="418" type="line"/>
      <point x="463" y="418" type="line"/>
    </contour>
    <contour>
      <point x="249" y="107" type="curve" smooth="yes"/>
      <point x="207" y="107"/>
      <point x="181" y="122"/>
      <point x="181" y="158" type="curve" smooth="yes"/>
      <point x="181" y="186"/>
      <point x="196" y="200"/>
      <point x="222" y="200" type="curve" smooth="yes"/>
      <point x="229" y="200"/>
      <point x="238" y="200"/>
      <point x="243" y="199" type="curve"/>
      <point x="251" y="293" type="line"/>
      <point x="239" y="296"/>
      <point x="226" y="297"/>
      <point x="209" y="297" type="curve" smooth="yes"/>
      <point x="178" y="297"/>
      <point x="146" y="290"/>
      <point x="121" y="268" type="curve" smooth="yes"/>
      <point x="118" y="266"/>
      <point x="117" y="262"/>
      <point x="114" y="257" type="curve" smooth="yes"/>
      <point x="81" y="230"/>
      <point x="67" y="192"/>
      <point x="67" y="155" type="curve" smooth="yes"/>
      <point x="67" y="63"/>
      <point x="128" y="0"/>
      <point x="252" y="0" type="curve" smooth="yes"/>
      <point x="441" y="0"/>
      <point x="553" y="138"/>
      <point x="553" y="293" type="curve" smooth="yes"/>
      <point x="553" y="404"/>
      <point x="497" y="470"/>
      <point x="398" y="470" type="curve" smooth="yes"/>
      <point x="306" y="470"/>
      <point x="260" y="419"/>
      <point x="260" y="343" type="curve" smooth="yes"/>
      <point x="260" y="273"/>
      <point x="297" y="221"/>
      <point x="374" y="188" type="curve"/>
      <point x="415" y="276" type="line"/>
      <point x="378" y="291"/>
      <point x="363" y="310"/>
      <point x="363" y="342" type="curve" smooth="yes"/>
      <point x="363" y="366"/>
      <point x="377" y="380"/>
      <point x="394" y="380" type="curve" smooth="yes"/>
      <point x="424" y="380"/>
      <point x="435" y="348"/>
      <point x="435" y="299" type="curve" smooth="yes"/>
      <point x="435" y="190"/>
      <point x="358" y="107"/>
    </contour>
    <contour>
      <point x="175" y="194" type="curve"/>
      <point x="197" y="284" type="line"/>
      <point x="167" y="293"/>
      <point x="142" y="308"/>
      <point x="142" y="337" type="curve" smooth="yes"/>
      <point x="142" y="362"/>
      <point x="155" y="376"/>
      <point x="186" y="376" type="curve" smooth="yes"/>
      <point x="200" y="376"/>
      <point x="214" y="374"/>
      <point x="231" y="370" type="curve"/>
      <point x="238" y="464" type="line"/>
      <point x="219" y="469"/>
      <point x="193" y="472"/>
      <point x="172" y="472" type="curve" smooth="yes"/>
      <point x="80" y="472"/>
      <point x="26" y="425"/>
      <point x="26" y="346" type="curve" smooth="yes"/>
      <point x="26" y="265"/>
      <point x="90" y="214"/>
    </contour>
  </outline>
</glyph>
<glyph name="jadeva" format="2">
  <advance width="642"/>
  <unicode hex="091C"/>
  <outline>
    <contour>
      <point x="584" y="514" type="line"/>
      <point x="654" y="514" type="line"/>
      <point x="654" y="622" type="line"/>
      <point x="0" y="622" type="line"/>
      <point x="0" y="514" type="line"/>
      <point x="463" y="514" type="line"/>
      <point x="463" y="434" type="line"/>
      <point x="257" y="434" type="line"/>
      <point x="215" y="354" type="line"/>
      <point x="254" y="314"/>
      <point x="283" y="266"/>
      <point x="283" y="219" type="curve" smooth="yes"/>
      <point x="283" y="189"/>
      <point x="272" y="174"/>
      <point x="246" y="174" type="curve" smooth="yes"/>
      <point x="197" y="174"/>
      <point x="164" y="239"/>
      <point x="125" y="408" type="curve"/>
      <point x="15" y="380" type="line"/>
      <point x="71" y="135"/>
      <point x="142" y="64"/>
      <point x="259" y="64" type="curve" smooth="yes"/>
      <point x="351" y="64"/>
      <point x="403" y="117"/>
      <point x="403" y="201" type="curve" smooth="yes"/>
      <point x="403" y="274"/>
      <point x="369" y="328"/>
      <point x="306" y="374" type="curve"/>
      <point x="331" y="333" type="line"/>
      <point x="351" y="329"/>
      <point x="382" y="328"/>
      <point x="402" y="328" type="curve" smooth="yes"/>
      <point x="463" y="328" type="line"/>
      <point x="463" y="0" type="line"/>
      <point x="584" y="0" type="line"/>
    </contour>
  </outline>
</glyph>
<glyph name="jhadeva" format="2">
  <advance width="619"/>
  <unicode hex="091D"/>
  <outline>
    <contour>
      <point x="561" y="514" type="line"/>
      <point x="631" y="514" type="line"/>
      <point x="631" y="622" type="line"/>
      <point x="383" y="622" type="line"/>
      <point x="383" y="514" type="line"/>
      <point x="440" y="514" type="line"/>
      <point x="440" y="0" type="line"/>
      <point x="561" y="0" type="line"/>
    </contour>
    <contour>
      <point x="191" y="200" type="curve" smooth="yes"/>
      <point x="235" y="200"/>
      <point x="251" y="182"/>
      <point x="251" y="153" type="curve" smooth="yes"/>
      <point x="251" y="118"/>
      <point x="229" y="101"/>
      <point x="182" y="101" type="curve" smooth="yes"/>
      <point x="159" y="101"/>
      <point x="128" y="106"/>
      <point x="94" y="121" type="curve"/>
      <point x="115" y="22" type="line"/>
      <point x="177" y="-30"/>
      <point x="240" y="-80"/>
      <point x="307" y="-122" type="curve"/>
      <point x="358" y="-32" type="line"/>
      <point x="309" y="-14"/>
      <point x="232" y="21"/>
      <point x="197" y="42" type="curve"/>
      <point x="165" y="110"/>
      <point x="125" y="141"/>
      <point x="85" y="141" type="curve" smooth="yes"/>
      <point x="52" y="141"/>
      <point x="27" y="119"/>
      <point x="27" y="80" type="curve" smooth="yes"/>
      <point x="27" y="18"/>
      <point x="82" y="2"/>
      <point x="167" y="1" type="curve"/>
      <point x="183" y="1"/>
      <point x="189" y="3"/>
      <point x="193" y="3" type="curve" smooth="yes"/>
      <point x="323" y="3"/>
      <point x="371" y="65"/>
      <point x="371" y="153" type="curve" smooth="yes"/>
      <point x="371" y="231"/>
      <point x="325" y="297"/>
      <point x="220" y="297" type="curve" smooth="yes"/>
      <point x="200" y="297"/>
      <point x="180" y="295"/>
      <point x="160" y="289" type="curve"/>
      <point x="150" y="303"/>
      <point x="144" y="316"/>
      <point x="144" y="333" type="curve" smooth="yes"/>
      <point x="144" y="340"/>
      <point x="146" y="347"/>
      <point x="150" y="351" type="curve"/>
      <point x="156" y="357"/>
      <point x="164" y="360"/>
      <point x="186" y="360" type="curve" smooth="yes"/>
      <point x="334" y="360" type="line"/>
      <point x="334" y="514" type="line"/>
      <point x="411" y="514" type="line"/>
      <point x="411" y="622" type="line"/>
      <point x="0" y="622" type="line"/>
      <point x="0" y="514" type="line"/>
      <point x="215" y="514" type="line"/>
      <point x="215" y="453" type="line"/>
      <point x="183" y="453" type="line" smooth="yes"/>
      <point x="112" y="453"/>
      <point x="82" y="439"/>
      <point x="60" y="419" type="curve" smooth="yes"/>
      <point x="38" y="399"/>
      <point x="27" y="371"/>
      <point x="27" y="338" type="curve" smooth="yes"/>
      <point x="27" y="275"/>
      <point x="66" y="225"/>
      <point x="112" y="185" type="curve"/>
      <point x="136" y="194"/>
      <point x="163" y="200"/>
    </contour>
    <contour>
      <point x="365" y="276" type="curve" smooth="yes"/>
      <point x="324" y="276"/>
      <point x="297" y="282"/>
      <point x="277" y="289" type="curve"/>
      <point x="276" y="264" type="line"/>
      <point x="301" y="185" type="line"/>
      <point x="315" y="178"/>
      <point x="344" y="172"/>
      <point x="383" y="172" type="curve" smooth="yes"/>
      <point x="411" y="172"/>
      <point x="439" y="175"/>
      <point x="475" y="197" type="curve"/>
      <point x="477" y="308" type="line"/>
      <point x="445" y="285"/>
      <point x="409" y="276"/>
    </contour>
  </outline>
</glyph>
<glyph name="nyadeva" format="2">
  <advance width="650"/>
  <unicode hex="091E"/>
  <outline>
    <contour>
      <point x="592" y="514" type="line"/>
      <point x="662" y="514" type="line"/>
      <point x="662" y="622" type="line"/>
      <point x="0" y="622" type="line"/>
      <point x="0" y="514" type="line"/>
      <point x="471" y="514" type="line"/>
      <point x="471" y="0" type="line"/>
      <point x="592" y="0" type="line"/>
    </contour>
    <contour>
      <point x="538" y="249" type="curve"/>
      <point x="541" y="367" type="line"/>
      <point x="503" y="335"/>
      <point x="468" y="320"/>
      <point x="432" y="320" type="curve" smooth="yes"/>
      <point x="410" y="320"/>
      <point x="397" y="322"/>
      <point x="386" y="326" type="curve"/>
      <point x="395" y="227" type="line"/>
      <point x="405" y="224"/>
      <point x="416" y="223"/>
      <point x="429" y="223" type="curve" smooth="yes"/>
      <point x="470" y="223"/>
      <point x="502" y="231"/>
    </contour>
    <contour>
      <point x="159" y="421" type="curve"/>
      <point x="196" y="323" type="line"/>
      <point x="213" y="330"/>
      <point x="230" y="335"/>
      <point x="248" y="335" type="curve" smooth="yes"/>
      <point x="283" y="335"/>
      <point x="302" y="312"/>
      <point x="302" y="268" type="curve" smooth="yes"/>
      <point x="302" y="226"/>
      <point x="285" y="200"/>
      <point x="245" y="200" type="curve" smooth="yes"/>
      <point x="196" y="200"/>
      <point x="162" y="240"/>
      <point x="124" y="356" type="curve"/>
      <point x="17" y="322" type="line"/>
      <point x="73" y="158"/>
      <point x="149" y="91"/>
      <point x="252" y="91" type="curve" smooth="yes"/>
      <point x="344" y="91"/>
      <point x="419" y="133"/>
      <point x="419" y="268" type="curve" smooth="yes"/>
      <point x="419" y="376"/>
      <point x="369" y="444"/>
      <point x="264" y="444" type="curve" smooth="yes"/>
      <point x="227" y="444"/>
      <point x="191" y="434"/>
    </contour>
  </outline>
</glyph>
<glyph name="ttadeva" format="2">
  <advance width="412"/>
  <unicode hex="091F"/>
  <outline>
    <contour>
      <point x="424" y="514" type="line"/>
      <point x="424" y="622" type="line"/>
      <point x="0" y="622" type="line"/>
      <point x="0" y="514" type="line"/>
      <point x="202" y="514" type="line"/>
      <point x="202" y="419" type="line"/>
      <point x="252" y="428" type="line"/>
      <point x="239" y="428" type="line"/>
      <point x="130" y="428"/>
      <point x="28" y="358"/>
      <point x="28" y="217" type="curve" smooth="yes"/>
      <point x="28" y="78"/>
      <point x="114" y="0"/>
      <point x="238" y="0" type="curve" smooth="yes"/>
      <point x="297" y="0"/>
      <point x="350" y="12"/>
      <point x="402" y="39" type="curve"/>
      <point x="362" y="145" type="line"/>
      <point x="320" y="122"/>
      <point x="289" y="110"/>
      <point x="246" y="110" type="curve" smooth="yes"/>
      <point x="194" y="110"/>
      <point x="150" y="139"/>
      <point x="150" y="214" type="curve" smooth="yes"/>
      <point x="150" y="253"/>
      <point x="166" y="279"/>
      <point x="187" y="295" type="curve" smooth="yes"/>
      <point x="213" y="315"/>
      <point x="254" y="322"/>
      <point x="307" y="322" type="curve" smooth="yes"/>
      <point x="322" y="322" type="line"/>
      <point x="322" y="514" type="line"/>
    </contour>
  </outline>
</glyph>
<glyph name="tthadeva" format="2">
  <advance width="464"/>
  <unicode hex="0920"/>
  <outline>
    <contour>
      <point x="476" y="514" type="line"/>
      <point x="476" y="622" type="line"/>
      <point x="0" y="622" type="line"/>
      <point x="0" y="514" type="line"/>
      <point x="201" y="514" type="line"/>
      <point x="201" y="412" type="line"/>
      <point x="272" y="428" type="line"/>
      <point x="241" y="428" type="line"/>
      <point x="130" y="428"/>
      <point x="28" y="358"/>
      <point x="28" y="216" type="curve" smooth="yes"/>
      <point x="28" y="80"/>
      <point x="110" y="0"/>
      <point x="239" y="0" type="curve" smooth="yes"/>
      <point x="356" y="0"/>
      <point x="438" y="62"/>
      <point x="438" y="200" type="curve" smooth="yes"/>
      <point x="438" y="292"/>
      <point x="399" y="368"/>
      <point x="321" y="418" type="curve"/>
      <point x="321" y="514" type="line"/>
    </contour>
    <contour>
      <point x="234" y="109" type="curve" smooth="yes"/>
      <point x="191" y="109"/>
      <point x="149" y="136"/>
      <point x="149" y="209" type="curve" smooth="yes"/>
      <point x="149" y="255"/>
      <point x="165" y="281"/>
      <point x="187" y="297" type="curve" smooth="yes"/>
      <point x="209" y="314"/>
      <point x="237" y="322"/>
      <point x="276" y="323" type="curve"/>
      <point x="261" y="323" type="line"/>
      <point x="296" y="298"/>
      <point x="319" y="253"/>
      <point x="319" y="203" type="curve" smooth="yes"/>
      <point x="319" y="140"/>
      <point x="288" y="109"/>
    </contour>
  </outline>
</glyph>
<glyph name="ddadeva" format="2">
  <advance width="479"/>
  <unicode hex="0921"/>
  <outline>
    <contour>
      <point x="272" y="200" type="curve" smooth="yes"/>
      <point x="315" y="200"/>
      <point x="331" y="182"/>
      <point x="331" y="154" type="curve" smooth="yes"/>
      <point x="331" y="120"/>
      <point x="310" y="106"/>
      <point x="267" y="106" type="curve" smooth="yes"/>
      <point x="200" y="106"/>
      <point x="153" y="143"/>
      <point x="94" y="207" type="curve"/>
      <point x="12" y="125" type="line"/>
      <point x="77" y="54"/>
      <point x="159" y="0"/>
      <point x="272" y="0" type="curve" smooth="yes"/>
      <point x="398" y="0"/>
      <point x="452" y="65"/>
      <point x="452" y="150" type="curve" smooth="yes"/>
      <point x="452" y="235"/>
      <point x="403" y="297"/>
      <point x="300" y="297" type="curve" smooth="yes"/>
      <point x="279" y="297"/>
      <point x="260" y="295"/>
      <point x="240" y="289" type="curve"/>
      <point x="230" y="303"/>
      <point x="224" y="316"/>
      <point x="224" y="333" type="curve" smooth="yes"/>
      <point x="224" y="340"/>
      <point x="226" y="347"/>
      <point x="230" y="351" type="curve"/>
      <point x="236" y="357"/>
      <point x="244" y="360"/>
      <point x="266" y="360" type="curve" smooth="yes"/>
      <point x="413" y="360" type="line"/>
      <point x="413" y="514" type="line"/>
      <point x="491" y="514" type="line"/>
      <point x="491" y="622" type="line"/>
      <point x="0" y="622" type="line"/>
      <point x="0" y="514" type="line"/>
      <point x="294" y="514" type="line"/>
      <point x="294" y="453" type="line"/>
      <point x="262" y="453" type="line" smooth="yes"/>
      <point x="192" y="453"/>
      <point x="161" y="439"/>
      <point x="140" y="419" type="curve" smooth="yes"/>
      <point x="118" y="399"/>
      <point x="107" y="370"/>
      <point x="107" y="338" type="curve" smooth="yes"/>
      <point x="107" y="275"/>
      <point x="146" y="225"/>
      <point x="192" y="185" type="curve"/>
      <point x="216" y="194"/>
      <point x="242" y="200"/>
    </contour>
  </outline>
</glyph>
<glyph name="ddhadeva" format="2">
  <advance width="463"/>
  <unicode hex="0922"/>
  <outline>
    <contour>
      <point x="256" y="0" type="curve" smooth="yes"/>
      <point x="372" y="0"/>
      <point x="443" y="60"/>
      <point x="443" y="162" type="curve" smooth="yes"/>
      <point x="443" y="231"/>
      <point x="404" y="298"/>
      <point x="313" y="298" type="curve" smooth="yes"/>
      <point x="228" y="298"/>
      <point x="189" y="244"/>
      <point x="189" y="176" type="curve" smooth="yes"/>
      <point x="189" y="114"/>
      <point x="216" y="61"/>
      <point x="241" y="21" type="curve"/>
      <point x="327" y="47" type="line"/>
      <point x="300" y="80"/>
      <point x="278" y="110"/>
      <point x="278" y="157" type="curve" smooth="yes"/>
      <point x="278" y="181"/>
      <point x="288" y="204"/>
      <point x="313" y="204" type="curve" smooth="yes"/>
      <point x="333" y="204"/>
      <point x="343" y="189"/>
      <point x="343" y="163" type="curve" smooth="yes"/>
      <point x="343" y="122"/>
      <point x="314" y="101"/>
      <point x="277" y="101" type="curve" smooth="yes"/>
      <point x="262" y="101"/>
      <point x="247" y="99"/>
      <point x="240" y="100" type="curve"/>
      <point x="183" y="108"/>
      <point x="147" y="147"/>
      <point x="147" y="224" type="curve" smooth="yes"/>
      <point x="147" y="267"/>
      <point x="160" y="294"/>
      <point x="184" y="314" type="curve" smooth="yes"/>
      <point x="211" y="335"/>
      <point x="247" y="344"/>
      <point x="307" y="344" type="curve" smooth="yes"/>
      <point x="356" y="344" type="line"/>
      <point x="356" y="514" type="line"/>
      <point x="475" y="514" type="line"/>
      <point x="475" y="622" type="line"/>
      <point x="0" y="622" type="line"/>
      <point x="0" y="514" type="line"/>
      <point x="237" y="514" type="line"/>
      <point x="237" y="420" type="line"/>
      <point x="272" y="448" type="line"/>
      <point x="258" y="448" type="line"/>
      <point x="126" y="447"/>
      <point x="28" y="374"/>
      <point x="28" y="230" type="curve" smooth="yes"/>
      <point x="28" y="88"/>
      <point x="118" y="0"/>
    </contour>
  </outline>
</glyph>
<glyph name="nnadeva" format="2">
  <advance width="622"/>
  <unicode hex="0923"/>
  <outline>
    <contour>
      <point x="565" y="514" type="line"/>
      <point x="634" y="514" type="line"/>
      <point x="634" y="622" type="line"/>
      <point x="0" y="622" type="line"/>
      <point x="0" y="514" type="line"/>
      <point x="51" y="514" type="line"/>
      <point x="51" y="316" type="line" smooth="yes"/>
      <point x="51" y="249"/>
      <point x="63" y="210"/>
      <point x="90" y="178" type="curve" smooth="yes"/>
      <point x="116" y="146"/>
      <point x="158" y="128"/>
      <point x="213" y="128" type="curve" smooth="yes"/>
      <point x="274" y="128"/>
      <point x="314" y="144"/>
      <point x="340" y="175" type="curve" smooth="yes"/>
      <point x="363" y="204"/>
      <point x="373" y="244"/>
      <point x="373" y="311" type="curve" smooth="yes"/>
      <point x="373" y="514" type="line"/>
      <point x="443" y="514" type="line"/>
      <point x="443" y="0" type="line"/>
      <point x="565" y="0" type="line"/>
    </contour>
    <contour>
      <point x="211" y="235" type="curve" smooth="yes"/>
      <point x="196" y="235"/>
      <point x="187" y="240"/>
      <point x="181" y="250" type="curve" smooth="yes"/>
      <point x="174" y="262"/>
      <point x="172" y="278"/>
      <point x="172" y="307" type="curve" smooth="yes"/>
      <point x="172" y="514" type="line"/>
      <point x="252" y="514" type="line"/>
      <point x="252" y="308" type="line" smooth="yes"/>
      <point x="252" y="276"/>
      <point x="249" y="260"/>
      <point x="242" y="249" type="curve" smooth="yes"/>
      <point x="236" y="240"/>
      <point x="226" y="235"/>
    </contour>
  </outline>
</glyph>
<glyph name="tadeva" format="2">
  <advance width="476"/>
  <unicode hex="0924"/>
  <outline>
    <contour>
      <point x="419" y="514" type="line"/>
      <point x="488" y="514" type="line"/>
      <point x="488" y="622" type="line"/>
      <point x="0" y="622" type="line"/>
      <point x="0" y="514" type="line"/>
      <point x="298" y="514" type="line"/>
      <point x="298" y="403" type="line"/>
      <point x="241" y="403" type="line" smooth="yes"/>
      <point x="145" y="403"/>
      <point x="100" y="387"/>
      <point x="67" y="352" type="curve" smooth="yes"/>
      <point x="41" y="326"/>
      <point x="27" y="289"/>
      <point x="27" y="238" type="curve" smooth="yes"/>
      <point x="27" y="152"/>
      <point x="77" y="66"/>
      <point x="142" y="-18" type="curve"/>
      <point x="236" y="47" type="line"/>
      <point x="176" y="119"/>
      <point x="148" y="174"/>
      <point x="148" y="226" type="curve" smooth="yes"/>
      <point x="148" y="246"/>
      <point x="152" y="263"/>
      <point x="164" y="275" type="curve" smooth="yes"/>
      <point x="178" y="290"/>
      <point x="194" y="295"/>
      <point x="237" y="295" type="curve" smooth="yes"/>
      <point x="298" y="295" type="line"/>
      <point x="298" y="0" type="line"/>
      <point x="419" y="0" type="line"/>
    </contour>
  </outline>
</glyph>
<glyph name="thadeva" format="2">
  <advance width="564"/>
  <unicode hex="0925"/>
  <outline>
    <contour>
      <point x="386" y="209" type="line"/>
      <point x="386" y="0" type="line"/>
      <point x="507" y="0" type="line"/>
      <point x="507" y="514" type="line"/>
      <point x="577" y="514" type="line"/>
      <point x="577" y="622" type="line"/>
      <point x="349" y="622" type="line"/>
      <point x="349" y="514" type="line"/>
      <point x="386" y="514" type="line"/>
      <point x="386" y="236" type="line"/>
      <point x="397" y="292" type="line"/>
      <point x="370" y="247"/>
      <point x="337" y="219"/>
      <point x="287" y="219" type="curve" smooth="yes"/>
      <point x="242" y="219"/>
      <point x="215" y="253"/>
      <point x="206" y="306" type="curve"/>
      <point x="195" y="252" type="line"/>
      <point x="283" y="302"/>
      <point x="325" y="367"/>
      <point x="325" y="461" type="curve" smooth="yes"/>
      <point x="325" y="563"/>
      <point x="267" y="632"/>
      <point x="167" y="632" type="curve" smooth="yes"/>
      <point x="91" y="632"/>
      <point x="33" y="586"/>
      <point x="33" y="507" type="curve" smooth="yes"/>
      <point x="33" y="429"/>
      <point x="80" y="389"/>
      <point x="146" y="374" type="curve"/>
      <point x="175" y="461" type="line"/>
      <point x="144" y="466"/>
      <point x="131" y="481"/>
      <point x="131" y="507" type="curve" smooth="yes"/>
      <point x="131" y="526"/>
      <point x="143" y="541"/>
      <point x="162" y="541" type="curve" smooth="yes"/>
      <point x="193" y="541"/>
      <point x="206" y="508"/>
      <point x="206" y="469" type="curve" smooth="yes"/>
      <point x="206" y="399"/>
      <point x="168" y="347"/>
      <point x="84" y="321" type="curve"/>
      <point x="110" y="186"/>
      <point x="168" y="111"/>
      <point x="278" y="111" type="curve" smooth="yes"/>
      <point x="335" y="111"/>
      <point x="372" y="126"/>
      <point x="416" y="167" type="curve"/>
    </contour>
  </outline>
</glyph>
<glyph name="nadeva" format="2">
  <advance width="477"/>
  <unicode hex="0928"/>
  <outline>
    <contour>
      <point x="0" y="622" type="line"/>
      <point x="0" y="514" type="line"/>
      <point x="298" y="514" type="line"/>
      <point x="298" y="373" type="line"/>
      <point x="92" y="373" type="line" smooth="yes"/>
      <point x="38" y="373"/>
      <point x="24" y="347"/>
      <point x="24" y="308" type="curve" smooth="yes"/>
      <point x="24" y="244"/>
      <point x="86" y="157"/>
      <point x="147" y="157" type="curve" smooth="yes"/>
      <point x="186" y="157"/>
      <point x="203" y="181"/>
      <point x="203" y="227" type="curve" smooth="yes"/>
      <point x="203" y="265" type="line"/>
      <point x="298" y="265" type="line"/>
      <point x="298" y="0" type="line"/>
      <point x="419" y="0" type="line"/>
      <point x="419" y="514" type="line"/>
      <point x="489" y="514" type="line"/>
      <point x="489" y="622" type="line"/>
    </contour>
  </outline>
</glyph>
<glyph name="padeva" format="2">
  <advance width="473"/>
  <unicode hex="092A"/>
  <outline>
    <contour>
      <point x="415" y="514" type="line"/>
      <point x="485" y="514" type="line"/>
      <point x="485" y="622" type="line"/>
      <point x="0" y="622" type="line"/>
      <point x="0" y="514" type="line"/>
      <point x="49" y="514" type="line"/>
      <point x="49" y="330" type="line" smooth="yes"/>
      <point x="49" y="247"/>
      <point x="61" y="209"/>
      <point x="85" y="179" type="curve" smooth="yes"/>
      <point x="109" y="150"/>
      <point x="145" y="128"/>
      <point x="205" y="128" type="curve" smooth="yes"/>
      <point x="268" y="128"/>
      <point x="305" y="152"/>
      <point x="345" y="192" type="curve"/>
      <point x="294" y="221" type="line"/>
      <point x="294" y="0" type="line"/>
      <point x="415" y="0" type="line"/>
    </contour>
    <contour>
      <point x="294" y="514" type="line"/>
      <point x="294" y="233" type="line"/>
      <point x="321" y="308" type="line"/>
      <point x="296" y="265"/>
      <point x="262" y="235"/>
      <point x="220" y="235" type="curve" smooth="yes"/>
      <point x="203" y="235"/>
      <point x="192" y="240"/>
      <point x="184" y="250" type="curve" smooth="yes"/>
      <point x="173" y="265"/>
      <point x="170" y="282"/>
      <point x="170" y="330" type="curve" smooth="yes"/>
      <point x="170" y="514" type="line"/>
    </contour>
  </outline>
</glyph>
<glyph name="phadeva" format="2">
  <advance width="635"/>
  <unicode hex="092B"/>
  <outline>
    <contour>
      <point x="404" y="514" type="line"/>
      <point x="647" y="514" type="line"/>
      <point x="647" y="622" type="line"/>
      <point x="0" y="622" type="line"/>
      <point x="0" y="514" type="line"/>
      <point x="49" y="514" type="line"/>
      <point x="49" y="330" type="line" smooth="yes"/>
      <point x="49" y="247"/>
      <point x="60" y="209"/>
      <point x="84" y="179" type="curve" smooth="yes"/>
      <point x="108" y="150"/>
      <point x="144" y="128"/>
      <point x="199" y="128" type="curve" smooth="yes"/>
      <point x="245" y="128"/>
      <point x="282" y="144"/>
      <point x="320" y="182" type="curve"/>
      <point x="283" y="210" type="line"/>
      <point x="283" y="0" type="line"/>
      <point x="404" y="0" type="line"/>
      <point x="404" y="268" type="line"/>
      <point x="396" y="228" type="line"/>
      <point x="413" y="269"/>
      <point x="434" y="292"/>
      <point x="455" y="292" type="curve" smooth="yes"/>
      <point x="476" y="292"/>
      <point x="487" y="273"/>
      <point x="487" y="232" type="curve" smooth="yes"/>
      <point x="487" y="181"/>
      <point x="470" y="129"/>
      <point x="447" y="84" type="curve"/>
      <point x="553" y="31" type="line"/>
      <point x="591" y="103"/>
      <point x="608" y="170"/>
      <point x="608" y="237" type="curve" smooth="yes"/>
      <point x="608" y="342"/>
      <point x="557" y="400"/>
      <point x="484" y="400" type="curve" smooth="yes"/>
      <point x="445" y="400"/>
      <point x="416" y="384"/>
      <point x="388" y="354" type="curve"/>
      <point x="404" y="324" type="line"/>
    </contour>
    <contour>
      <point x="170" y="514" type="line"/>
      <point x="283" y="514" type="line"/>
      <point x="283" y="230" type="line"/>
      <point x="304" y="301" type="line"/>
      <point x="287" y="269"/>
      <point x="259" y="235"/>
      <point x="218" y="235" type="curve" smooth="yes"/>
      <point x="203" y="235"/>
      <point x="192" y="240"/>
      <point x="184" y="250" type="curve" smooth="yes"/>
      <point x="172" y="265"/>
      <point x="170" y="282"/>
      <point x="170" y="330" type="curve" smooth="yes"/>
    </contour>
  </outline>
</glyph>
<glyph name="badeva" format="2">
  <advance width="475"/>
  <unicode hex="092C"/>
  <outline>
    <contour>
      <point x="487" y="514" type="line"/>
      <point x="487" y="622" type="line"/>
      <point x="0" y="622" type="line"/>
      <point x="0" y="514" type="line"/>
      <point x="296" y="514" type="line"/>
      <point x="296" y="204" type="line"/>
      <point x="321" y="281" type="line"/>
      <point x="295" y="230"/>
      <point x="259" y="192"/>
      <point x="204" y="192" type="curve" smooth="yes"/>
      <point x="164" y="192"/>
      <point x="137" y="212"/>
      <point x="137" y="271" type="curve" smooth="yes"/>
      <point x="137" y="324"/>
      <point x="167" y="350"/>
      <point x="212" y="350" type="curve" smooth="yes"/>
      <point x="232" y="350"/>
      <point x="250" y="348"/>
      <point x="264" y="344" type="curve"/>
      <point x="273" y="443" type="line"/>
      <point x="251" y="448"/>
      <point x="225" y="451"/>
      <point x="198" y="451" type="curve" smooth="yes"/>
      <point x="86" y="451"/>
      <point x="27" y="383"/>
      <point x="27" y="273" type="curve" smooth="yes"/>
      <point x="27" y="158"/>
      <point x="89" y="93"/>
      <point x="196" y="93" type="curve" smooth="yes"/>
      <point x="256" y="93"/>
      <point x="301" y="114"/>
      <point x="341" y="155" type="curve"/>
      <point x="296" y="187" type="line"/>
      <point x="296" y="0" type="line"/>
      <point x="417" y="0" type="line"/>
      <point x="417" y="514" type="line"/>
    </contour>
    <contour>
      <point x="174" y="408" type="line"/>
      <point x="111" y="383" type="line"/>
      <point x="248" y="150" type="line"/>
      <point x="299" y="192" type="line"/>
    </contour>
  </outline>
</glyph>
<glyph name="bhadeva" format="2">
  <advance width="605"/>
  <unicode hex="092D"/>
  <outline>
    <contour>
      <point x="167" y="632" type="curve" smooth="yes"/>
      <point x="91" y="632"/>
      <point x="33" y="592"/>
      <point x="33" y="508" type="curve" smooth="yes"/>
      <point x="33" y="421"/>
      <point x="92" y="379"/>
      <point x="169" y="370" type="curve"/>
      <point x="176" y="461" type="line"/>
      <point x="144" y="465"/>
      <point x="131" y="478"/>
      <point x="131" y="505" type="curve" smooth="yes"/>
      <point x="131" y="527"/>
      <point x="143" y="541"/>
      <point x="162" y="541" type="curve" smooth="yes"/>
      <point x="174" y="541"/>
      <point x="184" y="537"/>
      <point x="190" y="526" type="curve" smooth="yes"/>
      <point x="199" y="512"/>
      <point x="201" y="492"/>
      <point x="201" y="452" type="curve" smooth="yes"/>
      <point x="201" y="327" type="line"/>
      <point x="202" y="328" type="line"/>
      <point x="155" y="328"/>
      <point x="141" y="302"/>
      <point x="141" y="270" type="curve" smooth="yes"/>
      <point x="141" y="211"/>
      <point x="200" y="125"/>
      <point x="263" y="125" type="curve" smooth="yes"/>
      <point x="301" y="125"/>
      <point x="320" y="147"/>
      <point x="320" y="197" type="curve" smooth="yes"/>
      <point x="320" y="220" type="line"/>
      <point x="426" y="220" type="line"/>
      <point x="426" y="0" type="line"/>
      <point x="547" y="0" type="line"/>
      <point x="547" y="514" type="line"/>
      <point x="617" y="514" type="line"/>
      <point x="617" y="622" type="line"/>
      <point x="367" y="622" type="line"/>
      <point x="367" y="514" type="line"/>
      <point x="426" y="514" type="line"/>
      <point x="426" y="328" type="line"/>
      <point x="320" y="328" type="line"/>
      <point x="320" y="449" type="line" smooth="yes"/>
      <point x="320" y="528"/>
      <point x="303" y="565"/>
      <point x="275" y="593" type="curve" smooth="yes"/>
      <point x="248" y="619"/>
      <point x="213" y="632"/>
    </contour>
  </outline>
</glyph>
<glyph name="yadeva" format="2">
  <advance width="490"/>
  <unicode hex="092F"/>
  <outline>
    <contour>
      <point x="502" y="622" type="line"/>
      <point x="0" y="622" type="line"/>
      <point x="0" y="514" type="line"/>
      <point x="147" y="514" type="line"/>
      <point x="72" y="542" type="line"/>
      <point x="86" y="522"/>
      <point x="102" y="483"/>
      <point x="102" y="449" type="curve" smooth="yes"/>
      <point x="102" y="397"/>
      <point x="78" y="368"/>
      <point x="21" y="351" type="curve"/>
      <point x="43" y="200"/>
      <point x="101" y="111"/>
      <point x="211" y="111" type="curve" smooth="yes"/>
      <point x="275" y="111"/>
      <point x="310" y="129"/>
      <point x="354" y="171" type="curve"/>
      <point x="311" y="212" type="line"/>
      <point x="311" y="0" type="line"/>
      <point x="432" y="0" type="line"/>
      <point x="432" y="514" type="line"/>
      <point x="502" y="514" type="line"/>
    </contour>
    <contour>
      <point x="150" y="514" type="line"/>
      <point x="311" y="514" type="line"/>
      <point x="311" y="233" type="line"/>
      <point x="332" y="298" type="line"/>
      <point x="306" y="250"/>
      <point x="275" y="219"/>
      <point x="223" y="219" type="curve" smooth="yes"/>
      <point x="186" y="219"/>
      <point x="162" y="247"/>
      <point x="149" y="297" type="curve"/>
      <point x="193" y="322"/>
      <point x="223" y="362"/>
      <point x="223" y="430" type="curve" smooth="yes"/>
      <point x="223" y="477"/>
      <point x="206" y="518"/>
      <point x="188" y="553" type="curve"/>
    </contour>
  </outline>
</glyph>
<glyph name="radeva" format="2">
  <advance width="342"/>
  <unicode hex="0930"/>
  <outline>
    <contour>
      <point x="275" y="514" type="line"/>
      <point x="354" y="514" type="line"/>
      <point x="354" y="622" type="line"/>
      <point x="0" y="622" type="line"/>
      <point x="0" y="514" type="line"/>
      <point x="201" y="514" type="line"/>
      <point x="159" y="544" type="line"/>
      <point x="172" y="523"/>
      <point x="179" y="487"/>
      <point x="179" y="449" type="curve" smooth="yes"/>
      <point x="179" y="395"/>
      <point x="163" y="359"/>
      <point x="130" y="336" type="curve"/>
      <point x="199" y="299" type="line"/>
      <point x="169" y="363"/>
      <point x="135" y="396"/>
      <point x="92" y="396" type="curve" smooth="yes"/>
      <point x="43" y="396"/>
      <point x="23" y="363"/>
      <point x="23" y="326" type="curve" smooth="yes"/>
      <point x="23" y="296"/>
      <point x="35" y="265"/>
      <point x="59" y="224" type="curve" smooth="yes"/>
      <point x="94" y="164"/>
      <point x="150" y="82"/>
      <point x="231" y="-16" type="curve"/>
      <point x="327" y="54" type="line"/>
      <point x="266" y="120"/>
      <point x="205" y="198"/>
      <point x="170" y="252" type="curve"/>
      <point x="173" y="227" type="line"/>
      <point x="250" y="264"/>
      <point x="300" y="326"/>
      <point x="300" y="431" type="curve" smooth="yes"/>
      <point x="300" y="483"/>
      <point x="291" y="517"/>
      <point x="282" y="542" type="curve"/>
    </contour>
  </outline>
</glyph>
<glyph name="ladeva" format="2">
  <advance width="566"/>
  <unicode hex="0932"/>
  <outline>
    <contour>
      <point x="0" y="514" type="line"/>
      <point x="387" y="514" type="line"/>
      <point x="387" y="411" type="line"/>
      <point x="454" y="391" type="line"/>
      <point x="452" y="414" type="line"/>
      <point x="441" y="419"/>
      <point x="420" y="424"/>
      <point x="399" y="424" type="curve" smooth="yes"/>
      <point x="304" y="424"/>
      <point x="236" y="361"/>
      <point x="211" y="218" type="curve"/>
      <point x="319" y="189" type="line"/>
      <point x="337" y="300"/>
      <point x="370" y="322"/>
      <point x="403" y="322" type="curve" smooth="yes"/>
      <point x="422" y="322"/>
      <point x="433" y="318"/>
      <point x="447" y="309" type="curve"/>
      <point x="387" y="358" type="line"/>
      <point x="387" y="0" type="line"/>
      <point x="508" y="0" type="line"/>
      <point x="508" y="514" type="line"/>
      <point x="578" y="514" type="line"/>
      <point x="578" y="622" type="line"/>
      <point x="0" y="622" type="line"/>
    </contour>
    <contour>
      <point x="254" y="259" type="curve"/>
      <point x="313" y="356" type="line"/>
      <point x="264" y="402"/>
      <point x="229" y="425"/>
      <point x="169" y="425" type="curve" smooth="yes"/>
      <point x="103" y="425"/>
      <point x="26" y="381"/>
      <point x="26" y="266" type="curve" smooth="yes"/>
      <point x="26" y="179"/>
      <point x="81" y="81"/>
      <point x="161" y="-16" type="curve"/>
      <point x="254" y="49" type="line"/>
      <point x="190" y="130"/>
      <point x="147" y="192"/>
      <point x="147" y="260" type="curve" smooth="yes"/>
      <point x="147" y="290"/>
      <point x="159" y="315"/>
      <point x="188" y="315" type="curve" smooth="yes"/>
      <point x="213" y="315"/>
      <point x="232" y="294"/>
    </contour>
  </outline>
</glyph>
<glyph name="lladeva" format="2">
  <advance width="616"/>
  <unicode hex="0933"/>
  <outline>
    <contour>
      <point x="0" y="514" type="line"/>
      <point x="374" y="514" type="line"/>
      <point x="374" y="400" type="line"/>
      <point x="491" y="400" type="line"/>
      <point x="491" y="514" type="line"/>
      <point x="628" y="514" type="line"/>
      <point x="628" y="622" type="line"/>
      <point x="0" y="622" type="line"/>
    </contour>
    <contour>
      <point x="300" y="257" type="curve"/>
      <point x="347" y="352" type="line"/>
      <point x="291" y="416"/>
      <point x="251" y="443"/>
      <point x="188" y="443" type="curve" smooth="yes"/>
      <point x="90" y="443"/>
      <point x="29" y="370"/>
      <point x="29" y="244" type="curve" smooth="yes"/>
      <point x="29" y="102"/>
      <point x="100" y="40"/>
      <point x="191" y="40" type="curve" smooth="yes"/>
      <point x="253" y="40"/>
      <point x="316" y="63"/>
      <point x="353" y="190" type="curve" smooth="yes"/>
      <point x="376" y="270" type="line" smooth="yes"/>
      <point x="389" y="314"/>
      <point x="399" y="335"/>
      <point x="426" y="335" type="curve" smooth="yes"/>
      <point x="449" y="335"/>
      <point x="467" y="315"/>
      <point x="467" y="253" type="curve" smooth="yes"/>
      <point x="467" y="177"/>
      <point x="441" y="149"/>
      <point x="405" y="149" type="curve" smooth="yes"/>
      <point x="373" y="149"/>
      <point x="351" y="174"/>
      <point x="316" y="226" type="curve"/>
      <point x="269" y="132" type="line"/>
      <point x="320" y="70"/>
      <point x="365" y="40"/>
      <point x="428" y="40" type="curve" smooth="yes"/>
      <point x="526" y="40"/>
      <point x="587" y="113"/>
      <point x="587" y="238" type="curve" smooth="yes"/>
      <point x="587" y="374"/>
      <point x="525" y="442"/>
      <point x="427" y="442" type="curve" smooth="yes"/>
      <point x="364" y="442"/>
      <point x="298" y="421"/>
      <point x="263" y="293" type="curve" smooth="yes"/>
      <point x="241" y="213" type="line" smooth="yes"/>
      <point x="229" y="170"/>
      <point x="217" y="149"/>
      <point x="191" y="149" type="curve" smooth="yes"/>
      <point x="167" y="149"/>
      <point x="149" y="168"/>
      <point x="149" y="231" type="curve" smooth="yes"/>
      <point x="149" y="306"/>
      <point x="175" y="335"/>
      <point x="211" y="335" type="curve" smooth="yes"/>
      <point x="243" y="335"/>
      <point x="265" y="310"/>
    </contour>
  </outline>
</glyph>
<glyph name="vadeva" format="2">
  <advance width="464"/>
  <unicode hex="0935"/>
  <outline>
    <contour>
      <point x="476" y="514" type="line"/>
      <point x="476" y="622" type="line"/>
      <point x="0" y="622" type="line"/>
      <point x="0" y="514" type="line"/>
      <point x="285" y="514" type="line"/>
      <point x="285" y="202" type="line"/>
      <point x="310" y="285" type="line"/>
      <point x="285" y="239"/>
      <point x="251" y="201"/>
      <point x="201" y="201" type="curve" smooth="yes"/>
      <point x="172" y="201"/>
      <point x="148" y="216"/>
      <point x="148" y="270" type="curve" smooth="yes"/>
      <point x="148" y="318"/>
      <point x="170" y="342"/>
      <point x="208" y="342" type="curve" smooth="yes"/>
      <point x="226" y="342"/>
      <point x="239" y="340"/>
      <point x="252" y="336" type="curve"/>
      <point x="262" y="443" type="line"/>
      <point x="240" y="448"/>
      <point x="218" y="451"/>
      <point x="191" y="451" type="curve" smooth="yes"/>
      <point x="86" y="451"/>
      <point x="27" y="383"/>
      <point x="27" y="272" type="curve" smooth="yes"/>
      <point x="27" y="155"/>
      <point x="89" y="93"/>
      <point x="192" y="93" type="curve" smooth="yes"/>
      <point x="251" y="93"/>
      <point x="290" y="114"/>
      <point x="330" y="155" type="curve"/>
      <point x="285" y="186" type="line"/>
      <point x="285" y="0" type="line"/>
      <point x="406" y="0" type="line"/>
      <point x="406" y="514" type="line"/>
    </contour>
  </outline>
</glyph>
<glyph name="shadeva" format="2">
  <advance width="588"/>
  <unicode hex="0936"/>
  <outline>
    <contour>
      <point x="530" y="514" type="line"/>
      <point x="600" y="514" type="line"/>
      <point x="600" y="622" type="line"/>
      <point x="359" y="622" type="line"/>
      <point x="359" y="514" type="line"/>
      <point x="409" y="514" type="line"/>
      <point x="409" y="0" type="line"/>
      <point x="530" y="0" type="line"/>
    </contour>
    <contour>
      <point x="117" y="159" type="curve" smooth="yes"/>
      <point x="255" y="159"/>
      <point x="350" y="272"/>
      <point x="350" y="432" type="curve" smooth="yes"/>
      <point x="350" y="560"/>
      <point x="278" y="632"/>
      <point x="181" y="632" type="curve" smooth="yes"/>
      <point x="88" y="632"/>
      <point x="38" y="575"/>
      <point x="38" y="500" type="curve" smooth="yes"/>
      <point x="38" y="419"/>
      <point x="86" y="368"/>
      <point x="182" y="353" type="curve"/>
      <point x="207" y="443" type="line"/>
      <point x="163" y="449"/>
      <point x="144" y="470"/>
      <point x="144" y="501" type="curve" smooth="yes"/>
      <point x="144" y="525"/>
      <point x="159" y="539"/>
      <point x="179" y="539" type="curve" smooth="yes"/>
      <point x="207" y="539"/>
      <point x="229" y="507"/>
      <point x="229" y="435" type="curve" smooth="yes"/>
      <point x="229" y="342"/>
      <point x="190" y="274"/>
      <point x="106" y="258" type="curve"/>
      <point x="107" y="221" type="line"/>
      <point x="157" y="168"/>
      <point x="212" y="87"/>
      <point x="266" y="-5" type="curve"/>
      <point x="363" y="55" type="line"/>
      <point x="319" y="124"/>
      <point x="262" y="197"/>
      <point x="216" y="245" type="curve"/>
      <point x="207" y="257" type="line"/>
      <point x="168" y="300"/>
      <point x="133" y="315"/>
      <point x="96" y="315" type="curve" smooth="yes"/>
      <point x="51" y="315"/>
      <point x="22" y="288"/>
      <point x="22" y="245" type="curve" smooth="yes"/>
      <point x="22" y="186"/>
      <point x="65" y="159"/>
    </contour>
  </outline>
</glyph>
<glyph name="ssadeva" format="2">
  <advance width="485"/>
  <unicode hex="0937"/>
  <outline>
    <contour>
      <point x="497" y="622" type="line"/>
      <point x="0" y="622" type="line"/>
      <point x="0" y="514" type="line"/>
      <point x="49" y="514" type="line"/>
      <point x="49" y="330" type="line" smooth="yes"/>
      <point x="49" y="247"/>
      <point x="61" y="209"/>
      <point x="85" y="179" type="curve" smooth="yes"/>
      <point x="109" y="150"/>
      <point x="145" y="128"/>
      <point x="207" y="128" type="curve" smooth="yes"/>
      <point x="272" y="128"/>
      <point x="307" y="150"/>
      <point x="349" y="188" type="curve"/>
      <point x="306" y="221" type="line"/>
      <point x="306" y="0" type="line"/>
      <point x="427" y="0" type="line"/>
      <point x="427" y="514" type="line"/>
      <point x="497" y="514" type="line"/>
    </contour>
    <contour>
      <point x="306" y="514" type="line"/>
      <point x="306" y="278" type="line"/>
      <point x="293" y="266" type="line"/>
      <point x="271" y="245"/>
      <point x="249" y="235"/>
      <point x="221" y="235" type="curve" smooth="yes"/>
      <point x="199" y="235"/>
      <point x="188" y="242"/>
      <point x="180" y="253" type="curve" smooth="yes"/>
      <point x="171" y="267"/>
      <point x="167" y="285"/>
      <point x="167" y="332" type="curve" smooth="yes"/>
      <point x="167" y="514" type="line"/>
    </contour>
    <contour>
      <point x="138" y="501" type="line"/>
      <point x="272" y="239" type="line"/>
      <point x="322" y="284" type="line"/>
      <point x="188" y="549" type="line"/>
    </contour>
  </outline>
</glyph>
<glyph name="hadeva" format="2">
  <advance width="433"/>
  <unicode hex="0939"/>
  <outline>
    <contour>
      <point x="99" y="194" type="curve"/>
      <point x="205" y="241" type="line"/>
      <point x="178" y="264"/>
      <point x="159" y="289"/>
      <point x="159" y="317" type="curve" smooth="yes"/>
      <point x="159" y="326"/>
      <point x="161" y="333"/>
      <point x="166" y="338" type="curve" smooth="yes"/>
      <point x="173" y="346"/>
      <point x="183" y="349"/>
      <point x="206" y="349" type="curve" smooth="yes"/>
      <point x="375" y="349" type="line"/>
      <point x="375" y="514" type="line"/>
      <point x="445" y="514" type="line"/>
      <point x="445" y="622" type="line"/>
      <point x="0" y="622" type="line"/>
      <point x="0" y="514" type="line"/>
      <point x="255" y="514" type="line"/>
      <point x="255" y="453" type="line"/>
      <point x="216" y="453" type="line" smooth="yes"/>
      <point x="135" y="453"/>
      <point x="103" y="441"/>
      <point x="76" y="416" type="curve" smooth="yes"/>
      <point x="54" y="396"/>
      <point x="40" y="368"/>
      <point x="40" y="331" type="curve" smooth="yes"/>
      <point x="40" y="266"/>
      <point x="74" y="223"/>
    </contour>
    <contour>
      <point x="240" y="72" type="curve"/>
      <point x="290" y="-25" type="line"/>
      <point x="363" y="8"/>
      <point x="405" y="49"/>
      <point x="405" y="129" type="curve" smooth="yes"/>
      <point x="405" y="209"/>
      <point x="356" y="282"/>
      <point x="228" y="282" type="curve" smooth="yes"/>
      <point x="129" y="282"/>
      <point x="32" y="222"/>
      <point x="32" y="104" type="curve" smooth="yes"/>
      <point x="32" y="14"/>
      <point x="72" y="-47"/>
      <point x="154" y="-145" type="curve"/>
      <point x="247" y="-80" type="line"/>
      <point x="179" y="-5"/>
      <point x="153" y="37"/>
      <point x="153" y="98" type="curve" smooth="yes"/>
      <point x="153" y="148"/>
      <point x="185" y="178"/>
      <point x="230" y="178" type="curve" smooth="yes"/>
      <point x="268" y="178"/>
      <point x="286" y="159"/>
      <point x="286" y="128" type="curve" smooth="yes"/>
      <point x="286" y="99"/>
      <point x="266" y="83"/>
    </contour>
  </outline>
</glyph>
<glyph name="oevowelsigndeva" format="2">
  <unicode hex="093A"/>
  <outline>
    <contour>
      <point x="-179" y="616" type="line"/>
      <point x="-58" y="616" type="line"/>
      <point x="-58" y="805" type="line"/>
      <point x="-179" y="805" type="line"/>
    </contour>
  </outline>
</glyph>
<glyph name="nuktadeva" format="2">
  <unicode hex="093C"/>
  <outline>
    <contour>
      <point x="-267" y="-134" type="curve" smooth="yes"/>
      <point x="-267" y="-175"/>
      <point x="-244" y="-203"/>
      <point x="-203" y="-203" type="curve" smooth="yes"/>
      <point x="-163" y="-203"/>
      <point x="-140" y="-175"/>
      <point x="-140" y="-134" type="curve" smooth="yes"/>
      <point x="-140" y="-94"/>
      <point x="-163" y="-65"/>
      <point x="-203" y="-65" type="curve" smooth="yes"/>
      <point x="-244" y="-65"/>
      <point x="-267" y="-94"/>
    </contour>
  </outline>
</glyph>
<glyph name="avagrahadeva" format="2">
  <advance width="415"/>
  <unicode hex="093D"/>
  <outline>
    <contour>
      <point x="390" y="183" type="curve" smooth="yes"/>
      <point x="390" y="248"/>
      <point x="367" y="298"/>
      <point x="299" y="384" type="curve" smooth="yes"/>
      <point x="251" y="446"/>
      <point x="239" y="463"/>
      <point x="239" y="483" type="curve" smooth="yes"/>
      <point x="239" y="492"/>
      <point x="242" y="499"/>
      <point x="249" y="505" type="curve" smooth="yes"/>
      <point x="257" y="512"/>
      <point x="267" y="514"/>
      <point x="290" y="514" type="curve" smooth="yes"/>
      <point x="373" y="514" type="line"/>
      <point x="373" y="622" type="line"/>
      <point x="303" y="622" type="line" smooth="yes"/>
      <point x="227" y="622"/>
      <point x="192" y="610"/>
      <point x="163" y="588" type="curve" smooth="yes"/>
      <point x="133" y="564"/>
      <point x="117" y="531"/>
      <point x="117" y="487" type="curve" smooth="yes"/>
      <point x="117" y="426"/>
      <point x="153" y="373"/>
      <point x="203" y="311" type="curve" smooth="yes"/>
      <point x="255" y="246"/>
      <point x="268" y="218"/>
      <point x="268" y="186" type="curve" smooth="yes"/>
      <point x="268" y="160"/>
      <point x="254" y="143"/>
      <point x="229" y="143" type="curve" smooth="yes"/>
      <point x="188" y="143"/>
      <point x="158" y="182"/>
      <point x="124" y="283" type="curve"/>
      <point x="18" y="251" type="line"/>
      <point x="72" y="78"/>
      <point x="148" y="33"/>
      <point x="237" y="33" type="curve" smooth="yes"/>
      <point x="335" y="33"/>
      <point x="390" y="88"/>
    </contour>
  </outline>
</glyph>
<glyph name="aavowelsigndeva" format="2">
  <advance width="237"/>
  <unicode hex="093E"/>
  <outline>
    <contour>
      <point x="179" y="514" type="line"/>
      <point x="249" y="514" type="line"/>
      <point x="249" y="622" type="line"/>
      <point x="0" y="622" type="line"/>
      <point x="0" y="514" type="line"/>
      <point x="58" y="514" type="line"/>
      <point x="58" y="0" type="line"/>
      <point x="179" y="0" type="line"/>
    </contour>
  </outline>
</glyph>
<glyph name="iivowelsigndeva" format="2">
  <advance width="237"/>
  <unicode hex="0940"/>
  <outline>
    <contour>
      <point x="-179" y="615" type="curve"/>
      <point x="-64" y="615" type="line"/>
      <point x="-74" y="644"/>
      <point x="-83" y="676"/>
      <point x="-83" y="716" type="curve" smooth="yes"/>
      <point x="-83" y="763"/>
      <point x="-65" y="788"/>
      <point x="-33" y="788" type="curve" smooth="yes"/>
      <point x="11" y="788"/>
      <point x="36" y="725"/>
      <point x="60" y="622" type="curve"/>
      <point x="0" y="622" type="line"/>
      <point x="0" y="514" type="line"/>
      <point x="58" y="514" type="line"/>
      <point x="58" y="0" type="line"/>
      <point x="179" y="0" type="line"/>
      <point x="179" y="514" type="line"/>
      <point x="249" y="514" type="line"/>
      <point x="249" y="622" type="line"/>
      <point x="168" y="622" type="line"/>
      <point x="137" y="791"/>
      <point x="84" y="896"/>
      <point x="-45" y="896" type="curve" smooth="yes"/>
      <point x="-142" y="896"/>
      <point x="-203" y="833"/>
      <point x="-203" y="739" type="curve" smooth="yes"/>
      <point x="-203" y="697"/>
      <point x="-193" y="653"/>
    </contour>
  </outline>
</glyph>
<glyph name="uvowelsigndeva" format="2">
  <unicode hex="0941"/>
  <outline>
    <contour>
      <point x="-227" y="7" type="curve"/>
      <point x="-192" y="-82" type="line"/>
      <point x="-177" y="-75"/>
      <point x="-161" y="-71"/>
      <point x="-146" y="-71" type="curve" smooth="yes"/>
      <point x="-119" y="-71"/>
      <point x="-101" y="-86"/>
      <point x="-101" y="-120" type="curve" smooth="yes"/>
      <point x="-101" y="-150"/>
      <point x="-120" y="-168"/>
      <point x="-155" y="-168" type="curve" smooth="yes"/>
      <point x="-207" y="-168"/>
      <point x="-243" y="-141"/>
      <point x="-297" y="-52" type="curve"/>
      <point x="-388" y="-100" type="line"/>
      <point x="-326" y="-201"/>
      <point x="-257" y="-268"/>
      <point x="-148" y="-268" type="curve" smooth="yes"/>
      <point x="-48" y="-268"/>
      <point x="5" y="-208"/>
      <point x="5" y="-122" type="curve" smooth="yes"/>
      <point x="5" y="-34"/>
      <point x="-46" y="28"/>
      <point x="-133" y="28" type="curve" smooth="yes"/>
      <point x="-166" y="28"/>
      <point x="-197" y="21"/>
    </contour>
  </outline>
</glyph>
<glyph name="uuvowelsigndeva" format="2">
  <unicode hex="0942"/>
  <outline>
    <contour>
      <point x="-56" y="-248" type="curve"/>
      <point x="-93" y="-158" type="line"/>
      <point x="-107" y="-164"/>
      <point x="-122" y="-168"/>
      <point x="-138" y="-168" type="curve" smooth="yes"/>
      <point x="-165" y="-168"/>
      <point x="-183" y="-155"/>
      <point x="-183" y="-121" type="curve" smooth="yes"/>
      <point x="-183" y="-90"/>
      <point x="-163" y="-72"/>
      <point x="-131" y="-72" type="curve" smooth="yes"/>
      <point x="-73" y="-72"/>
      <point x="-41" y="-119"/>
      <point x="19" y="-231" type="curve"/>
      <point x="111" y="-188" type="line"/>
      <point x="45" y="-60"/>
      <point x="-22" y="28"/>
      <point x="-138" y="28" type="curve" smooth="yes"/>
      <point x="-234" y="28"/>
      <point x="-289" y="-33"/>
      <point x="-289" y="-117" type="curve" smooth="yes"/>
      <point x="-289" y="-203"/>
      <point x="-237" y="-268"/>
      <point x="-151" y="-268" type="curve" smooth="yes"/>
      <point x="-116" y="-268"/>
      <point x="-85" y="-262"/>
    </contour>
  </outline>
</glyph>
<glyph name="rvocalicvowelsigndeva" format="2">
  <unicode hex="0943"/>
  <outline>
    <contour>
      <point x="35" y="-238" type="curve"/>
      <point x="-4" y="-147" type="line"/>
      <point x="-32" y="-162"/>
      <point x="-53" y="-168"/>
      <point x="-78" y="-168" type="curve" smooth="yes"/>
      <point x="-100" y="-168"/>
      <point x="-127" y="-157"/>
      <point x="-127" y="-121" type="curve" smooth="yes"/>
      <point x="-127" y="-87"/>
      <point x="-99" y="-64"/>
      <point x="-50" y="-53" type="curve"/>
      <point x="-64" y="46" type="line"/>
      <point x="-173" y="29"/>
      <point x="-237" y="-25"/>
      <point x="-237" y="-119" type="curve" smooth="yes"/>
      <point x="-237" y="-208"/>
      <point x="-180" y="-268"/>
      <point x="-91" y="-268" type="curve" smooth="yes"/>
      <point x="-38" y="-268"/>
      <point x="0" y="-255"/>
    </contour>
  </outline>
</glyph>
<glyph name="rrvocalicvowelsigndeva" format="2">
  <unicode hex="0944"/>
  <outline>
    <contour>
      <point x="35" y="-207" type="curve"/>
      <point x="-3" y="-120" type="line"/>
      <point x="-31" y="-136"/>
      <point x="-53" y="-143"/>
      <point x="-80" y="-143" type="curve" smooth="yes"/>
      <point x="-107" y="-143"/>
      <point x="-126" y="-133"/>
      <point x="-126" y="-105" type="curve" smooth="yes"/>
      <point x="-126" y="-78"/>
      <point x="-106" y="-59"/>
      <point x="-50" y="-47" type="curve"/>
      <point x="-64" y="46" type="line"/>
      <point x="-176" y="30"/>
      <point x="-237" y="-23"/>
      <point x="-237" y="-104" type="curve" smooth="yes"/>
      <point x="-237" y="-188"/>
      <point x="-182" y="-238"/>
      <point x="-90" y="-238" type="curve" smooth="yes"/>
      <point x="-42" y="-238"/>
      <point x="1" y="-224"/>
    </contour>
    <contour>
      <point x="74" y="-363" type="curve"/>
      <point x="36" y="-276" type="line"/>
      <point x="8" y="-292"/>
      <point x="-14" y="-299"/>
      <point x="-42" y="-299" type="curve" smooth="yes"/>
      <point x="-68" y="-299"/>
      <point x="-88" y="-289"/>
      <point x="-88" y="-262" type="curve" smooth="yes"/>
      <point x="-88" y="-247"/>
      <point x="-82" y="-233"/>
      <point x="-70" y="-221" type="curve"/>
      <point x="-156" y="-168" type="line"/>
      <point x="-180" y="-192"/>
      <point x="-198" y="-220"/>
      <point x="-198" y="-260" type="curve" smooth="yes"/>
      <point x="-198" y="-344"/>
      <point x="-143" y="-394"/>
      <point x="-51" y="-394" type="curve" smooth="yes"/>
      <point x="-2" y="-394"/>
      <point x="40" y="-380"/>
    </contour>
  </outline>
</glyph>
<glyph name="ecandravowelsigndeva" format="2">
  <unicode hex="0945"/>
  <outline>
    <contour>
      <point x="48" y="870" type="curve"/>
      <point x="-42" y="893" type="line"/>
      <point x="-52" y="796"/>
      <point x="-74" y="756"/>
      <point x="-130" y="756" type="curve" smooth="yes"/>
      <point x="-182" y="756"/>
      <point x="-208" y="794"/>
      <point x="-230" y="892" type="curve"/>
      <point x="-315" y="866" type="line"/>
      <point x="-283" y="727"/>
      <point x="-225" y="663"/>
      <point x="-131" y="663" type="curve" smooth="yes"/>
      <point x="-26" y="663"/>
      <point x="30" y="722"/>
    </contour>
  </outline>
</glyph>
<glyph name="eshortvowelsigndeva" format="2">
  <unicode hex="0946"/>
  <outline>
    <contour>
      <point x="-175" y="615" type="curve"/>
      <point x="-69" y="615" type="line"/>
      <point x="-100" y="788"/>
      <point x="-137" y="824"/>
      <point x="-193" y="824" type="curve" smooth="yes"/>
      <point x="-216" y="824"/>
      <point x="-232" y="821"/>
      <point x="-247" y="821" type="curve" smooth="yes"/>
      <point x="-278" y="821"/>
      <point x="-291" y="837"/>
      <point x="-309" y="896" type="curve"/>
      <point x="-400" y="870" type="line"/>
      <point x="-370" y="753"/>
      <point x="-329" y="721"/>
      <point x="-279" y="721" type="curve" smooth="yes"/>
      <point x="-267" y="721"/>
      <point x="-250" y="723"/>
      <point x="-238" y="723" type="curve" smooth="yes"/>
      <point x="-206" y="723"/>
      <point x="-193" y="700"/>
    </contour>
  </outline>
</glyph>
<glyph name="evowelsigndeva" format="2">
  <unicode hex="0947"/>
  <outline>
    <contour>
      <point x="-175" y="615" type="curve"/>
      <point x="-69" y="615" type="line"/>
      <point x="-109" y="842"/>
      <point x="-175" y="896"/>
      <point x="-263" y="896" type="curve" smooth="yes"/>
      <point x="-290" y="896"/>
      <point x="-319" y="890"/>
      <point x="-344" y="879" type="curve"/>
      <point x="-313" y="776" type="line"/>
      <point x="-299" y="782"/>
      <point x="-284" y="785"/>
      <point x="-267" y="785" type="curve" smooth="yes"/>
      <point x="-222" y="785"/>
      <point x="-201" y="738"/>
    </contour>
  </outline>
</glyph>
<glyph name="aivowelsigndeva" format="2">
  <unicode hex="0948"/>
  <outline>
    <contour>
      <point x="-180" y="615" type="curve"/>
      <point x="-69" y="615" type="line"/>
      <point x="-108" y="842"/>
      <point x="-175" y="896"/>
      <point x="-262" y="896" type="curve" smooth="yes"/>
      <point x="-290" y="896"/>
      <point x="-318" y="890"/>
      <point x="-344" y="881" type="curve"/>
      <point x="-320" y="798" type="line"/>
      <point x="-303" y="805"/>
      <point x="-285" y="809"/>
      <point x="-267" y="809" type="curve" smooth="yes"/>
      <point x="-232" y="809"/>
      <point x="-212" y="789"/>
      <point x="-180" y="704" type="curve"/>
      <point x="-184" y="704" type="line"/>
      <point x="-216" y="756"/>
      <point x="-242" y="769"/>
      <point x="-281" y="769" type="curve" smooth="yes"/>
      <point x="-303" y="769"/>
      <point x="-331" y="763"/>
      <point x="-355" y="753" type="curve"/>
      <point x="-328" y="668" type="line"/>
      <point x="-309" y="677"/>
      <point x="-288" y="681"/>
      <point x="-272" y="681" type="curve" smooth="yes"/>
      <point x="-241" y="681"/>
      <point x="-217" y="671"/>
    </contour>
  </outline>
</glyph>
<glyph name="viramadeva" format="2">
  <unicode hex="094D"/>
  <outline>
    <contour>
      <point x="-187" y="-35" type="curve"/>
      <point x="-168" y="-137" type="line"/>
      <point x="-155" y="-133"/>
      <point x="-141" y="-132"/>
      <point x="-130" y="-132" type="curve" smooth="yes"/>
      <point x="-73" y="-132"/>
      <point x="-43" y="-167"/>
      <point x="14" y="-268" type="curve"/>
      <point x="105" y="-223" type="line"/>
      <point x="42" y="-103"/>
      <point x="-19" y="-28"/>
      <point x="-124" y="-28" type="curve" smooth="yes"/>
      <point x="-148" y="-28"/>
      <point x="-168" y="-30"/>
    </contour>
  </outline>
</glyph>
<glyph name="uni094E" format="2">
  <advance width="249"/>
  <unicode hex="094E"/>
  <outline>
    <contour>
      <point x="191" y="514" type="line"/>
      <point x="261" y="514" type="line"/>
      <point x="261" y="622" type="line"/>
      <point x="70" y="622" type="line"/>
      <point x="70" y="0" type="line"/>
      <point x="191" y="0" type="line"/>
    </contour>
  </outline>
</glyph>
<glyph name="omdeva" format="2">
  <advance width="792"/>
  <unicode hex="0950"/>
  <outline>
    <contour>
      <point x="326" y="398" type="curve"/>
      <point x="283" y="339" type="line"/>
      <point x="301" y="267"/>
      <point x="353" y="235"/>
      <point x="412" y="235" type="curve" smooth="yes"/>
      <point x="465" y="235"/>
      <point x="501" y="260"/>
      <point x="533" y="333" type="curve" smooth="yes"/>
      <point x="562" y="398" type="line" smooth="yes"/>
      <point x="575" y="428"/>
      <point x="587" y="439"/>
      <point x="602" y="439" type="curve" smooth="yes"/>
      <point x="625" y="439"/>
      <point x="640" y="417"/>
      <point x="640" y="358" type="curve" smooth="yes"/>
      <point x="640" y="296"/>
      <point x="622" y="270"/>
      <point x="589" y="270" type="curve" smooth="yes"/>
      <point x="571" y="270"/>
      <point x="556" y="278"/>
      <point x="538" y="294" type="curve"/>
      <point x="477" y="207" type="line"/>
      <point x="508" y="181"/>
      <point x="550" y="162"/>
      <point x="605" y="162" type="curve" smooth="yes"/>
      <point x="710" y="162"/>
      <point x="761" y="232"/>
      <point x="761" y="357" type="curve" smooth="yes"/>
      <point x="761" y="480"/>
      <point x="699" y="547"/>
      <point x="604" y="547" type="curve" smooth="yes"/>
      <point x="532" y="547"/>
      <point x="489" y="514"/>
      <point x="453" y="439" type="curve" smooth="yes"/>
      <point x="425" y="378" type="line" smooth="yes"/>
      <point x="411" y="347"/>
      <point x="398" y="336"/>
      <point x="377" y="336" type="curve" smooth="yes"/>
      <point x="357" y="336"/>
      <point x="343" y="356"/>
    </contour>
    <contour>
      <point x="111" y="602" type="curve"/>
      <point x="149" y="501" type="line"/>
      <point x="175" y="516"/>
      <point x="202" y="523"/>
      <point x="224" y="523" type="curve" smooth="yes"/>
      <point x="261" y="523"/>
      <point x="279" y="504"/>
      <point x="279" y="472" type="curve" smooth="yes"/>
      <point x="279" y="438"/>
      <point x="252" y="417"/>
      <point x="200" y="412" type="curve"/>
      <point x="212" y="308" type="line"/>
      <point x="318" y="320"/>
      <point x="399" y="371"/>
      <point x="399" y="478" type="curve" smooth="yes"/>
      <point x="399" y="568"/>
      <point x="342" y="632"/>
      <point x="244" y="632" type="curve" smooth="yes"/>
      <point x="190" y="632"/>
      <point x="153" y="620"/>
    </contour>
    <contour>
      <point x="408" y="209" type="curve" smooth="yes"/>
      <point x="408" y="259"/>
      <point x="388" y="307"/>
      <point x="351" y="343" type="curve"/>
      <point x="302" y="370" type="line"/>
      <point x="227" y="345" type="line"/>
      <point x="259" y="310"/>
      <point x="288" y="273"/>
      <point x="288" y="219" type="curve" smooth="yes"/>
      <point x="288" y="192"/>
      <point x="275" y="174"/>
      <point x="248" y="174" type="curve" smooth="yes"/>
      <point x="198" y="174"/>
      <point x="161" y="240"/>
      <point x="127" y="378" type="curve"/>
      <point x="17" y="350" type="line"/>
      <point x="74" y="137"/>
      <point x="142" y="64"/>
      <point x="257" y="64" type="curve" smooth="yes"/>
      <point x="354" y="64"/>
      <point x="408" y="115"/>
    </contour>
    <contour>
      <point x="410" y="820" type="curve" smooth="yes"/>
      <point x="410" y="787"/>
      <point x="430" y="764"/>
      <point x="460" y="764" type="curve" smooth="yes"/>
      <point x="491" y="764"/>
      <point x="511" y="786"/>
      <point x="511" y="819" type="curve" smooth="yes"/>
      <point x="511" y="852"/>
      <point x="491" y="873"/>
      <point x="460" y="873" type="curve" smooth="yes"/>
      <point x="429" y="873"/>
      <point x="410" y="852"/>
    </contour>
    <contour>
      <point x="639" y="847" type="curve"/>
      <point x="551" y="870" type="line"/>
      <point x="539" y="771"/>
      <point x="520" y="724"/>
      <point x="461" y="724" type="curve" smooth="yes"/>
      <point x="409" y="724"/>
      <point x="383" y="768"/>
      <point x="358" y="869" type="curve"/>
      <point x="276" y="843" type="line"/>
      <point x="309" y="701"/>
      <point x="369" y="636"/>
      <point x="461" y="636" type="curve" smooth="yes"/>
      <point x="561" y="636"/>
      <point x="621" y="694"/>
    </contour>
  </outline>
</glyph>
<glyph name="udattadeva" format="2">
  <unicode hex="0951"/>
  <outline>
    <contour>
      <point x="-80" y="670" type="line"/>
      <point x="-80" y="880" type="line"/>
      <point x="-162" y="880" type="line"/>
      <point x="-162" y="670" type="line"/>
    </contour>
  </outline>
</glyph>
<glyph name="anudattadeva" format="2">
  <unicode hex="0952"/>
  <outline>
    <contour>
      <point x="-354" y="-68" type="line"/>
      <point x="-354" y="-157" type="line"/>
      <point x="-55" y="-157" type="line"/>
      <point x="-55" y="-68" type="line"/>
    </contour>
  </outline>
</glyph>
<glyph name="uni0953" format="2">
  <unicode hex="0953"/>
  <outline>
    <contour>
      <point x="-159" y="683" type="line"/>
      <point x="-67" y="683" type="line"/>
      <point x="-120" y="883" type="line"/>
      <point x="-245" y="883" type="line"/>
    </contour>
  </outline>
</glyph>
<glyph name="uni0954" format="2">
  <unicode hex="0954"/>
  <outline>
    <contour>
      <point x="6" y="883" type="line"/>
      <point x="-118" y="883" type="line"/>
      <point x="-172" y="683" type="line"/>
      <point x="-79" y="683" type="line"/>
    </contour>
  </outline>
</glyph>
<glyph name="candralongevowelsigndeva" format="2">
  <unicode hex="0955"/>
  <outline>
    <contour>
      <point x="-279" y="728" type="line"/>
      <point x="-279" y="651" type="line"/>
      <point x="9" y="651" type="line"/>
      <point x="9" y="728" type="line"/>
    </contour>
    <contour>
      <point x="18" y="875" type="curve"/>
      <point x="-66" y="896" type="line"/>
      <point x="-75" y="828"/>
      <point x="-96" y="804"/>
      <point x="-133" y="804" type="curve" smooth="yes"/>
      <point x="-169" y="804"/>
      <point x="-191" y="824"/>
      <point x="-210" y="896" type="curve"/>
      <point x="-290" y="871" type="line"/>
      <point x="-264" y="781"/>
      <point x="-214" y="729"/>
      <point x="-133" y="729" type="curve" smooth="yes"/>
      <point x="-47" y="729"/>
      <point x="0" y="772"/>
    </contour>
  </outline>
</glyph>
<glyph name="uevowelsigndeva" format="2">
  <unicode hex="0956"/>
  <outline>
    <contour>
      <point x="-238" y="-200" type="curve" smooth="yes"/>
      <point x="-169" y="-200"/>
      <point x="-112" y="-176"/>
      <point x="-69" y="-143" type="curve"/>
      <point x="-102" y="-49" type="line"/>
      <point x="-150" y="-84"/>
      <point x="-191" y="-93"/>
      <point x="-238" y="-93" type="curve" smooth="yes"/>
      <point x="-292" y="-93"/>
      <point x="-333" y="-78"/>
      <point x="-374" y="-49" type="curve"/>
      <point x="-407" y="-143" type="line"/>
      <point x="-364" y="-177"/>
      <point x="-305" y="-200"/>
    </contour>
  </outline>
</glyph>
<glyph name="uuevowelsigndeva" format="2">
  <unicode hex="0957"/>
  <outline>
    <contour>
      <point x="-233" y="-147" type="curve" smooth="yes"/>
      <point x="-173" y="-147"/>
      <point x="-121" y="-131"/>
      <point x="-69" y="-98" type="curve"/>
      <point x="-93" y="-20" type="line"/>
      <point x="-138" y="-49"/>
      <point x="-176" y="-61"/>
      <point x="-233" y="-61" type="curve" smooth="yes"/>
      <point x="-290" y="-61"/>
      <point x="-328" y="-47"/>
      <point x="-370" y="-20" type="curve"/>
      <point x="-394" y="-98" type="line"/>
      <point x="-342" y="-131"/>
      <point x="-290" y="-147"/>
    </contour>
    <contour>
      <point x="-233" y="-268" type="curve" smooth="yes"/>
      <point x="-165" y="-268"/>
      <point x="-118" y="-253"/>
      <point x="-69" y="-224" type="curve"/>
      <point x="-91" y="-147" type="line"/>
      <point x="-138" y="-172"/>
      <point x="-180" y="-181"/>
      <point x="-233" y="-181" type="curve" smooth="yes"/>
      <point x="-286" y="-181"/>
      <point x="-328" y="-171"/>
      <point x="-373" y="-147" type="curve"/>
      <point x="-394" y="-224" type="line"/>
      <point x="-351" y="-250"/>
      <point x="-299" y="-268"/>
    </contour>
  </outline>
</glyph>
<glyph name="rrvocalicdeva" format="2">
  <advance width="711"/>
  <unicode hex="0960"/>
  <outline>
    <contour>
      <point x="409" y="514" type="line"/>
      <point x="723" y="514" type="line"/>
      <point x="723" y="622" type="line"/>
      <point x="0" y="622" type="line"/>
      <point x="0" y="514" type="line"/>
      <point x="288" y="514" type="line"/>
      <point x="288" y="0" type="line"/>
      <point x="409" y="0" type="line"/>
    </contour>
    <contour>
      <point x="16" y="404" type="curve"/>
      <point x="55" y="300" type="line"/>
      <point x="84" y="316"/>
      <point x="110" y="327"/>
      <point x="137" y="327" type="curve" smooth="yes"/>
      <point x="170" y="327"/>
      <point x="185" y="316"/>
      <point x="230" y="247" type="curve"/>
      <point x="306" y="270" type="line"/>
      <point x="304" y="302" type="line"/>
      <point x="244" y="401"/>
      <point x="214" y="438"/>
      <point x="138" y="438" type="curve" smooth="yes"/>
      <point x="96" y="438"/>
      <point x="58" y="425"/>
    </contour>
    <contour>
      <point x="112" y="47" type="line"/>
      <point x="341" y="235" type="line"/>
      <point x="265" y="297" type="line"/>
      <point x="41" y="137" type="line"/>
    </contour>
    <contour>
      <point x="387" y="327" type="curve"/>
      <point x="386" y="226" type="line"/>
      <point x="435" y="229"/>
      <point x="475" y="236"/>
      <point x="511" y="250" type="curve"/>
      <point x="520" y="224"/>
      <point x="535" y="189"/>
      <point x="549" y="159" type="curve"/>
      <point x="615" y="159" type="line"/>
      <point x="636" y="196" type="line"/>
      <point x="619" y="226"/>
      <point x="606" y="253"/>
      <point x="593" y="283" type="curve"/>
      <point x="612" y="296"/>
      <point x="625" y="321"/>
      <point x="625" y="354" type="curve" smooth="yes"/>
      <point x="625" y="398"/>
      <point x="601" y="441"/>
      <point x="545" y="441" type="curve" smooth="yes"/>
      <point x="509" y="441"/>
      <point x="475" y="416"/>
      <point x="475" y="365" type="curve" smooth="yes"/>
      <point x="475" y="350"/>
      <point x="478" y="334"/>
      <point x="482" y="322" type="curve"/>
      <point x="495" y="348" type="line"/>
      <point x="468" y="335"/>
      <point x="420" y="329"/>
    </contour>
    <contour>
      <point x="722" y="5" type="curve"/>
      <point x="685" y="92" type="line"/>
      <point x="656" y="76"/>
      <point x="634" y="69"/>
      <point x="607" y="69" type="curve" smooth="yes"/>
      <point x="580" y="69"/>
      <point x="561" y="79"/>
      <point x="561" y="107" type="curve" smooth="yes"/>
      <point x="561" y="134"/>
      <point x="582" y="149"/>
      <point x="616" y="159" type="curve"/>
      <point x="563" y="244" type="line"/>
      <point x="489" y="220"/>
      <point x="450" y="172"/>
      <point x="450" y="107" type="curve" smooth="yes"/>
      <point x="450" y="23"/>
      <point x="505" y="-26"/>
      <point x="597" y="-26" type="curve" smooth="yes"/>
      <point x="645" y="-26"/>
      <point x="688" y="-12"/>
    </contour>
    <contour>
      <point x="762" y="-151" type="curve"/>
      <point x="725" y="-64" type="line"/>
      <point x="696" y="-80"/>
      <point x="674" y="-87"/>
      <point x="646" y="-87" type="curve" smooth="yes"/>
      <point x="620" y="-87"/>
      <point x="601" y="-78"/>
      <point x="601" y="-50" type="curve" smooth="yes"/>
      <point x="601" y="-36"/>
      <point x="606" y="-21"/>
      <point x="618" y="-10" type="curve"/>
      <point x="532" y="44" type="line"/>
      <point x="508" y="19"/>
      <point x="490" y="-9"/>
      <point x="490" y="-49" type="curve" smooth="yes"/>
      <point x="490" y="-133"/>
      <point x="545" y="-182"/>
      <point x="637" y="-182" type="curve" smooth="yes"/>
      <point x="686" y="-182"/>
      <point x="728" y="-168"/>
    </contour>
  </outline>
</glyph>
<glyph name="llvocalicdeva" format="2">
  <advance width="582"/>
  <unicode hex="0961"/>
  <outline>
    <contour>
      <point x="642" y="-188" type="curve"/>
      <point x="605" y="-101" type="line"/>
      <point x="576" y="-117"/>
      <point x="554" y="-124"/>
      <point x="526" y="-124" type="curve" smooth="yes"/>
      <point x="500" y="-124"/>
      <point x="481" y="-115"/>
      <point x="481" y="-87" type="curve" smooth="yes"/>
      <point x="481" y="-73"/>
      <point x="486" y="-58"/>
      <point x="498" y="-47" type="curve"/>
      <point x="412" y="7" type="line"/>
      <point x="388" y="-18"/>
      <point x="370" y="-46"/>
      <point x="370" y="-86" type="curve" smooth="yes"/>
      <point x="370" y="-170"/>
      <point x="425" y="-220"/>
      <point x="517" y="-220" type="curve" smooth="yes"/>
      <point x="566" y="-220"/>
      <point x="608" y="-205"/>
    </contour>
    <contour>
      <point x="602" y="-32" type="curve"/>
      <point x="565" y="55" type="line"/>
      <point x="536" y="39"/>
      <point x="514" y="32"/>
      <point x="487" y="32" type="curve" smooth="yes"/>
      <point x="460" y="32"/>
      <point x="441" y="42"/>
      <point x="441" y="70" type="curve" smooth="yes"/>
      <point x="441" y="99"/>
      <point x="466" y="118"/>
      <point x="527" y="129" type="curve"/>
      <point x="503" y="220" type="line"/>
      <point x="392" y="204"/>
      <point x="330" y="151"/>
      <point x="330" y="70" type="curve" smooth="yes"/>
      <point x="330" y="-14"/>
      <point x="385" y="-64"/>
      <point x="477" y="-64" type="curve" smooth="yes"/>
      <point x="525" y="-64"/>
      <point x="568" y="-49"/>
    </contour>
    <contour>
      <point x="551" y="263" type="curve" smooth="yes"/>
      <point x="551" y="364"/>
      <point x="502" y="424"/>
      <point x="404" y="424" type="curve" smooth="yes"/>
      <point x="303" y="424"/>
      <point x="237" y="361"/>
      <point x="211" y="218" type="curve"/>
      <point x="320" y="189" type="line"/>
      <point x="338" y="300"/>
      <point x="370" y="318"/>
      <point x="394" y="318" type="curve" smooth="yes"/>
      <point x="415" y="318"/>
      <point x="432" y="304"/>
      <point x="432" y="260" type="curve" smooth="yes"/>
      <point x="432" y="220"/>
      <point x="422" y="185"/>
      <point x="409" y="149" type="curve"/>
      <point x="528" y="129" type="line"/>
      <point x="541" y="169"/>
      <point x="551" y="210"/>
    </contour>
    <contour>
      <point x="169" y="425" type="curve" smooth="yes"/>
      <point x="103" y="425"/>
      <point x="26" y="381"/>
      <point x="26" y="266" type="curve" smooth="yes"/>
      <point x="26" y="179"/>
      <point x="81" y="81"/>
      <point x="161" y="-16" type="curve"/>
      <point x="254" y="49" type="line"/>
      <point x="190" y="130"/>
      <point x="147" y="192"/>
      <point x="147" y="260" type="curve" smooth="yes"/>
      <point x="147" y="290"/>
      <point x="159" y="315"/>
      <point x="188" y="315" type="curve" smooth="yes"/>
      <point x="213" y="315"/>
      <point x="232" y="294"/>
      <point x="254" y="259" type="curve"/>
      <point x="313" y="356" type="line"/>
      <point x="264" y="402"/>
      <point x="229" y="425"/>
    </contour>
    <contour>
      <point x="351" y="514" type="line"/>
      <point x="351" y="408" type="line"/>
      <point x="470" y="371" type="line"/>
      <point x="470" y="514" type="line"/>
      <point x="594" y="514" type="line"/>
      <point x="594" y="622" type="line"/>
      <point x="0" y="622" type="line"/>
      <point x="0" y="514" type="line"/>
    </contour>
  </outline>
</glyph>
<glyph name="lvocalicvowelsigndeva" format="2">
  <unicode hex="0962"/>
  <outline>
    <contour>
      <point x="-205" y="-110" type="curve"/>
      <point x="-163" y="-36" type="line"/>
      <point x="-201" y="-3"/>
      <point x="-232" y="9"/>
      <point x="-272" y="9" type="curve" smooth="yes"/>
      <point x="-335" y="9"/>
      <point x="-389" y="-32"/>
      <point x="-389" y="-114" type="curve" smooth="yes"/>
      <point x="-389" y="-189"/>
      <point x="-348" y="-258"/>
      <point x="-278" y="-344" type="curve"/>
      <point x="-201" y="-286" type="line"/>
      <point x="-255" y="-223"/>
      <point x="-289" y="-173"/>
      <point x="-289" y="-125" type="curve" smooth="yes"/>
      <point x="-289" y="-104"/>
      <point x="-278" y="-82"/>
      <point x="-254" y="-82" type="curve" smooth="yes"/>
      <point x="-237" y="-82"/>
      <point x="-221" y="-92"/>
    </contour>
    <contour>
      <point x="-84" y="9" type="curve" smooth="yes"/>
      <point x="-171" y="9"/>
      <point x="-214" y="-49"/>
      <point x="-236" y="-153" type="curve"/>
      <point x="-153" y="-178" type="line"/>
      <point x="-136" y="-103"/>
      <point x="-116" y="-82"/>
      <point x="-94" y="-82" type="curve" smooth="yes"/>
      <point x="-75" y="-82"/>
      <point x="-68" y="-100"/>
      <point x="-68" y="-124" type="curve" smooth="yes"/>
      <point x="-68" y="-154"/>
      <point x="-82" y="-186"/>
      <point x="-93" y="-209" type="curve"/>
      <point x="-35" y="-153" type="line"/>
      <point x="-92" y="-165"/>
      <point x="-143" y="-205"/>
      <point x="-143" y="-276" type="curve" smooth="yes"/>
      <point x="-143" y="-349"/>
      <point x="-95" y="-394"/>
      <point x="-28" y="-394" type="curve" smooth="yes"/>
      <point x="10" y="-394"/>
      <point x="35" y="-386"/>
      <point x="62" y="-372" type="curve"/>
      <point x="37" y="-298" type="line"/>
      <point x="16" y="-308"/>
      <point x="3" y="-312"/>
      <point x="-15" y="-312" type="curve" smooth="yes"/>
      <point x="-40" y="-312"/>
      <point x="-54" y="-300"/>
      <point x="-54" y="-276" type="curve" smooth="yes"/>
      <point x="-54" y="-247"/>
      <point x="-33" y="-228"/>
      <point x="19" y="-218" type="curve"/>
      <point x="27" y="-189"/>
      <point x="32" y="-164"/>
      <point x="32" y="-123" type="curve" smooth="yes"/>
      <point x="32" y="-42"/>
      <point x="-10" y="9"/>
    </contour>
  </outline>
</glyph>
<glyph name="llvocalicvowelsigndeva" format="2">
  <unicode hex="0963"/>
  <outline>
    <contour>
      <point x="4" y="-280" type="curve" smooth="yes"/>
      <point x="41" y="-280"/>
      <point x="68" y="-272"/>
      <point x="91" y="-259" type="curve"/>
      <point x="67" y="-193" type="line"/>
      <point x="46" y="-204"/>
      <point x="30" y="-208"/>
      <point x="11" y="-208" type="curve" smooth="yes"/>
      <point x="-11" y="-208"/>
      <point x="-24" y="-197"/>
      <point x="-24" y="-179" type="curve" smooth="yes"/>
      <point x="-24" y="-162"/>
      <point x="-11" y="-147"/>
      <point x="31" y="-142" type="curve"/>
      <point x="32" y="-136"/>
      <point x="32" y="-129"/>
      <point x="32" y="-123" type="curve" smooth="yes"/>
      <point x="32" y="-42"/>
      <point x="-10" y="9"/>
      <point x="-84" y="9" type="curve" smooth="yes"/>
      <point x="-171" y="9"/>
      <point x="-214" y="-49"/>
      <point x="-236" y="-153" type="curve"/>
      <point x="-153" y="-178" type="line"/>
      <point x="-136" y="-103"/>
      <point x="-116" y="-82"/>
      <point x="-94" y="-82" type="curve" smooth="yes"/>
      <point x="-74" y="-82"/>
      <point x="-67" y="-99"/>
      <point x="-67" y="-130" type="curve"/>
      <point x="-25" y="-85" type="line"/>
      <point x="-73" y="-98"/>
      <point x="-106" y="-131"/>
      <point x="-106" y="-180" type="curve" smooth="yes"/>
      <point x="-106" y="-245"/>
      <point x="-53" y="-280"/>
    </contour>
    <contour>
      <point x="-272" y="9" type="curve" smooth="yes"/>
      <point x="-335" y="9"/>
      <point x="-389" y="-32"/>
      <point x="-389" y="-114" type="curve" smooth="yes"/>
      <point x="-389" y="-190"/>
      <point x="-348" y="-258"/>
      <point x="-278" y="-344" type="curve"/>
      <point x="-201" y="-286" type="line"/>
      <point x="-255" y="-223"/>
      <point x="-289" y="-173"/>
      <point x="-289" y="-125" type="curve" smooth="yes"/>
      <point x="-289" y="-104"/>
      <point x="-278" y="-82"/>
      <point x="-254" y="-82" type="curve" smooth="yes"/>
      <point x="-237" y="-82"/>
      <point x="-221" y="-92"/>
      <point x="-205" y="-110" type="curve"/>
      <point x="-163" y="-36" type="line"/>
      <point x="-201" y="-3"/>
      <point x="-232" y="9"/>
    </contour>
    <contour>
      <point x="36" y="-394" type="curve" smooth="yes"/>
      <point x="73" y="-394"/>
      <point x="100" y="-386"/>
      <point x="123" y="-373" type="curve"/>
      <point x="99" y="-307" type="line"/>
      <point x="78" y="-318"/>
      <point x="62" y="-322"/>
      <point x="43" y="-322" type="curve" smooth="yes"/>
      <point x="21" y="-322"/>
      <point x="8" y="-311"/>
      <point x="8" y="-293" type="curve" smooth="yes"/>
      <point x="8" y="-282"/>
      <point x="13" y="-273"/>
      <point x="21" y="-267" type="curve"/>
      <point x="-41" y="-227" type="line"/>
      <point x="-61" y="-244"/>
      <point x="-74" y="-264"/>
      <point x="-74" y="-294" type="curve" smooth="yes"/>
      <point x="-74" y="-359"/>
      <point x="-21" y="-394"/>
    </contour>
  </outline>
</glyph>
<glyph name="dbldandadeva" format="2">
  <advance width="573"/>
  <unicode hex="0965"/>
  <outline>
    <contour>
      <point x="367" y="622" type="line"/>
      <point x="367" y="0" type="line"/>
      <point x="488" y="0" type="line"/>
      <point x="488" y="622" type="line"/>
    </contour>
    <contour>
      <point x="163" y="622" type="line"/>
      <point x="163" y="0" type="line"/>
      <point x="284" y="0" type="line"/>
      <point x="284" y="622" type="line"/>
    </contour>
  </outline>
</glyph>
<glyph name="zerodeva" format="2">
  <advance width="460"/>
  <unicode hex="0966"/>
  <outline>
    <contour>
      <point x="230" y="104" type="curve" smooth="yes"/>
      <point x="348" y="104"/>
      <point x="421" y="180"/>
      <point x="421" y="319" type="curve" smooth="yes"/>
      <point x="421" y="458"/>
      <point x="343" y="536"/>
      <point x="229" y="536" type="curve" smooth="yes"/>
      <point x="116" y="536"/>
      <point x="38" y="458"/>
      <point x="38" y="321" type="curve" smooth="yes"/>
      <point x="38" y="183"/>
      <point x="116" y="104"/>
    </contour>
    <contour>
      <point x="227" y="213" type="curve" smooth="yes"/>
      <point x="185" y="213"/>
      <point x="161" y="251"/>
      <point x="161" y="318" type="curve" smooth="yes"/>
      <point x="161" y="387"/>
      <point x="187" y="427"/>
      <point x="229" y="427" type="curve" smooth="yes"/>
      <point x="275" y="427"/>
      <point x="297" y="389"/>
      <point x="297" y="322" type="curve" smooth="yes"/>
      <point x="297" y="253"/>
      <point x="272" y="213"/>
    </contour>
  </outline>
</glyph>
<glyph name="onedeva" format="2">
  <advance width="460"/>
  <unicode hex="0967"/>
  <outline>
    <contour>
      <point x="229" y="632" type="curve" smooth="yes"/>
      <point x="129" y="632"/>
      <point x="76" y="572"/>
      <point x="76" y="503" type="curve" smooth="yes"/>
      <point x="76" y="439"/>
      <point x="111" y="399"/>
      <point x="161" y="369" type="curve"/>
      <point x="229" y="440" type="line"/>
      <point x="204" y="453"/>
      <point x="188" y="470"/>
      <point x="188" y="494" type="curve" smooth="yes"/>
      <point x="188" y="514"/>
      <point x="201" y="530"/>
      <point x="226" y="530" type="curve" smooth="yes"/>
      <point x="251" y="530"/>
      <point x="266" y="511"/>
      <point x="266" y="483" type="curve" smooth="yes"/>
      <point x="266" y="425"/>
      <point x="198" y="360"/>
      <point x="85" y="278" type="curve"/>
      <point x="79" y="236" type="line"/>
      <point x="226" y="94" type="line" smooth="yes"/>
      <point x="258" y="63"/>
      <point x="268" y="48"/>
      <point x="268" y="20" type="curve" smooth="yes"/>
      <point x="268" y="-4"/>
      <point x="255" y="-20"/>
      <point x="242" y="-34" type="curve"/>
      <point x="335" y="-104" type="line"/>
      <point x="372" y="-62"/>
      <point x="392" y="-18"/>
      <point x="392" y="28" type="curve" smooth="yes"/>
      <point x="392" y="83"/>
      <point x="369" y="128"/>
      <point x="308" y="185" type="curve" smooth="yes"/>
      <point x="190" y="294" type="line"/>
      <point x="186" y="208" type="line"/>
      <point x="348" y="318"/>
      <point x="388" y="394"/>
      <point x="388" y="479" type="curve" smooth="yes"/>
      <point x="388" y="566"/>
      <point x="333" y="632"/>
    </contour>
  </outline>
</glyph>
<glyph name="twodeva" format="2">
  <advance width="460"/>
  <unicode hex="0968"/>
  <outline>
    <contour>
      <point x="161" y="288" type="curve"/>
      <point x="138" y="240" type="line"/>
      <point x="191" y="185"/>
      <point x="265" y="87"/>
      <point x="328" y="-15" type="curve"/>
      <point x="426" y="46" type="line"/>
      <point x="369" y="128"/>
      <point x="298" y="215"/>
      <point x="240" y="269" type="curve"/>
      <point x="236" y="283" type="line"/>
      <point x="204" y="329"/>
      <point x="167" y="340"/>
      <point x="141" y="340" type="curve" smooth="yes"/>
      <point x="99" y="340"/>
      <point x="67" y="313"/>
      <point x="67" y="269" type="curve" smooth="yes"/>
      <point x="67" y="210"/>
      <point x="115" y="183"/>
      <point x="167" y="183" type="curve" smooth="yes"/>
      <point x="301" y="183"/>
      <point x="393" y="286"/>
      <point x="393" y="426" type="curve" smooth="yes"/>
      <point x="393" y="564"/>
      <point x="315" y="632"/>
      <point x="201" y="632" type="curve" smooth="yes"/>
      <point x="142" y="632"/>
      <point x="97" y="620"/>
      <point x="52" y="602" type="curve"/>
      <point x="89" y="502" type="line"/>
      <point x="115" y="514"/>
      <point x="148" y="524"/>
      <point x="179" y="524" type="curve" smooth="yes"/>
      <point x="236" y="524"/>
      <point x="268" y="491"/>
      <point x="268" y="425" type="curve" smooth="yes"/>
      <point x="268" y="341"/>
      <point x="216" y="295"/>
    </contour>
  </outline>
</glyph>
<glyph name="threedeva" format="2">
  <advance width="460"/>
  <unicode hex="0969"/>
  <outline>
    <contour>
      <point x="162" y="180" type="curve"/>
      <point x="137" y="129" type="line"/>
      <point x="179" y="86"/>
      <point x="244" y="1"/>
      <point x="301" y="-82" type="curve"/>
      <point x="396" y="-23" type="line"/>
      <point x="346" y="44"/>
      <point x="282" y="114"/>
      <point x="238" y="156" type="curve"/>
      <point x="235" y="170" type="line"/>
      <point x="202" y="217"/>
      <point x="162" y="227"/>
      <point x="138" y="227" type="curve" smooth="yes"/>
      <point x="95" y="227"/>
      <point x="65" y="201"/>
      <point x="65" y="155" type="curve" smooth="yes"/>
      <point x="65" y="101"/>
      <point x="106" y="70"/>
      <point x="170" y="70" type="curve" smooth="yes"/>
      <point x="313" y="70"/>
      <point x="394" y="147"/>
      <point x="394" y="251" type="curve" smooth="yes"/>
      <point x="394" y="324"/>
      <point x="350" y="380"/>
      <point x="282" y="401" type="curve"/>
      <point x="194" y="322" type="line"/>
      <point x="240" y="320"/>
      <point x="271" y="300"/>
      <point x="271" y="256" type="curve" smooth="yes"/>
      <point x="271" y="210"/>
      <point x="240" y="182"/>
    </contour>
    <contour>
      <point x="57" y="602" type="curve"/>
      <point x="90" y="501" type="line"/>
      <point x="122" y="515"/>
      <point x="153" y="524"/>
      <point x="185" y="524" type="curve" smooth="yes"/>
      <point x="218" y="524"/>
      <point x="243" y="510"/>
      <point x="243" y="473" type="curve" smooth="yes"/>
      <point x="243" y="436"/>
      <point x="216" y="412"/>
      <point x="146" y="409" type="curve"/>
      <point x="151" y="306" type="line"/>
      <point x="216" y="308"/>
      <point x="256" y="323"/>
      <point x="291" y="347" type="curve"/>
      <point x="300" y="355" type="line"/>
      <point x="335" y="383"/>
      <point x="365" y="422"/>
      <point x="365" y="484" type="curve" smooth="yes"/>
      <point x="365" y="567"/>
      <point x="313" y="632"/>
      <point x="204" y="632" type="curve" smooth="yes"/>
      <point x="146" y="632"/>
      <point x="98" y="618"/>
    </contour>
  </outline>
</glyph>
<glyph name="fourdeva" format="2">
  <advance width="460"/>
  <unicode hex="096A"/>
  <outline>
    <contour>
      <point x="156" y="328" type="curve"/>
      <point x="201" y="283" type="line"/>
      <point x="257" y="224"/>
      <point x="271" y="191"/>
      <point x="271" y="159" type="curve" smooth="yes"/>
      <point x="271" y="122"/>
      <point x="252" y="106"/>
      <point x="228" y="106" type="curve" smooth="yes"/>
      <point x="200" y="106"/>
      <point x="185" y="126"/>
      <point x="185" y="153" type="curve" smooth="yes"/>
      <point x="185" y="189"/>
      <point x="200" y="218"/>
      <point x="254" y="284" type="curve"/>
      <point x="292" y="318" type="line"/>
      <point x="414" y="442"/>
      <point x="429" y="510"/>
      <point x="429" y="567" type="curve" smooth="yes"/>
      <point x="429" y="592"/>
      <point x="425" y="613"/>
      <point x="419" y="632" type="curve"/>
      <point x="298" y="613" type="line"/>
      <point x="302" y="600"/>
      <point x="305" y="584"/>
      <point x="305" y="567" type="curve" smooth="yes"/>
      <point x="305" y="526"/>
      <point x="298" y="477"/>
      <point x="210" y="386" type="curve"/>
      <point x="172" y="352" type="line"/>
      <point x="85" y="263"/>
      <point x="64" y="208"/>
      <point x="64" y="144" type="curve" smooth="yes"/>
      <point x="64" y="58"/>
      <point x="121" y="-2"/>
      <point x="228" y="-2" type="curve" smooth="yes"/>
      <point x="334" y="-2"/>
      <point x="386" y="57"/>
      <point x="386" y="145" type="curve" smooth="yes"/>
      <point x="386" y="211"/>
      <point x="370" y="261"/>
      <point x="280" y="356" type="curve"/>
      <point x="237" y="397" type="line"/>
      <point x="169" y="475"/>
      <point x="157" y="518"/>
      <point x="157" y="567" type="curve" smooth="yes"/>
      <point x="157" y="585"/>
      <point x="160" y="599"/>
      <point x="164" y="612" type="curve"/>
      <point x="44" y="632" type="line"/>
      <point x="38" y="614"/>
      <point x="33" y="592"/>
      <point x="33" y="567" type="curve" smooth="yes"/>
      <point x="33" y="513"/>
      <point x="40" y="450"/>
    </contour>
  </outline>
</glyph>
<glyph name="fivedeva" format="2">
  <advance width="460"/>
  <unicode hex="096B"/>
  <outline>
    <contour>
      <point x="359" y="-68" type="curve"/>
      <point x="464" y="-23" type="line"/>
      <point x="426" y="51"/>
      <point x="376" y="168"/>
      <point x="353" y="233" type="curve"/>
      <point x="277" y="292" type="line"/>
      <point x="273" y="290"/>
      <point x="262" y="289"/>
      <point x="259" y="289" type="curve" smooth="yes"/>
      <point x="197" y="289"/>
      <point x="166" y="332"/>
      <point x="166" y="406" type="curve" smooth="yes"/>
      <point x="166" y="472"/>
      <point x="186" y="524"/>
      <point x="221" y="592" type="curve"/>
      <point x="96" y="632" type="line"/>
      <point x="62" y="556"/>
      <point x="43" y="483"/>
      <point x="43" y="419" type="curve" smooth="yes"/>
      <point x="43" y="236"/>
      <point x="150" y="184"/>
      <point x="248" y="184" type="curve" smooth="yes"/>
      <point x="340" y="184"/>
      <point x="404" y="210"/>
      <point x="404" y="288" type="curve" smooth="yes"/>
      <point x="404" y="340"/>
      <point x="371" y="385"/>
      <point x="317" y="385" type="curve" smooth="yes"/>
      <point x="273" y="385"/>
      <point x="243" y="359"/>
      <point x="243" y="308" type="curve" smooth="yes"/>
      <point x="243" y="275"/>
      <point x="248" y="238"/>
      <point x="255" y="213" type="curve"/>
      <point x="275" y="139"/>
      <point x="319" y="21"/>
    </contour>
  </outline>
</glyph>
<glyph name="sixdeva" format="2">
  <advance width="460"/>
  <unicode hex="096C"/>
  <outline>
    <contour>
      <point x="350" y="-101" type="curve"/>
      <point x="454" y="-58" type="line"/>
      <point x="422" y="4"/>
      <point x="387" y="80"/>
      <point x="371" y="125" type="curve"/>
      <point x="316" y="193" type="line"/>
      <point x="307" y="189"/>
      <point x="296" y="188"/>
      <point x="282" y="188" type="curve" smooth="yes"/>
      <point x="222" y="188"/>
      <point x="191" y="212"/>
      <point x="191" y="259" type="curve" smooth="yes"/>
      <point x="191" y="303"/>
      <point x="223" y="323"/>
      <point x="263" y="323" type="curve" smooth="yes"/>
      <point x="277" y="323"/>
      <point x="291" y="322"/>
      <point x="303" y="320" type="curve"/>
      <point x="313" y="425" type="line"/>
      <point x="303" y="428"/>
      <point x="276" y="431"/>
      <point x="256" y="431" type="curve" smooth="yes"/>
      <point x="212" y="431"/>
      <point x="178" y="421"/>
      <point x="143" y="399" type="curve"/>
      <point x="132" y="385" type="line"/>
      <point x="89" y="354"/>
      <point x="70" y="313"/>
      <point x="70" y="262" type="curve" smooth="yes"/>
      <point x="70" y="161"/>
      <point x="139" y="80"/>
      <point x="265" y="80" type="curve" smooth="yes"/>
      <point x="363" y="80"/>
      <point x="423" y="105"/>
      <point x="423" y="181" type="curve" smooth="yes"/>
      <point x="423" y="234"/>
      <point x="390" y="275"/>
      <point x="334" y="275" type="curve" smooth="yes"/>
      <point x="295" y="275"/>
      <point x="261" y="252"/>
      <point x="261" y="203" type="curve" smooth="yes"/>
      <point x="261" y="192"/>
      <point x="262" y="177"/>
      <point x="263" y="167" type="curve"/>
      <point x="277" y="95" type="line"/>
      <point x="290" y="50"/>
      <point x="318" y="-29"/>
    </contour>
    <contour>
      <point x="201" y="322" type="curve"/>
      <point x="231" y="414" type="line"/>
      <point x="195" y="424"/>
      <point x="171" y="447"/>
      <point x="171" y="477" type="curve" smooth="yes"/>
      <point x="171" y="507"/>
      <point x="190" y="525"/>
      <point x="233" y="525" type="curve" smooth="yes"/>
      <point x="263" y="525"/>
      <point x="289" y="520"/>
      <point x="312" y="515" type="curve"/>
      <point x="323" y="621" type="line"/>
      <point x="292" y="628"/>
      <point x="253" y="632"/>
      <point x="217" y="632" type="curve" smooth="yes"/>
      <point x="116" y="632"/>
      <point x="50" y="580"/>
      <point x="50" y="485" type="curve" smooth="yes"/>
      <point x="50" y="401"/>
      <point x="101" y="344"/>
    </contour>
  </outline>
</glyph>
<glyph name="sevendeva" format="2">
  <advance width="460"/>
  <unicode hex="096D"/>
  <outline>
    <contour>
      <point x="434" y="272" type="curve" smooth="yes"/>
      <point x="434" y="440"/>
      <point x="370" y="551"/>
      <point x="263" y="551" type="curve" smooth="yes"/>
      <point x="191" y="551"/>
      <point x="142" y="500"/>
      <point x="142" y="425" type="curve" smooth="yes"/>
      <point x="142" y="339"/>
      <point x="194" y="282"/>
      <point x="286" y="263" type="curve"/>
      <point x="302" y="355" type="line"/>
      <point x="266" y="361"/>
      <point x="238" y="382"/>
      <point x="238" y="416" type="curve" smooth="yes"/>
      <point x="238" y="437"/>
      <point x="248" y="449"/>
      <point x="264" y="449" type="curve" smooth="yes"/>
      <point x="299" y="449"/>
      <point x="314" y="376"/>
      <point x="314" y="283" type="curve" smooth="yes"/>
      <point x="314" y="188"/>
      <point x="304" y="146"/>
      <point x="261" y="146" type="curve" smooth="yes"/>
      <point x="183" y="146"/>
      <point x="142" y="296"/>
      <point x="130" y="603" type="curve"/>
      <point x="20" y="589" type="line"/>
      <point x="37" y="146"/>
      <point x="128" y="35"/>
      <point x="271" y="35" type="curve" smooth="yes"/>
      <point x="373" y="35"/>
      <point x="434" y="104"/>
    </contour>
  </outline>
</glyph>
<glyph name="eightdeva" format="2">
  <advance width="460"/>
  <unicode hex="096E"/>
  <outline>
    <contour>
      <point x="234" y="0" type="curve" smooth="yes"/>
      <point x="314" y="0"/>
      <point x="369" y="17"/>
      <point x="436" y="53" type="curve"/>
      <point x="390" y="161" type="line"/>
      <point x="331" y="123"/>
      <point x="291" y="111"/>
      <point x="245" y="111" type="curve" smooth="yes"/>
      <point x="199" y="111"/>
      <point x="174" y="135"/>
      <point x="174" y="174" type="curve" smooth="yes"/>
      <point x="174" y="196"/>
      <point x="183" y="219"/>
      <point x="207" y="257" type="curve" smooth="yes"/>
      <point x="399" y="558" type="line"/>
      <point x="279" y="633" type="line"/>
      <point x="112" y="363" type="line" smooth="yes"/>
      <point x="70" y="294"/>
      <point x="49" y="245"/>
      <point x="49" y="180" type="curve" smooth="yes"/>
      <point x="49" y="57"/>
      <point x="137" y="0"/>
    </contour>
  </outline>
</glyph>
<glyph name="ninedeva" format="2">
  <advance width="460"/>
  <unicode hex="096F"/>
  <outline>
    <contour>
      <point x="43" y="456" type="curve" smooth="yes"/>
      <point x="43" y="370"/>
      <point x="79" y="297"/>
      <point x="183" y="193" type="curve" smooth="yes"/>
      <point x="277" y="99" type="line" smooth="yes"/>
      <point x="309" y="68"/>
      <point x="318" y="52"/>
      <point x="318" y="25" type="curve" smooth="yes"/>
      <point x="318" y="1"/>
      <point x="306" y="-15"/>
      <point x="293" y="-29" type="curve"/>
      <point x="385" y="-99" type="line"/>
      <point x="421" y="-60"/>
      <point x="442" y="-14"/>
      <point x="442" y="32" type="curve" smooth="yes"/>
      <point x="442" y="87"/>
      <point x="420" y="131"/>
      <point x="358" y="190" type="curve" smooth="yes"/>
      <point x="298" y="247" type="line" smooth="yes"/>
      <point x="272" y="272"/>
      <point x="233" y="305"/>
      <point x="213" y="317" type="curve"/>
      <point x="169" y="290" type="line"/>
      <point x="179" y="287"/>
      <point x="194" y="285"/>
      <point x="206" y="285" type="curve" smooth="yes"/>
      <point x="335" y="285"/>
      <point x="381" y="362"/>
      <point x="381" y="457" type="curve" smooth="yes"/>
      <point x="381" y="562"/>
      <point x="318" y="632"/>
      <point x="212" y="632" type="curve" smooth="yes"/>
      <point x="101" y="632"/>
      <point x="43" y="554"/>
    </contour>
    <contour>
      <point x="156" y="453" type="curve" smooth="yes"/>
      <point x="156" y="499"/>
      <point x="178" y="523"/>
      <point x="210" y="523" type="curve" smooth="yes"/>
      <point x="239" y="523"/>
      <point x="260" y="500"/>
      <point x="260" y="455" type="curve" smooth="yes"/>
      <point x="260" y="409"/>
      <point x="239" y="384"/>
      <point x="206" y="384" type="curve" smooth="yes"/>
      <point x="175" y="384"/>
      <point x="156" y="407"/>
    </contour>
  </outline>
</glyph>
<glyph name="abbreviationsigndeva" format="2">
  <advance width="374"/>
  <unicode hex="0970"/>
  <outline>
    <contour>
      <point x="191" y="267" type="curve" smooth="yes"/>
      <point x="280" y="267"/>
      <point x="333" y="329"/>
      <point x="333" y="419" type="curve" smooth="yes"/>
      <point x="333" y="511"/>
      <point x="278" y="572"/>
      <point x="191" y="572" type="curve" smooth="yes"/>
      <point x="100" y="572"/>
      <point x="49" y="507"/>
      <point x="49" y="419" type="curve" smooth="yes"/>
      <point x="49" y="324"/>
      <point x="106" y="267"/>
    </contour>
    <contour>
      <point x="191" y="355" type="curve" smooth="yes"/>
      <point x="162" y="355"/>
      <point x="142" y="379"/>
      <point x="142" y="419" type="curve" smooth="yes"/>
      <point x="142" y="456"/>
      <point x="158" y="483"/>
      <point x="191" y="483" type="curve" smooth="yes"/>
      <point x="222" y="483"/>
      <point x="240" y="457"/>
      <point x="240" y="419" type="curve" smooth="yes"/>
      <point x="240" y="381"/>
      <point x="223" y="355"/>
    </contour>
  </outline>
</glyph>
<glyph name="uni0971" format="2">
  <advance width="264"/>
  <unicode hex="0971"/>
  <outline>
    <contour>
      <point x="73" y="573" type="curve" smooth="yes"/>
      <point x="73" y="531"/>
      <point x="99" y="502"/>
      <point x="140" y="502" type="curve" smooth="yes"/>
      <point x="181" y="502"/>
      <point x="205" y="531"/>
      <point x="205" y="573" type="curve" smooth="yes"/>
      <point x="205" y="614"/>
      <point x="180" y="644"/>
      <point x="140" y="644" type="curve" smooth="yes"/>
      <point x="100" y="644"/>
      <point x="73" y="616"/>
    </contour>
  </outline>
</glyph>
<glyph name="marwariddadeva" format="2">
  <advance width="465"/>
  <unicode hex="0978"/>
  <outline>
    <contour>
      <point x="206" y="514" type="line"/>
      <point x="477" y="514" type="line"/>
      <point x="477" y="622" type="line"/>
      <point x="0" y="622" type="line"/>
      <point x="0" y="514" type="line"/>
      <point x="85" y="514" type="line"/>
      <point x="85" y="365" type="line"/>
      <point x="151" y="292" type="line"/>
      <point x="182" y="305"/>
      <point x="215" y="313"/>
      <point x="247" y="313" type="curve" smooth="yes"/>
      <point x="297" y="313"/>
      <point x="318" y="279"/>
      <point x="318" y="228" type="curve" smooth="yes"/>
      <point x="318" y="169"/>
      <point x="301" y="117"/>
      <point x="278" y="72" type="curve"/>
      <point x="384" y="19" type="line"/>
      <point x="422" y="91"/>
      <point x="439" y="158"/>
      <point x="439" y="233" type="curve" smooth="yes"/>
      <point x="439" y="333"/>
      <point x="398" y="421"/>
      <point x="260" y="421" type="curve" smooth="yes"/>
      <point x="227" y="421"/>
      <point x="194" y="416"/>
      <point x="164" y="409" type="curve"/>
      <point x="139" y="409" type="line"/>
      <point x="51" y="395"/>
      <point x="25" y="374"/>
      <point x="25" y="327" type="curve" smooth="yes"/>
      <point x="25" y="263"/>
      <point x="88" y="179"/>
      <point x="150" y="179" type="curve" smooth="yes"/>
      <point x="189" y="179"/>
      <point x="206" y="204"/>
      <point x="206" y="251" type="curve" smooth="yes"/>
    </contour>
  </outline>
</glyph>
<glyph name="zhadeva" format="2">
  <advance width="639"/>
  <unicode hex="0979"/>
  <outline>
    <contour>
      <point x="581" y="514" type="line"/>
      <point x="651" y="514" type="line"/>
      <point x="651" y="622" type="line"/>
      <point x="0" y="622" type="line"/>
      <point x="0" y="514" type="line"/>
      <point x="460" y="514" type="line"/>
      <point x="460" y="449" type="line"/>
      <point x="255" y="449" type="line"/>
      <point x="216" y="372" type="line"/>
      <point x="254" y="336"/>
      <point x="283" y="291"/>
      <point x="283" y="248" type="curve" smooth="yes"/>
      <point x="283" y="222"/>
      <point x="271" y="208"/>
      <point x="246" y="208" type="curve" smooth="yes"/>
      <point x="193" y="208"/>
      <point x="160" y="281"/>
      <point x="125" y="431" type="curve"/>
      <point x="15" y="402" type="line"/>
      <point x="69" y="174"/>
      <point x="140" y="100"/>
      <point x="262" y="100" type="curve" smooth="yes"/>
      <point x="344" y="100"/>
      <point x="402" y="144"/>
      <point x="402" y="226" type="curve" smooth="yes"/>
      <point x="402" y="289"/>
      <point x="362" y="344"/>
      <point x="301" y="387" type="curve"/>
      <point x="326" y="348" type="line"/>
      <point x="346" y="344"/>
      <point x="378" y="344"/>
      <point x="400" y="344" type="curve" smooth="yes"/>
      <point x="460" y="344" type="line"/>
      <point x="460" y="-14" type="line"/>
      <point x="581" y="-14" type="line"/>
    </contour>
    <contour>
      <point x="211" y="-69" type="curve" smooth="yes"/>
      <point x="211" y="-102"/>
      <point x="230" y="-124"/>
      <point x="263" y="-124" type="curve" smooth="yes"/>
      <point x="296" y="-124"/>
      <point x="314" y="-102"/>
      <point x="314" y="-69" type="curve" smooth="yes"/>
      <point x="314" y="-36"/>
      <point x="296" y="-12"/>
      <point x="263" y="-12" type="curve" smooth="yes"/>
      <point x="230" y="-12"/>
      <point x="211" y="-36"/>
    </contour>
    <contour>
      <point x="281" y="34" type="curve" smooth="yes"/>
      <point x="281" y="1"/>
      <point x="300" y="-21"/>
      <point x="333" y="-21" type="curve" smooth="yes"/>
      <point x="366" y="-21"/>
      <point x="384" y="1"/>
      <point x="384" y="34" type="curve" smooth="yes"/>
      <point x="384" y="67"/>
      <point x="366" y="91"/>
      <point x="333" y="91" type="curve" smooth="yes"/>
      <point x="300" y="91"/>
      <point x="281" y="67"/>
    </contour>
    <contour>
      <point x="139" y="34" type="curve" smooth="yes"/>
      <point x="139" y="1"/>
      <point x="158" y="-21"/>
      <point x="191" y="-21" type="curve" smooth="yes"/>
      <point x="224" y="-21"/>
      <point x="242" y="1"/>
      <point x="242" y="34" type="curve" smooth="yes"/>
      <point x="242" y="67"/>
      <point x="224" y="91"/>
      <point x="191" y="91" type="curve" smooth="yes"/>
      <point x="158" y="91"/>
      <point x="139" y="67"/>
    </contour>
  </outline>
</glyph>
<glyph name="heavyyadeva" format="2">
  <advance width="493"/>
  <unicode hex="097A"/>
  <outline>
    <contour>
      <point x="435" y="514" type="line"/>
      <point x="505" y="514" type="line"/>
      <point x="505" y="622" type="line"/>
      <point x="0" y="622" type="line"/>
      <point x="0" y="514" type="line"/>
      <point x="149" y="514" type="line"/>
      <point x="74" y="540" type="line"/>
      <point x="88" y="518"/>
      <point x="102" y="481"/>
      <point x="102" y="447" type="curve" smooth="yes"/>
      <point x="102" y="393"/>
      <point x="78" y="365"/>
      <point x="21" y="346" type="curve"/>
      <point x="43" y="195"/>
      <point x="101" y="106"/>
      <point x="211" y="106" type="curve" smooth="yes"/>
      <point x="273" y="106"/>
      <point x="311" y="124"/>
      <point x="354" y="168" type="curve"/>
      <point x="315" y="204" type="line"/>
      <point x="315" y="0" type="line"/>
      <point x="435" y="0" type="line"/>
    </contour>
    <contour>
      <point x="147" y="514" type="line"/>
      <point x="314" y="514" type="line"/>
      <point x="314" y="256" type="line"/>
      <point x="309" y="256" type="line"/>
      <point x="287" y="230"/>
      <point x="260" y="214"/>
      <point x="224" y="214" type="curve" smooth="yes"/>
      <point x="187" y="214"/>
      <point x="159" y="244"/>
      <point x="147" y="301" type="curve"/>
      <point x="144" y="289" type="line"/>
      <point x="182" y="311"/>
      <point x="212" y="342"/>
      <point x="218" y="399" type="curve"/>
      <point x="220" y="426" type="line"/>
      <point x="220" y="475"/>
      <point x="204" y="513"/>
      <point x="186" y="548" type="curve"/>
    </contour>
    <contour>
      <point x="331" y="263" type="line"/>
      <point x="192" y="536" type="line"/>
      <point x="159" y="491" type="line"/>
      <point x="179" y="435"/>
      <point x="216" y="347"/>
      <point x="236" y="308" type="curve" smooth="yes"/>
      <point x="278" y="225" type="line"/>
    </contour>
  </outline>
</glyph>
<glyph name="gabardeva" format="2">
  <advance width="480"/>
  <unicode hex="097B"/>
  <outline>
    <contour>
      <point x="206" y="514" type="line"/>
      <point x="301" y="514" type="line"/>
      <point x="301" y="-14" type="line"/>
      <point x="422" y="-14" type="line"/>
      <point x="422" y="514" type="line"/>
      <point x="492" y="514" type="line"/>
      <point x="492" y="622" type="line"/>
      <point x="0" y="622" type="line"/>
      <point x="0" y="514" type="line"/>
      <point x="85" y="514" type="line"/>
      <point x="85" y="380" type="line"/>
      <point x="90" y="385" type="line" smooth="yes"/>
      <point x="40" y="385"/>
      <point x="25" y="358"/>
      <point x="25" y="321" type="curve" smooth="yes"/>
      <point x="25" y="255"/>
      <point x="88" y="170"/>
      <point x="150" y="170" type="curve" smooth="yes"/>
      <point x="189" y="170"/>
      <point x="206" y="195"/>
      <point x="206" y="242" type="curve" smooth="yes"/>
    </contour>
    <contour>
      <point x="68" y="75" type="line"/>
      <point x="68" y="-14" type="line"/>
      <point x="325" y="-14" type="line"/>
      <point x="325" y="75" type="line"/>
    </contour>
  </outline>
</glyph>
<glyph name="jabardeva" format="2">
  <advance width="634"/>
  <unicode hex="097C"/>
  <outline>
    <contour>
      <point x="576" y="514" type="line"/>
      <point x="646" y="514" type="line"/>
      <point x="646" y="622" type="line"/>
      <point x="0" y="622" type="line"/>
      <point x="0" y="514" type="line"/>
      <point x="455" y="514" type="line"/>
      <point x="455" y="449" type="line"/>
      <point x="255" y="449" type="line"/>
      <point x="216" y="372" type="line"/>
      <point x="255" y="336"/>
      <point x="283" y="291"/>
      <point x="283" y="248" type="curve" smooth="yes"/>
      <point x="283" y="224"/>
      <point x="273" y="208"/>
      <point x="247" y="208" type="curve" smooth="yes"/>
      <point x="193" y="208"/>
      <point x="161" y="281"/>
      <point x="125" y="431" type="curve"/>
      <point x="15" y="402" type="line"/>
      <point x="69" y="174"/>
      <point x="140" y="100"/>
      <point x="262" y="100" type="curve" smooth="yes"/>
      <point x="344" y="100"/>
      <point x="402" y="144"/>
      <point x="402" y="226" type="curve" smooth="yes"/>
      <point x="402" y="289"/>
      <point x="363" y="344"/>
      <point x="302" y="387" type="curve"/>
      <point x="327" y="348" type="line"/>
      <point x="347" y="344"/>
      <point x="378" y="344"/>
      <point x="400" y="344" type="curve" smooth="yes"/>
      <point x="455" y="344" type="line"/>
      <point x="455" y="-14" type="line"/>
      <point x="576" y="-14" type="line"/>
    </contour>
    <contour>
      <point x="66" y="75" type="line"/>
      <point x="66" y="-14" type="line"/>
      <point x="482" y="-14" type="line"/>
      <point x="482" y="75" type="line"/>
    </contour>
  </outline>
</glyph>
<glyph name="uni097D" format="2">
  <advance width="388"/>
  <unicode hex="097D"/>
  <outline>
    <contour>
      <point x="180" y="632" type="curve" smooth="yes"/>
      <point x="125" y="632"/>
      <point x="82" y="620"/>
      <point x="37" y="603" type="curve"/>
      <point x="75" y="501" type="line"/>
      <point x="101" y="513"/>
      <point x="129" y="522"/>
      <point x="158" y="522" type="curve" smooth="yes"/>
      <point x="209" y="522"/>
      <point x="233" y="488"/>
      <point x="233" y="436" type="curve" smooth="yes"/>
      <point x="233" y="373"/>
      <point x="193" y="335"/>
      <point x="112" y="328" type="curve"/>
      <point x="112" y="0" type="line"/>
      <point x="233" y="0" type="line"/>
      <point x="233" y="241" type="line"/>
      <point x="301" y="269"/>
      <point x="356" y="326"/>
      <point x="356" y="437" type="curve" smooth="yes"/>
      <point x="356" y="546"/>
      <point x="298" y="632"/>
    </contour>
  </outline>
</glyph>
<glyph name="ddabardeva" format="2">
  <advance width="482"/>
  <unicode hex="097E"/>
  <outline>
    <contour>
      <point x="274" y="249" type="curve" smooth="yes"/>
      <point x="319" y="249"/>
      <point x="335" y="235"/>
      <point x="335" y="210" type="curve" smooth="yes"/>
      <point x="335" y="185"/>
      <point x="318" y="172"/>
      <point x="268" y="172" type="curve" smooth="yes"/>
      <point x="202" y="172"/>
      <point x="148" y="205"/>
      <point x="93" y="268" type="curve"/>
      <point x="11" y="200" type="line"/>
      <point x="90" y="117"/>
      <point x="171" y="82"/>
      <point x="273" y="82" type="curve" smooth="yes"/>
      <point x="408" y="82"/>
      <point x="453" y="138"/>
      <point x="453" y="208" type="curve" smooth="yes"/>
      <point x="453" y="281"/>
      <point x="410" y="335"/>
      <point x="306" y="335" type="curve" smooth="yes"/>
      <point x="285" y="335"/>
      <point x="265" y="332"/>
      <point x="245" y="327" type="curve"/>
      <point x="239" y="336"/>
      <point x="232" y="348"/>
      <point x="232" y="361" type="curve" smooth="yes"/>
      <point x="232" y="379"/>
      <point x="243" y="383"/>
      <point x="267" y="383" type="curve" smooth="yes"/>
      <point x="416" y="383" type="line"/>
      <point x="416" y="514" type="line"/>
      <point x="494" y="514" type="line"/>
      <point x="494" y="622" type="line"/>
      <point x="0" y="622" type="line"/>
      <point x="0" y="514" type="line"/>
      <point x="297" y="514" type="line"/>
      <point x="297" y="466" type="line"/>
      <point x="257" y="466" type="line" smooth="yes"/>
      <point x="193" y="466"/>
      <point x="163" y="456"/>
      <point x="142" y="436" type="curve" smooth="yes"/>
      <point x="123" y="417"/>
      <point x="115" y="396"/>
      <point x="115" y="367" type="curve" smooth="yes"/>
      <point x="115" y="320"/>
      <point x="151" y="270"/>
      <point x="191" y="236" type="curve"/>
      <point x="216" y="243"/>
      <point x="242" y="249"/>
    </contour>
    <contour>
      <point x="55" y="75" type="line"/>
      <point x="55" y="-14" type="line"/>
      <point x="450" y="-14" type="line"/>
      <point x="450" y="75" type="line"/>
    </contour>
  </outline>
</glyph>
<glyph name="babardeva" format="2">
  <advance width="475"/>
  <unicode hex="097F"/>
  <outline>
    <contour>
      <point x="487" y="514" type="line"/>
      <point x="487" y="622" type="line"/>
      <point x="0" y="622" type="line"/>
      <point x="0" y="514" type="line"/>
      <point x="296" y="514" type="line"/>
      <point x="296" y="227" type="line"/>
      <point x="321" y="304" type="line"/>
      <point x="295" y="252"/>
      <point x="259" y="215"/>
      <point x="204" y="215" type="curve" smooth="yes"/>
      <point x="164" y="215"/>
      <point x="137" y="235"/>
      <point x="137" y="293" type="curve" smooth="yes"/>
      <point x="137" y="347"/>
      <point x="167" y="373"/>
      <point x="212" y="373" type="curve" smooth="yes"/>
      <point x="232" y="373"/>
      <point x="250" y="371"/>
      <point x="264" y="367" type="curve"/>
      <point x="273" y="463" type="line"/>
      <point x="251" y="468"/>
      <point x="225" y="471"/>
      <point x="198" y="471" type="curve" smooth="yes"/>
      <point x="86" y="471"/>
      <point x="27" y="404"/>
      <point x="27" y="295" type="curve" smooth="yes"/>
      <point x="27" y="182"/>
      <point x="89" y="118"/>
      <point x="196" y="118" type="curve" smooth="yes"/>
      <point x="256" y="118"/>
      <point x="301" y="139"/>
      <point x="341" y="180" type="curve"/>
      <point x="296" y="209" type="line"/>
      <point x="296" y="-14" type="line"/>
      <point x="417" y="-14" type="line"/>
      <point x="417" y="514" type="line"/>
    </contour>
    <contour>
      <point x="174" y="431" type="line"/>
      <point x="111" y="406" type="line"/>
      <point x="248" y="173" type="line"/>
      <point x="299" y="215" type="line"/>
    </contour>
    <contour>
      <point x="65" y="75" type="line"/>
      <point x="65" y="-14" type="line"/>
      <point x="322" y="-14" type="line"/>
      <point x="322" y="75" type="line"/>
    </contour>
  </outline>
</glyph>
<glyph name="uni1CD0" format="2">
  <unicode hex="1CD0"/>
  <outline>
    <contour>
      <point x="-316" y="978" type="line"/>
      <point x="-221" y="947" type="line"/>
      <point x="-156" y="1129" type="line"/>
      <point x="-80" y="947" type="line"/>
      <point x="3" y="977" type="line"/>
      <point x="-106" y="1222" type="line"/>
      <point x="-215" y="1222" type="line"/>
    </contour>
  </outline>
</glyph>
<glyph name="uni1CD1" format="2">
  <unicode hex="1CD1"/>
  <outline>
    <contour>
      <point x="-318" y="1016" type="line"/>
      <point x="-227" y="985" type="line"/>
      <point x="-155" y="1166" type="line"/>
      <point x="-74" y="985" type="line"/>
      <point x="6" y="1015" type="line"/>
      <point x="-104" y="1238" type="line"/>
      <point x="-216" y="1238" type="line"/>
    </contour>
    <contour>
      <point x="-194" y="1067" type="line"/>
      <point x="-194" y="904" type="line"/>
      <point x="-112" y="904" type="line"/>
      <point x="-112" y="1067" type="line"/>
    </contour>
  </outline>
</glyph>
<glyph name="uni1CD2" format="2">
  <unicode hex="1CD2"/>
  <outline>
    <contour>
      <point x="-308" y="1069" type="line"/>
      <point x="-308" y="980" type="line"/>
      <point x="-8" y="980" type="line"/>
      <point x="-8" y="1069" type="line"/>
    </contour>
  </outline>
</glyph>
<glyph name="uni1CD3" format="2">
  <advance width="304"/>
  <unicode hex="1CD3"/>
  <outline>
    <contour>
      <point x="198" y="896" type="line"/>
      <point x="168" y="659" type="line"/>
      <point x="248" y="659" type="line"/>
      <point x="277" y="896" type="line"/>
    </contour>
    <contour>
      <point x="74" y="896" type="line"/>
      <point x="45" y="659" type="line"/>
      <point x="122" y="659" type="line"/>
      <point x="151" y="896" type="line"/>
    </contour>
  </outline>
</glyph>
<glyph name="uni1CD4" format="2">
  <unicode hex="1CD4"/>
  <outline>
    <contour>
      <point x="-244" y="334" type="line"/>
      <point x="-244" y="245" type="line"/>
      <point x="3" y="245" type="line"/>
      <point x="3" y="334" type="line"/>
    </contour>
  </outline>
</glyph>
<glyph name="uni1CD5" format="2">
  <unicode hex="1CD5"/>
  <outline>
    <contour>
      <point x="-165" y="-63" type="curve"/>
      <point x="-234" y="-63" type="line"/>
      <point x="-236" y="-123"/>
      <point x="-244" y="-149"/>
      <point x="-270" y="-149" type="curve" smooth="yes"/>
      <point x="-292" y="-149"/>
      <point x="-303" y="-135"/>
      <point x="-306" y="-61" type="curve"/>
      <point x="-386" y="-63" type="line"/>
      <point x="-384" y="-198"/>
      <point x="-340" y="-242"/>
      <point x="-281" y="-242" type="curve" smooth="yes"/>
      <point x="-205" y="-242"/>
      <point x="-185" y="-186"/>
    </contour>
    <contour>
      <point x="-164" y="-63" type="curve"/>
      <point x="-233" y="-63" type="line"/>
      <point x="-214" y="-186"/>
      <point x="-196" y="-242"/>
      <point x="-119" y="-242" type="curve" smooth="yes"/>
      <point x="-58" y="-242"/>
      <point x="-13" y="-198"/>
      <point x="-12" y="-63" type="curve"/>
      <point x="-92" y="-61" type="line"/>
      <point x="-96" y="-135"/>
      <point x="-107" y="-149"/>
      <point x="-130" y="-149" type="curve" smooth="yes"/>
      <point x="-155" y="-149"/>
      <point x="-163" y="-123"/>
    </contour>
  </outline>
</glyph>
<glyph name="uni1CD6" format="2">
  <unicode hex="1CD6"/>
  <outline>
    <contour>
      <point x="-368" y="-55" type="line"/>
      <point x="-368" y="-243" type="line"/>
      <point x="-56" y="-243" type="line"/>
      <point x="-56" y="-154" type="line"/>
      <point x="-278" y="-154" type="line"/>
      <point x="-278" y="-55" type="line"/>
    </contour>
  </outline>
</glyph>
<glyph name="uni1CD7" format="2">
  <unicode hex="1CD7"/>
  <outline>
    <contour>
      <point x="-373" y="-141" type="curve" smooth="yes"/>
      <point x="-373" y="-178"/>
      <point x="-360" y="-209"/>
      <point x="-332" y="-231" type="curve" smooth="yes"/>
      <point x="-307" y="-251"/>
      <point x="-279" y="-263"/>
      <point x="-204" y="-263" type="curve" smooth="yes"/>
      <point x="-56" y="-263" type="line"/>
      <point x="-56" y="-174" type="line"/>
      <point x="-224" y="-174" type="line" smooth="yes"/>
      <point x="-246" y="-174"/>
      <point x="-257" y="-171"/>
      <point x="-264" y="-165" type="curve" smooth="yes"/>
      <point x="-271" y="-160"/>
      <point x="-274" y="-151"/>
      <point x="-274" y="-143" type="curve" smooth="yes"/>
      <point x="-274" y="-118"/>
      <point x="-255" y="-111"/>
      <point x="-228" y="-111" type="curve" smooth="yes"/>
      <point x="-210" y="-111" type="line"/>
      <point x="-214" y="-22" type="line"/>
      <point x="-303" y="-23"/>
      <point x="-373" y="-63"/>
    </contour>
  </outline>
</glyph>
<glyph name="uni1CD9" format="2">
  <unicode hex="1CD9"/>
  <outline>
    <contour>
      <point x="-113" y="-125" type="line"/>
      <point x="14" y="-255" type="line"/>
      <point x="88" y="-177" type="line"/>
      <point x="-82" y="-25" type="line"/>
      <point x="-168" y="-25" type="line"/>
      <point x="-282" y="-202" type="line"/>
      <point x="-187" y="-254" type="line"/>
    </contour>
  </outline>
</glyph>
<glyph name="uni1CDA" format="2">
  <unicode hex="1CDA"/>
  <outline>
    <contour>
      <point x="-103" y="880" type="line"/>
      <point x="-103" y="670" type="line"/>
      <point x="-31" y="670" type="line"/>
      <point x="-31" y="880" type="line"/>
    </contour>
    <contour>
      <point x="-210" y="880" type="line"/>
      <point x="-210" y="670" type="line"/>
      <point x="-139" y="670" type="line"/>
      <point x="-139" y="880" type="line"/>
    </contour>
  </outline>
</glyph>
<glyph name="uni1CDB" format="2">
  <unicode hex="1CDB"/>
  <outline>
    <contour>
      <point x="-251" y="880" type="line"/>
      <point x="-251" y="670" type="line"/>
      <point x="-186" y="670" type="line"/>
      <point x="-186" y="880" type="line"/>
    </contour>
    <contour>
      <point x="-153" y="880" type="line"/>
      <point x="-153" y="670" type="line"/>
      <point x="-87" y="670" type="line"/>
      <point x="-87" y="880" type="line"/>
    </contour>
    <contour>
      <point x="-55" y="880" type="line"/>
      <point x="-55" y="670" type="line"/>
      <point x="10" y="670" type="line"/>
      <point x="10" y="880" type="line"/>
    </contour>
  </outline>
</glyph>
<glyph name="uni1CDD" format="2">
  <unicode hex="1CDD"/>
  <outline>
    <contour>
      <point x="-23" y="-156" type="line"/>
      <point x="-119" y="-58" type="line"/>
      <point x="-215" y="-156" type="line"/>
      <point x="-119" y="-254" type="line"/>
    </contour>
  </outline>
</glyph>
<glyph name="uni1CDE" format="2">
  <unicode hex="1CDE"/>
  <outline>
    <contour>
      <point x="-178" y="-122" type="curve" smooth="yes"/>
      <point x="-178" y="-160"/>
      <point x="-156" y="-187"/>
      <point x="-119" y="-187" type="curve" smooth="yes"/>
      <point x="-81" y="-187"/>
      <point x="-60" y="-160"/>
      <point x="-60" y="-122" type="curve" smooth="yes"/>
      <point x="-60" y="-85"/>
      <point x="-81" y="-57"/>
      <point x="-119" y="-57" type="curve" smooth="yes"/>
      <point x="-156" y="-57"/>
      <point x="-178" y="-85"/>
    </contour>
    <contour>
      <point x="-322" y="-122" type="curve" smooth="yes"/>
      <point x="-322" y="-160"/>
      <point x="-300" y="-187"/>
      <point x="-263" y="-187" type="curve" smooth="yes"/>
      <point x="-225" y="-187"/>
      <point x="-204" y="-160"/>
      <point x="-204" y="-122" type="curve" smooth="yes"/>
      <point x="-204" y="-85"/>
      <point x="-225" y="-57"/>
      <point x="-263" y="-57" type="curve" smooth="yes"/>
      <point x="-300" y="-57"/>
      <point x="-322" y="-85"/>
    </contour>
  </outline>
</glyph>
<glyph name="uni1CDF" format="2">
  <unicode hex="1CDF"/>
  <outline>
    <contour>
      <point x="-175" y="-122" type="curve" smooth="yes"/>
      <point x="-175" y="-160"/>
      <point x="-153" y="-187"/>
      <point x="-116" y="-187" type="curve" smooth="yes"/>
      <point x="-79" y="-187"/>
      <point x="-57" y="-160"/>
      <point x="-57" y="-122" type="curve" smooth="yes"/>
      <point x="-57" y="-85"/>
      <point x="-79" y="-57"/>
      <point x="-116" y="-57" type="curve" smooth="yes"/>
      <point x="-153" y="-57"/>
      <point x="-175" y="-85"/>
    </contour>
    <contour>
      <point x="-316" y="-122" type="curve" smooth="yes"/>
      <point x="-316" y="-160"/>
      <point x="-294" y="-187"/>
      <point x="-257" y="-187" type="curve" smooth="yes"/>
      <point x="-219" y="-187"/>
      <point x="-197" y="-160"/>
      <point x="-197" y="-122" type="curve" smooth="yes"/>
      <point x="-197" y="-85"/>
      <point x="-219" y="-57"/>
      <point x="-257" y="-57" type="curve" smooth="yes"/>
      <point x="-294" y="-57"/>
      <point x="-316" y="-85"/>
    </contour>
    <contour>
      <point x="-456" y="-122" type="curve" smooth="yes"/>
      <point x="-456" y="-160"/>
      <point x="-434" y="-187"/>
      <point x="-397" y="-187" type="curve" smooth="yes"/>
      <point x="-359" y="-187"/>
      <point x="-338" y="-160"/>
      <point x="-338" y="-122" type="curve" smooth="yes"/>
      <point x="-338" y="-85"/>
      <point x="-359" y="-57"/>
      <point x="-397" y="-57" type="curve" smooth="yes"/>
      <point x="-434" y="-57"/>
      <point x="-456" y="-85"/>
    </contour>
  </outline>
</glyph>
<glyph name="uni1CE0" format="2">
  <unicode hex="1CE0"/>
  <outline>
    <contour>
      <point x="32" y="665" type="curve" smooth="yes"/>
      <point x="32" y="569"/>
      <point x="113" y="522"/>
      <point x="203" y="522" type="curve" smooth="yes"/>
      <point x="211" y="522" type="line"/>
      <point x="215" y="621" type="line"/>
      <point x="196" y="621" type="line" smooth="yes"/>
      <point x="166" y="621"/>
      <point x="145" y="631"/>
      <point x="145" y="658" type="curve" smooth="yes"/>
      <point x="145" y="671"/>
      <point x="149" y="681"/>
      <point x="157" y="687" type="curve" smooth="yes"/>
      <point x="166" y="693"/>
      <point x="178" y="696"/>
      <point x="200" y="696" type="curve" smooth="yes"/>
      <point x="350" y="696" type="line"/>
      <point x="350" y="804" type="line"/>
      <point x="229" y="804" type="line" smooth="yes"/>
      <point x="146" y="804"/>
      <point x="107" y="790"/>
      <point x="79" y="768" type="curve" smooth="yes"/>
      <point x="45" y="743"/>
      <point x="32" y="708"/>
    </contour>
  </outline>
</glyph>
<glyph name="uni1CE1" format="2">
  <advance width="353"/>
  <unicode hex="1CE1"/>
  <outline>
    <contour>
      <point x="299" y="729" type="curve"/>
      <point x="394" y="783" type="line"/>
      <point x="356" y="841"/>
      <point x="310" y="869"/>
      <point x="248" y="869" type="curve" smooth="yes"/>
      <point x="163" y="869"/>
      <point x="97" y="813"/>
      <point x="97" y="687" type="curve" smooth="yes"/>
      <point x="97" y="513"/>
      <point x="136" y="301"/>
      <point x="136" y="73" type="curve" smooth="yes"/>
      <point x="136" y="-25"/>
      <point x="112" y="-80"/>
      <point x="28" y="-80" type="curve" smooth="yes"/>
      <point x="9" y="-80"/>
      <point x="-6" y="-79"/>
      <point x="-17" y="-77" type="curve"/>
      <point x="-21" y="-184" type="line"/>
      <point x="-8" y="-187"/>
      <point x="12" y="-189"/>
      <point x="40" y="-189" type="curve" smooth="yes"/>
      <point x="210" y="-189"/>
      <point x="259" y="-74"/>
      <point x="259" y="71" type="curve" smooth="yes"/>
      <point x="259" y="310"/>
      <point x="219" y="525"/>
      <point x="219" y="685" type="curve" smooth="yes"/>
      <point x="219" y="737"/>
      <point x="233" y="760"/>
      <point x="259" y="760" type="curve" smooth="yes"/>
      <point x="275" y="760"/>
      <point x="287" y="748"/>
    </contour>
  </outline>
</glyph>
<glyph name="uni1CE2" format="2">
  <unicode hex="1CE2"/>
  <outline>
    <contour>
      <point x="-235" y="323" type="line"/>
      <point x="-235" y="232" type="line"/>
      <point x="-2" y="232" type="line"/>
      <point x="-2" y="323" type="line"/>
    </contour>
  </outline>
</glyph>
<glyph name="uni1CE3" format="2">
  <unicode hex="1CE3"/>
  <outline>
    <contour>
      <point x="49" y="595" type="curve"/>
      <point x="-39" y="531" type="line"/>
      <point x="-16" y="503"/>
      <point x="7" y="475"/>
      <point x="31" y="440" type="curve" smooth="yes"/>
      <point x="64" y="392"/>
      <point x="73" y="374"/>
      <point x="73" y="351" type="curve" smooth="yes"/>
      <point x="73" y="343"/>
      <point x="71" y="336"/>
      <point x="66" y="332" type="curve" smooth="yes"/>
      <point x="60" y="326"/>
      <point x="53" y="323"/>
      <point x="33" y="323" type="curve" smooth="yes"/>
      <point x="-98" y="323" type="line"/>
      <point x="-98" y="232" type="line"/>
      <point x="17" y="232" type="line" smooth="yes"/>
      <point x="84" y="232"/>
      <point x="118" y="240"/>
      <point x="144" y="260" type="curve" smooth="yes"/>
      <point x="169" y="278"/>
      <point x="184" y="309"/>
      <point x="184" y="345" type="curve" smooth="yes"/>
      <point x="184" y="405"/>
      <point x="162" y="445"/>
      <point x="121" y="503" type="curve" smooth="yes"/>
      <point x="93" y="542"/>
      <point x="69" y="571"/>
    </contour>
  </outline>
</glyph>
<glyph name="uni1CE4" format="2">
  <unicode hex="1CE4"/>
  <outline>
    <contour>
      <point x="253" y="531" type="curve"/>
      <point x="165" y="595" type="line"/>
      <point x="145" y="571"/>
      <point x="121" y="542"/>
      <point x="93" y="503" type="curve" smooth="yes"/>
      <point x="52" y="445"/>
      <point x="30" y="405"/>
      <point x="30" y="345" type="curve" smooth="yes"/>
      <point x="30" y="309"/>
      <point x="45" y="278"/>
      <point x="70" y="260" type="curve" smooth="yes"/>
      <point x="96" y="240"/>
      <point x="130" y="232"/>
      <point x="197" y="232" type="curve" smooth="yes"/>
      <point x="312" y="232" type="line"/>
      <point x="312" y="323" type="line"/>
      <point x="181" y="323" type="line" smooth="yes"/>
      <point x="161" y="323"/>
      <point x="154" y="326"/>
      <point x="148" y="332" type="curve" smooth="yes"/>
      <point x="143" y="336"/>
      <point x="141" y="343"/>
      <point x="141" y="351" type="curve" smooth="yes"/>
      <point x="141" y="374"/>
      <point x="150" y="392"/>
      <point x="183" y="440" type="curve" smooth="yes"/>
      <point x="206" y="474"/>
      <point x="229" y="503"/>
    </contour>
  </outline>
</glyph>
